Symbols-Bold.sfdir
StartChar: uF02B2
Encoding: 983730 983730 390
Width: 1000
Flags: W
LayerCount: 2
Fore
SplineSet
590 -170 m 1
 590 770 l 1
 907 770 l 1
 843.666992188 708.666992188 794.5 637.166992188 759.5 555.5 c 128
 724.5 473.833007812 707 388.666992188 707 300 c 128
 707 211.333007812 724.5 126.166992188 759.5 44.5 c 128
 794.5 -37.1669921875 843.666992188 -108.666992188 907 -170 c 1
 590 -170 l 1
EndSplineSet
Colour: ff
EndChar
StartChar: uF02BF
Encoding: 983743 983743 234
Width: 1000
Flags: MW
LayerCount: 2
Fore
SplineSet
114 260 m 128
 114 325 133 378 171 419 c 128
 209 460 257 480 316 480 c 0
 394 480 458 439 506 358 c 1
 508 358 l 1
 550 439 609 480 684 480 c 0
 743 480 792 460 830 419 c 128
 868 378 886 325 886 260 c 0
 886 197 867 145 828 103 c 128
 789 61 742 40 684 40 c 0
 606 40 542 81 494 162 c 1
 492 162 l 1
 450 81 391 40 316 40 c 0
 257 40 208 60 170 101 c 128
 132 142 114 195 114 260 c 128
448 253 m 1
 435 289 418 317 396 337 c 128
 374 357 351 367 324 367 c 0
 293 367 267 357 249 338 c 128
 231 319 222 293 222 260 c 128
 222 227 231 201 249 182 c 128
 267 163 293 153 324 153 c 0
 358 153 385 165 408 187 c 0
 424 203 437 225 448 253 c 1
778 260 m 0
 778 293 769 319 751 338 c 128
 733 357 707 367 676 367 c 0
 647 367 623 359 602 342 c 0
 581 325 565 300 552 267 c 1
 565 231 582 203 604 183 c 128
 626 163 649 153 676 153 c 0
 707 153 731 163 750 184 c 128
 769 205 778 230 778 260 c 0
EndSplineSet
EndChar
StartChar: uF02C0
Encoding: 983744 983744 235
Width: 1000
Flags: MW
LayerCount: 2
Fore
SplineSet
566 488 m 0
 566 470 559 455 546 442 c 0
 533 429 518 422 500 422 c 0
 482 422 467 429 454 442 c 0
 441 455 434 470 434 488 c 0
 434 506 440 522 453 535 c 0
 466 548 482 554 500 554 c 0
 518 554 533 547 546 534 c 0
 559 521 566 506 566 488 c 0
816 55 m 0
 816 37 810 21 797 8 c 0
 784 -5 768 -11 750 -11 c 256
 732 -11 716 -5 703 8 c 0
 690 21 684 37 684 55 c 256
 684 73 690 89 703 102 c 0
 716 115 732 121 750 121 c 0
 768 121 783 114 796 101 c 0
 809 88 816 73 816 55 c 0
316 55 m 0
 316 37 310 21 297 8 c 0
 284 -5 268 -11 250 -11 c 256
 232 -11 216 -5 203 8 c 0
 190 21 184 37 184 55 c 256
 184 73 190 89 203 102 c 0
 216 115 232 121 250 121 c 0
 268 121 283 114 296 101 c 0
 309 88 316 73 316 55 c 0
EndSplineSet
Colour: ff
EndChar
StartChar: uF02C1
Encoding: 983745 983745 234
Width: 1000
VWidth: 940
Flags: MW
LayerCount: 2
Fore
SplineSet
130 170 m 0
 130 236 153 293 200 340 c 0
 247 387 304 410 370 410 c 0
 423 410 471 394 514 362 c 1
 753 602 l 1
 497 602 l 1
 497 670 l 1
 870 670 l 1
 870 297 l 1
 802 297 l 1
 802 553 l 1
 562 314 l 1
 594 271 610 223 610 170 c 0
 610 104 587 47 540 0 c 0
 493 -47 436 -70 370 -70 c 0
 304 -70 247 -47 200 0 c 0
 153 47 130 104 130 170 c 0
198 170 m 0
 198 123 214 82 248 48 c 0
 282 14 323 -2 370 -2 c 0
 417 -2 458 14 492 48 c 0
 526 82 542 123 542 170 c 0
 542 217 526 258 492 292 c 0
 458 326 417 342 370 342 c 0
 323 342 282 326 248 292 c 0
 214 258 198 217 198 170 c 0
EndSplineSet
Colour: ff
EndChar
StartChar: uF02C2
Encoding: 983746 983746 237
Width: 1000
Flags: MW
LayerCount: 2
Fore
SplineSet
821 456 m 0
 821 373 793 300 738 240 c 0
 683 180 614 146 541 137 c 1
 541 20 l 1
 705 20 l 1
 705 -61 l 1
 541 -61 l 1
 541 -200 l 1
 460 -200 l 1
 460 -61 l 1
 295 -61 l 1
 295 20 l 1
 460 20 l 1
 460 137 l 1
 387 146 317 181 262 241 c 0
 207 301 179 373 179 456 c 0
 179 545 210 622 272 684 c 0
 334 746 411 777 500 777 c 256
 589 777 666 746 728 684 c 0
 790 622 821 545 821 456 c 0
734 456 m 256
 734 521 712 576 666 622 c 0
 620 668 565 690 500 690 c 256
 435 690 380 668 334 622 c 0
 288 576 266 521 266 456 c 256
 266 391 289 336 334 290 c 0
 379 244 435 222 500 222 c 256
 565 222 620 244 666 290 c 0
 712 336 734 391 734 456 c 256
EndSplineSet
Colour: ff
EndChar
StartChar: uF02D1
Encoding: 983761 983761 200
Width: 1000
Flags: MW
LayerCount: 2
Fore
SplineSet
934 418 m 1
 666 223 l 1
 768 -92 l 1
 500 103 l 1
 231 -92 l 1
 334 223 l 1
 66 418 l 1
 397 418 l 1
 500 734 l 1
 602 418 l 1
 934 418 l 1
754 361 m 1
 560 361 l 1
 500 544 l 1
 440 361 l 1
 244 361 l 1
 403 244 l 1
 343 61 l 1
 500 175 l 1
 657 61 l 1
 596 244 l 1
 754 361 l 1
EndSplineSet
Colour: ff
EndChar
StartChar: uF02D3
Encoding: 983763 983763 202
Width: 1000
Flags: MW
LayerCount: 2
Fore
SplineSet
939 284 m 256
 939 162 896 59 811 -27 c 0
 726 -113 621 -155 499 -155 c 256
 377 -155 274 -113 189 -27 c 0
 104 59 61 162 61 284 c 256
 61 406 104 509 189 595 c 0
 274 681 377 723 499 723 c 256
 621 723 724 681 810 595 c 0
 896 509 939 406 939 284 c 256
880 284 m 256
 880 390 843 479 769 553 c 0
 695 627 605 664 499 664 c 256
 393 664 304 627 230 553 c 0
 156 479 119 390 119 284 c 256
 119 178 156 89 230 15 c 0
 304 -59 393 -96 499 -96 c 256
 605 -96 695 -59 769 15 c 0
 843 89 880 178 880 284 c 256
EndSplineSet
Colour: ff
EndChar
StartChar: uF02D6
Encoding: 983766 983766 205
Width: 1000
Flags: MW
LayerCount: 2
Fore
SplineSet
957 284 m 1
 499 -172 l 1
 43 284 l 1
 499 741 l 1
 957 284 l 1
874 284 m 1
 499 658 l 1
 126 284 l 1
 499 -89 l 1
 874 284 l 1
EndSplineSet
Colour: ff
EndChar
StartChar: uF02D8
Encoding: 983768 983768 207
Width: 1000
Flags: MW
LayerCount: 2
Fore
SplineSet
894 -66 m 1
 106 -66 l 1
 106 722 l 1
 894 722 l 1
 894 -66 l 1
836 -7 m 1
 836 663 l 1
 165 663 l 1
 165 -7 l 1
 836 -7 l 1
EndSplineSet
Colour: ff
EndChar
StartChar: uF02DA
Encoding: 983770 983770 209
Width: 1000
VWidth: 940
Flags: MW
LayerCount: 2
Fore
SplineSet
950 -60 m 1
 50 -60 l 1
 500 720 l 1
 950 -60 l 1
500 600 m 1
 154 0 l 1
 846 0 l 1
 500 600 l 1
EndSplineSet
Colour: ff
EndChar
StartChar: uF02DC
Encoding: 983772 983772 211
Width: 1000
VWidth: 940
Flags: MW
LayerCount: 2
Fore
SplineSet
500 20 m 1
 846 620 l 1
 154 620 l 1
 500 20 l 1
500 -100 m 1
 50 680 l 1
 950 680 l 1
 500 -100 l 1
EndSplineSet
Colour: ff
EndChar
StartChar: uF02DE
Encoding: 983774 983774 234
Width: 1000
Flags: MW
LayerCount: 2
Fore
SplineSet
280 300 m 0
 280 276 271 255 254 238 c 0
 237 221 217 213 193 213 c 0
 169 213 149 221 132 238 c 0
 115 255 107 276 107 300 c 0
 107 324 115 345 132 362 c 0
 149 379 169 387 193 387 c 0
 217 387 237 379 254 362 c 0
 271 345 280 324 280 300 c 0
587 -7 m 0
 587 -31 579 -51 562 -68 c 0
 545 -85 524 -93 500 -93 c 0
 476 -93 455 -85 438 -68 c 0
 421 -51 413 -31 413 -7 c 0
 413 17 421 37 438 54 c 0
 455 71 476 80 500 80 c 0
 524 80 545 71 562 54 c 0
 579 37 587 17 587 -7 c 0
893 300 m 0
 893 276 885 255 868 238 c 0
 851 221 831 213 807 213 c 0
 783 213 763 221 746 238 c 0
 729 255 720 276 720 300 c 0
 720 324 729 345 746 362 c 0
 763 379 783 387 807 387 c 0
 831 387 851 379 868 362 c 0
 885 345 893 324 893 300 c 0
587 607 m 0
 587 583 579 563 562 546 c 0
 545 529 524 520 500 520 c 0
 476 520 455 529 438 546 c 0
 421 563 413 583 413 607 c 0
 413 631 421 651 438 668 c 0
 455 685 476 693 500 693 c 0
 524 693 545 685 562 668 c 0
 579 651 587 631 587 607 c 0
891 635 m 1
 561 305 l 1
 891 -25 l 1
 830 -86 l 1
 500 244 l 1
 170 -86 l 1
 109 -25 l 1
 439 305 l 1
 109 635 l 1
 170 696 l 1
 500 366 l 1
 830 696 l 1
 891 635 l 1
EndSplineSet
Colour: ff
EndChar
StartChar: uF02E0
Encoding: 983776 983776 239
Width: 1000
Flags: MW
LayerCount: 2
Fore
SplineSet
952 284 m 0
 952 277 946 270 939 267 c 0
 934 265 926 262 916 259 c 0
 855 232 809 190 776 132 c 0
 763 110 751 77 738 30 c 0
 737 27 735 23 732 20 c 0
 728 16 716 15 700 15 c 0
 690 16 682 25 682 36 c 0
 682 38 684 45 687 56 c 0
 709 147 755 213 818 256 c 1
 76 256 l 2
 60 256 49 268 48 284 c 0
 49 300 60 312 76 312 c 2
 818 312 l 1
 775 340 739 383 711 442 c 0
 692 482 682 512 682 532 c 0
 682 542 690 551 700 554 c 0
 709 554 713 553 720 553 c 0
 728 552 735 546 738 538 c 0
 743 520 752 494 764 460 c 0
 797 391 846 343 914 313 c 0
 920 311 928 308 935 305 c 0
 945 301 952 293 952 284 c 0
EndSplineSet
Colour: ff
EndChar
StartChar: uF02E2
Encoding: 983778 983778 241
Width: 1000
Flags: MW
LayerCount: 2
Fore
SplineSet
741 452 m 0
 740 443 732 435 721 435 c 2
 717 436 l 2
 684 445 656 456 637 466 c 0
 585 494 556 522 528 567 c 1
 528 -137 l 2
 528 -152 516 -162 500 -163 c 0
 484 -162 472 -152 472 -137 c 2
 472 566 l 1
 443 520 415 494 363 466 c 0
 344 456 317 446 282 436 c 0
 282 436 283 436 280 435 c 0
 268 435 260 444 259 454 c 0
 259 462 259 466 259 474 c 0
 259 481 264 488 271 491 c 0
 279 493 290 496 304 500 c 0
 346 514 381 537 412 571 c 0
 443 605 463 641 474 683 c 0
 475 690 477 702 481 717 c 0
 484 725 492 732 500 732 c 0
 509 732 517 726 519 717 c 0
 520 710 523 699 526 685 c 0
 537 642 557 604 588 571 c 0
 619 538 655 515 696 500 c 0
 703 498 714 495 728 491 c 0
 736 487 741 472 741 452 c 0
EndSplineSet
Colour: ff
EndChar
StartChar: uF02E3
Encoding: 983779 983779 242
Width: 1000
Flags: MW
LayerCount: 2
Fore
SplineSet
741 117 m 0
 741 97 737 81 729 77 c 0
 721 75 710 72 696 68 c 0
 654 54 619 31 588 -2 c 0
 557 -35 537 -73 526 -116 c 0
 525 -123 522 -134 519 -148 c 0
 517 -156 509 -163 500 -163 c 0
 492 -163 484 -157 481 -148 c 0
 480 -140 477 -130 474 -116 c 0
 463 -74 443 -37 412 -3 c 0
 381 31 345 54 304 68 c 0
 297 70 285 73 271 77 c 0
 264 80 259 88 259 95 c 0
 259 102 259 107 259 114 c 0
 260 124 268 132 278 133 c 2
 282 133 l 1
 317 123 344 113 363 103 c 0
 415 75 450 41 472 1 c 1
 472 706 l 2
 472 721 484 731 500 732 c 0
 516 731 528 721 528 706 c 2
 528 1 l 1
 551 41 585 75 637 103 c 0
 656 113 683 123 718 133 c 0
 720 133 720 133 722 133 c 0
 732 133 740 127 741 117 c 0
EndSplineSet
Colour: ff
EndChar
StartChar: uF02E6
Encoding: 983782 983782 244
Width: 1000
Flags: MW
LayerCount: 2
Fore
SplineSet
242 17 m 2
 242 58 l 2
 242 64 248 68 252 68 c 2
 474 68 l 2
 536 68 586 84 627 117 c 0
 665 148 686 186 693 231 c 1
 252 231 l 2
 246 231 242 237 242 241 c 2
 242 279 l 2
 242 285 248 289 252 289 c 2
 693 289 l 1
 686 335 665 373 627 403 c 0
 586 436 536 452 474 452 c 2
 252 452 l 2
 246 452 242 458 242 462 c 2
 242 503 l 2
 242 509 248 513 252 513 c 2
 478 513 l 2
 559 513 626 489 679 441 c 0
 732 393 758 332 758 260 c 0
 758 188 732 127 679 79 c 0
 626 31 559 7 478 7 c 2
 252 7 l 2
 246 7 242 13 242 17 c 2
EndSplineSet
Colour: ff
EndChar
StartChar: uF02E8
Encoding: 983784 983784 246
Width: 1000
Flags: MW
LayerCount: 2
Fore
SplineSet
202 -2 m 2
 202 4 208 8 212 8 c 2
 778 8 l 2
 784 8 788 2 788 -2 c 2
 788 -43 l 2
 788 -49 782 -53 778 -53 c 2
 212 -53 l 2
 206 -53 202 -47 202 -43 c 2
 202 -2 l 2
202 140 m 2
 202 182 l 2
 202 188 208 192 212 192 c 2
 512 192 l 2
 577 192 630 210 671 246 c 0
 712 282 732 328 732 383 c 0
 732 438 712 484 671 520 c 0
 630 556 577 574 512 574 c 2
 212 574 l 2
 206 574 202 580 202 584 c 2
 202 627 l 2
 202 633 208 637 212 637 c 2
 518 637 l 2
 599 637 666 612 719 564 c 0
 772 516 798 455 798 383 c 0
 798 311 772 250 719 202 c 0
 666 154 599 130 518 130 c 2
 212 130 l 2
 206 130 202 136 202 140 c 2
EndSplineSet
Colour: ff
EndChar
StartChar: uF02E9
Encoding: 983785 983785 247
Width: 1000
Flags: MW
LayerCount: 2
Fore
SplineSet
202 260 m 0
 202 332 228 393 281 441 c 0
 334 489 401 513 482 513 c 2
 788 513 l 2
 794 513 798 507 798 503 c 2
 798 461 l 2
 798 455 792 451 788 451 c 2
 488 451 l 2
 423 451 370 433 329 397 c 0
 288 361 268 315 268 260 c 0
 268 205 288 159 329 123 c 0
 370 87 423 69 488 69 c 2
 788 69 l 2
 794 69 798 63 798 59 c 2
 798 17 l 2
 798 11 792 7 788 7 c 2
 482 7 l 2
 401 7 334 31 281 79 c 0
 228 127 202 188 202 260 c 0
EndSplineSet
Colour: ff
EndChar
StartChar: uF02EA
Encoding: 983786 983786 248
Width: 1000
Flags: MW
LayerCount: 2
Fore
SplineSet
202 17 m 2
 202 59 l 2
 202 65 208 69 212 69 c 2
 512 69 l 2
 577 69 630 87 671 123 c 0
 712 159 732 205 732 260 c 0
 732 315 712 361 671 397 c 0
 630 433 577 451 512 451 c 2
 212 451 l 2
 206 451 202 457 202 461 c 2
 202 503 l 2
 202 509 208 513 212 513 c 2
 518 513 l 2
 599 513 666 489 719 441 c 0
 772 393 798 332 798 260 c 0
 798 188 772 127 719 79 c 0
 666 31 599 7 518 7 c 2
 212 7 l 2
 206 7 202 13 202 17 c 2
EndSplineSet
Colour: ff
EndChar
StartChar: uF02EB
Encoding: 983787 983787 249
Width: 1000
Flags: MW
LayerCount: 2
Fore
SplineSet
246 234 m 2
 246 560 l 2
 246 566 252 570 256 570 c 2
 300 570 l 2
 306 570 310 564 310 560 c 2
 310 235 l 2
 310 173 328 124 363 87 c 0
 386 63 412 47 444 39 c 0
 461 34 480 32 500 32 c 0
 530 32 556 37 580 47 c 0
 601 56 620 70 636 87 c 0
 671 124 688 173 688 235 c 2
 688 560 l 2
 688 566 694 570 698 570 c 2
 744 570 l 2
 750 570 754 564 754 560 c 2
 754 234 l 2
 754 156 730 92 683 43 c 0
 659 18 630 -1 598 -13 c 4
 568 -24 536 -30 500 -30 c 0
 474 -30 449 -27 426 -21 c 0
 384 -10 347 11 317 43 c 0
 270 92 246 156 246 234 c 2
EndSplineSet
Colour: ff
EndChar
StartChar: uF02ED
Encoding: 983789 983789 251
Width: 1000
Flags: MW
LayerCount: 2
Fore
SplineSet
785 -2 m 0
 784 -18 773 -29 757 -30 c 0
 746 -30 737 -23 732 -13 c 2
 500 521 l 1
 268 -13 l 2
 263 -23 254 -30 243 -30 c 0
 227 -29 216 -18 215 -2 c 0
 215 2 216 6 217 9 c 2
 474 589 l 2
 479 599 488 606 500 606 c 0
 512 606 521 599 526 589 c 2
 783 9 l 2
 784 6 785 2 785 -2 c 0
EndSplineSet
Colour: ff
EndChar
StartChar: uF02EE
Encoding: 983790 983790 252
Width: 1000
Flags: MW
LayerCount: 2
Fore
SplineSet
254 557 m 2
 252 562 255 568 261 570 c 0
 262 570 264 570 264 570 c 2
 316 570 l 2
 320 570 324 566 325 563 c 2
 501 58 l 1
 677 563 l 2
 678 567 682 570 686 570 c 2
 736 570 l 2
 742 570 746 565 746 559 c 0
 746 558 746 557 746 557 c 2
 543 -3 l 2
 541 -7 537 -10 534 -10 c 2
 496 -10 l 5
 466 -10 l 2
 462 -10 458 -6 457 -3 c 2
 254 557 l 2
EndSplineSet
Colour: ff
EndChar
StartChar: uF02F0
Encoding: 983792 983792 241
Width: 1000
VWidth: 940
Flags: MW
LayerCount: 2
Fore
SplineSet
153 227 m 2
 153 260 l 2
 153 266 159 270 163 270 c 2
 771 270 l 1
 790 287 l 1
 811 305 l 1
 791 323 l 1
 771 340 l 1
 163 340 l 2
 157 340 153 346 153 350 c 2
 153 383 l 2
 153 389 159 393 163 393 c 2
 712 393 l 1
 568 520 l 2
 564 524 564 530 567 534 c 2
 589 559 l 2
 593 564 601 562 604 559 c 2
 828 362 l 1
 884 312 l 2
 889 308 888 302 884 298 c 2
 828 248 l 5
 604 51 l 2
 599 47 592 48 589 51 c 2
 567 76 l 2
 563 80 564 87 568 90 c 2
 712 217 l 1
 163 217 l 2
 157 217 153 223 153 227 c 2
EndSplineSet
Colour: ff
EndChar
StartChar: uF02F2
Encoding: 983794 983794 255
Width: 1000
VWidth: 940
Flags: MW
LayerCount: 2
Fore
SplineSet
340 449 m 1
 658 449 l 1
 740 673 l 2
 741 677 746 680 750 680 c 2
 804 680 l 2
 810 680 813 675 813 669 c 0
 813 668 813 666 813 666 c 2
 539 -64 l 2
 538 -68 534 -70 530 -70 c 2
 470 -70 l 2
 466 -70 461 -68 460 -64 c 2
 187 666 l 2
 185 671 188 678 194 680 c 0
 195 680 196 680 196 680 c 2
 248 680 l 2
 252 680 257 677 258 673 c 2
 340 449 l 1
363 387 m 1
 500 11 l 1
 636 387 l 1
 363 387 l 1
EndSplineSet
Colour: ff
EndChar
StartChar: uF02F3
Encoding: 983795 983795 256
Width: 1000
VWidth: 940
Flags: MW
LayerCount: 2
Fore
SplineSet
284 -60 m 2
 284 -17 l 2
 284 -11 290 -7 294 -7 c 2
 646 -7 l 1
 646 305 l 1
 314 305 l 2
 308 305 304 311 304 315 c 2
 304 357 l 2
 304 363 310 367 314 367 c 2
 646 367 l 1
 646 617 l 1
 294 617 l 2
 288 617 284 623 284 627 c 2
 284 670 l 2
 284 676 290 680 294 680 c 2
 706 680 l 2
 712 680 716 674 716 670 c 2
 716 -60 l 2
 716 -66 710 -70 706 -70 c 2
 294 -70 l 2
 288 -70 284 -64 284 -60 c 2
EndSplineSet
Colour: ff
EndChar
StartChar: uF02F6
Encoding: 983798 983798 241
Width: 1000
Flags: MW
LayerCount: 2
Fore
SplineSet
500 770 m 0
 350 770 216 727 96 642 c 0
 91 639 84 640 81 645 c 0
 80 647 80 648 80 650 c 2
 80 695 l 2
 80 698 82 701 84 703 c 0
 206 790 345 833 500 833 c 0
 655 833 794 790 916 703 c 0
 919 701 920 698 920 695 c 2
 920 650 l 2
 920 644 915 640 909 640 c 0
 907 640 905 641 904 642 c 0
 784 727 650 770 500 770 c 0
EndSplineSet
Colour: ff
EndChar
StartChar: uF02F7
Encoding: 983799 983799 260
Width: 1000
Flags: MW
LayerCount: 2
Fore
SplineSet
226 250 m 0
 226 328 247 388 289 430 c 128
 331 472 389 493 466 493 c 0
 525 493 576 477 620 446 c 1
 622 447 l 1
 618 509 605 554 580 581 c 128
 555 608 519 622 472 622 c 0
 448 622 421 617 392 609 c 0
 360 600 324 586 286 566 c 1
 250 673 l 1
 283 692 321 707 366 720 c 128
 411 733 447 740 478 740 c 0
 577 740 651 708 700 643 c 128
 749 578 774 475 774 333 c 0
 774 202 744 109 684 53 c 0
 639 11 578 -10 500 -10 c 0
 418 -10 352 13 302 60 c 128
 252 107 226 171 226 250 c 0
500 97 m 0
 543 97 576 110 600 136 c 128
 624 162 636 200 636 250 c 0
 636 295 623 330 598 356 c 128
 573 382 541 395 500 395 c 0
 457 395 424 382 400 356 c 128
 376 330 364 295 364 250 c 0
 364 199 375 162 399 136 c 128
 423 110 457 97 500 97 c 0
EndSplineSet
EndChar
StartChar: uF02FB
Encoding: 983803 983803 262
Width: 1000
Flags: MW
LayerCount: 2
Fore
SplineSet
452 265 m 2
 452 294 l 1
 452 315 l 2
 452 318 454 321 457 323 c 2
 890 608 l 2
 895 611 901 610 904 605 c 0
 905 604 905 601 905 600 c 2
 905 552 l 2
 905 549 903 546 900 544 c 2
 512 290 l 1
 900 36 l 2
 903 34 905 31 905 28 c 2
 905 -20 l 2
 905 -26 900 -30 894 -30 c 0
 892 -30 891 -29 890 -28 c 2
 457 257 l 2
 454 259 452 262 452 265 c 2
95 265 m 2
 95 293 l 5
 95 315 l 2
 95 318 97 321 100 323 c 2
 533 608 l 2
 538 611 544 610 547 605 c 0
 548 604 548 601 548 600 c 2
 548 552 l 2
 548 549 546 546 543 544 c 2
 156 290 l 1
 543 36 l 2
 546 34 548 31 548 28 c 2
 548 -20 l 2
 548 -26 543 -30 537 -30 c 0
 535 -30 534 -29 533 -28 c 2
 100 257 l 2
 97 259 95 262 95 265 c 2
EndSplineSet
Colour: ff
EndChar
StartChar: uF02FC
Encoding: 983804 983804 263
Width: 1000
Flags: MW
LayerCount: 2
Fore
SplineSet
965 284 m 0
 965 273 957 264 946 259 c 2
 376 -10 l 2
 373 -11 371 -12 367 -13 c 0
 350 -12 339 -1 338 15 c 0
 338 26 345 35 354 40 c 2
 882 284 l 1
 354 528 l 2
 344 533 338 542 338 553 c 0
 339 569 350 580 366 581 c 0
 369 581 373 580 376 579 c 2
 946 309 l 2
 957 304 965 295 965 284 c 0
662 284 m 0
 662 274 654 264 644 259 c 2
 73 -10 l 2
 70 -11 68 -12 64 -13 c 0
 47 -12 36 -1 35 15 c 0
 35 26 42 36 52 40 c 2
 579 284 l 1
 52 528 l 2
 42 532 35 542 35 553 c 0
 36 569 47 580 63 581 c 0
 66 581 70 580 73 579 c 2
 644 309 l 2
 654 304 662 294 662 284 c 0
EndSplineSet
Colour: ff
EndChar
StartChar: uF02FD
Encoding: 983805 983805 264
Width: 1000
Flags: MW
LayerCount: 2
Fore
SplineSet
46 440 m 1
 268 440 l 1
 390 -3 l 1
 392 -3 l 1
 828 810 l 1
 954 810 l 1
 478 -80 l 1
 298 -80 l 1
 156 347 l 1
 46 347 l 1
 46 440 l 1
EndSplineSet
EndChar
StartChar: uF02FE
Encoding: 983806 983806 265
Width: 1000
Flags: MW
LayerCount: 2
Fore
SplineSet
114 260 m 0
 114 327 132 380 170 420 c 128
 208 460 260 480 324 480 c 0
 355 480 383 476 410 468 c 1
 398 362 l 1
 375 369 350 373 326 373 c 0
 293 373 269 363 250 344 c 128
 231 325 222 298 222 263 c 0
 222 229 230 202 248 182 c 128
 266 162 290 153 320 153 c 0
 396 153 428 221 450 287 c 0
 485 392 543 480 684 480 c 0
 745 480 793 460 830 420 c 128
 867 380 886 326 886 260 c 0
 886 193 868 140 830 100 c 128
 792 60 740 40 676 40 c 0
 646 40 617 44 590 52 c 1
 602 158 l 1
 625 151 650 147 674 147 c 0
 707 147 731 157 750 176 c 128
 769 195 778 222 778 257 c 0
 778 291 770 318 752 338 c 128
 734 358 710 367 680 367 c 0
 604 367 572 299 550 233 c 0
 515 128 457 40 316 40 c 0
 255 40 207 60 170 100 c 128
 133 140 114 194 114 260 c 0
EndSplineSet
EndChar
StartChar: uF02FF
Encoding: 983807 983807 266
Width: 1000
Flags: MW
LayerCount: 2
Fore
SplineSet
188 260 m 128
 188 325 208 378 246 419 c 128
 284 460 333 480 392 480 c 0
 470 480 532 439 580 358 c 1
 582 358 l 1
 625 439 683 480 756 480 c 0
 768 480 787 478 812 474 c 1
 812 361 l 1
 793 365 776 367 762 367 c 0
 698 367 652 334 626 267 c 1
 653 191 700 153 766 153 c 0
 778 153 793 155 812 160 c 1
 812 46 l 1
 787 42 769 40 758 40 c 0
 680 40 618 81 570 162 c 1
 568 162 l 1
 526 81 467 40 392 40 c 0
 333 40 284 60 246 101 c 128
 208 142 188 195 188 260 c 128
524 253 m 1
 511 289 494 317 472 337 c 128
 450 357 425 367 398 367 c 0
 367 367 342 357 324 338 c 128
 306 319 296 293 296 260 c 128
 296 227 306 201 324 182 c 128
 342 163 367 153 398 153 c 0
 433 153 463 165 486 190 c 0
 501 206 514 227 524 253 c 1
EndSplineSet
EndChar
StartChar: uF0300
Encoding: 983808 983808 267
Width: 1000
Flags: MW
LayerCount: 2
Fore
SplineSet
816 488 m 0
 816 470 809 455 796 442 c 0
 783 429 768 422 750 422 c 0
 732 422 717 429 704 442 c 0
 691 455 684 470 684 488 c 0
 684 506 690 522 703 535 c 0
 716 548 732 554 750 554 c 0
 768 554 783 547 796 534 c 0
 809 521 816 506 816 488 c 0
316 488 m 0
 316 470 309 455 296 442 c 0
 283 429 268 422 250 422 c 0
 232 422 217 429 204 442 c 0
 191 455 184 470 184 488 c 0
 184 506 190 522 203 535 c 0
 216 548 232 554 250 554 c 0
 268 554 283 547 296 534 c 0
 309 521 316 506 316 488 c 0
566 55 m 4
 566 37 560 21 547 8 c 4
 534 -5 518 -11 500 -11 c 260
 482 -11 466 -5 453 8 c 4
 440 21 434 37 434 55 c 260
 434 73 440 89 453 102 c 4
 466 115 482 121 500 121 c 4
 518 121 533 114 546 101 c 4
 559 88 566 73 566 55 c 4
EndSplineSet
Colour: ff
EndChar
StartChar: uF0301
Encoding: 983809 983809 268
Width: 1000
Flags: MW
LayerCount: 2
Fore
SplineSet
406 -35 m 2
 446 562 l 2
 449 618 469 662 504 693 c 128
 539 724 587 740 648 740 c 0
 688 740 728 735 768 725 c 1
 752 609 l 1
 723 616 692 620 661 620 c 0
 618 620 596 595 593 545 c 2
 553 -52 l 2
 550 -108 530 -152 495 -183 c 128
 460 -214 412 -230 351 -230 c 0
 312 -230 272 -225 232 -215 c 1
 248 -99 l 1
 277 -106 307 -110 338 -110 c 0
 379 -110 402 -85 406 -35 c 2
EndSplineSet
EndChar
StartChar: uF0302
Encoding: 983810 983810 269
Width: 1000
Flags: MW
LayerCount: 2
Fore
SplineSet
571 -35 m 2
 611 562 l 2
 614 618 634 662 669 693 c 128
 704 724 752 740 813 740 c 0
 853 740 893 735 933 725 c 1
 917 609 l 1
 888 616 857 620 826 620 c 0
 783 620 761 595 758 545 c 2
 718 -52 l 2
 715 -108 695 -152 660 -183 c 128
 625 -214 577 -230 516 -230 c 0
 477 -230 437 -225 397 -215 c 1
 413 -99 l 1
 442 -106 472 -110 503 -110 c 0
 544 -110 567 -85 571 -35 c 2
241 -35 m 2
 281 562 l 2
 284 618 304 662 339 693 c 128
 374 724 422 740 483 740 c 0
 523 740 563 735 603 725 c 1
 587 609 l 1
 558 616 527 620 496 620 c 0
 453 620 431 595 428 545 c 2
 388 -52 l 2
 385 -108 365 -152 330 -183 c 128
 295 -214 247 -230 186 -230 c 0
 147 -230 107 -225 67 -215 c 1
 83 -99 l 1
 112 -106 142 -110 173 -110 c 0
 214 -110 237 -85 241 -35 c 2
EndSplineSet
EndChar
StartChar: uF0305
Encoding: 983813 983813 240
Width: 1000
Flags: MW
LayerCount: 2
Fore
SplineSet
240 45 m 1
 240 172 l 1
 357 201 l 1
 357 357 l 1
 240 328 l 1
 240 455 l 1
 357 484 l 1
 357 650 l 1
 418 650 l 1
 418 500 l 1
 582 540 l 1
 582 690 l 1
 643 690 l 1
 643 556 l 1
 760 585 l 1
 760 458 l 1
 643 429 l 1
 643 273 l 1
 760 302 l 1
 760 175 l 1
 643 146 l 1
 643 -40 l 1
 582 -40 l 1
 582 130 l 1
 418 90 l 1
 418 -80 l 1
 357 -80 l 1
 357 74 l 1
 240 45 l 1
418 217 m 1
 582 258 l 1
 582 413 l 1
 418 372 l 1
 418 217 l 1
EndSplineSet
Colour: ff
EndChar
StartChar: uF0306
Encoding: 983814 983814 271
Width: 1000
Flags: MW
LayerCount: 2
Fore
SplineSet
670 214 m 0
 670 96 598 -20 456 -131 c 0
 399 -175 372 -199 355 -199 c 0
 336 -198 322 -188 321 -172 c 2
 321 766 l 1
 379 766 l 1
 379 332 l 1
 416 367 442 387 504 386 c 0
 551 386 591 368 622 335 c 0
 653 302 670 261 670 214 c 0
566 214 m 0
 566 246 561 271 550 292 c 0
 537 319 519 331 491 331 c 0
 455 331 432 323 409 307 c 0
 395 298 392 289 385 279 c 0
 380 271 379 259 379 241 c 2
 379 -138 l 5
 484 -14 566 96 566 214 c 0
EndSplineSet
Colour: ff
EndChar
StartChar: uF0307
Encoding: 983815 983815 272
Width: 1000
Flags: MW
LayerCount: 2
Fore
SplineSet
784 260 m 0
 784 190 764 104 699 1 c 1
 659 4 l 1
 700 77 708 113 712 124 c 0
 729 168 737 207 737 240 c 0
 737 297 713 347 673 400 c 0
 653 426 614 479 540 484 c 1
 544 -27 l 2
 544 -76 510 -119 466 -153 c 0
 425 -183 377 -199 326 -199 c 0
 296 -199 270 -192 250 -178 c 0
 227 -162 216 -136 216 -105 c 0
 216 -59 239 -17 283 17 c 0
 323 49 369 66 415 67 c 0
 455 67 472 58 487 43 c 1
 483 766 l 1
 540 766 l 1
 548 693 564 641 590 603 c 0
 601 588 619 564 647 532 c 0
 693 481 726 439 743 410 c 0
 770 363 784 312 784 260 c 0
EndSplineSet
Colour: ff
EndChar
StartChar: uF030B
Encoding: 983819 983819 273
Width: 1000
Flags: MW
LayerCount: 2
Fore
SplineSet
980 284 m 256
 980 151 933 37 840 -56 c 0
 747 -149 633 -196 500 -196 c 256
 367 -196 253 -149 160 -56 c 0
 67 37 20 151 20 284 c 256
 20 417 67 530 160 624 c 0
 253 718 367 765 500 765 c 256
 633 765 747 718 840 624 c 0
 933 530 980 417 980 284 c 256
915 284 m 256
 915 399 875 497 794 578 c 0
 713 659 615 699 500 699 c 0
 385 699 287 659 206 578 c 0
 125 497 85 399 85 284 c 256
 85 169 125 71 206 -9 c 0
 287 -89 385 -130 500 -130 c 0
 615 -130 713 -89 794 -9 c 0
 875 71 915 169 915 284 c 256
EndSplineSet
Colour: ff
EndChar
StartChar: uF1DC8
Encoding: 990664 990664 251
Width: 1000
Flags: MW
LayerCount: 2
Fore
SplineSet
564 106 m 1
 595 119 619 139 638 167 c 128
 657 195 666 226 666 260 c 0
 666 290 659 318 644 344 c 128
 629 370 609 389 584 404 c 1
 564 106 l 1
592 518 m 1
 646 499 689 465 723 418 c 128
 757 371 774 319 774 260 c 0
 774 195 753 137 712 87 c 128
 671 37 619 5 556 -8 c 1
 554 -52 l 2
 551 -108 531 -152 496 -183 c 128
 461 -214 413 -230 352 -230 c 0
 313 -230 272 -225 232 -215 c 1
 248 -99 l 1
 277 -106 307 -110 338 -110 c 0
 379 -110 402 -85 406 -35 c 2
 408 2 l 1
 354 21 311 55 277 102 c 128
 243 149 226 201 226 260 c 0
 226 325 247 383 288 433 c 128
 329 483 381 515 444 528 c 1
 446 562 l 2
 449 618 469 662 504 693 c 128
 539 724 587 740 648 740 c 0
 687 740 728 735 768 725 c 1
 752 609 l 1
 723 616 693 620 662 620 c 0
 621 620 598 595 594 545 c 2
 592 518 l 1
436 414 m 1
 405 401 381 382 362 354 c 128
 343 326 334 295 334 260 c 0
 334 229 341 201 356 176 c 128
 371 151 391 131 416 116 c 1
 436 414 l 1
EndSplineSet
EndChar
StartChar: uF1DC9
Encoding: 990665 990665 276
Width: 1000
Flags: MW
LayerCount: 2
Fore
SplineSet
894 730 m 1
 894 613 l 1
 264 613 l 1
 510 274 l 1
 264 -103 l 1
 894 -103 l 1
 894 -220 l 1
 106 -220 l 1
 106 -103 l 1
 352 273 l 1
 106 613 l 1
 106 730 l 1
 894 730 l 1
EndSplineSet
EndChar
StartChar: uF1DCA
Encoding: 990666 990666 277
Width: 1000
Flags: MW
LayerCount: 2
Fore
SplineSet
46 440 m 1
 268 440 l 1
 390 -3 l 1
 392 -3 l 1
 828 810 l 1
 954 810 l 1
 478 -80 l 1
 298 -80 l 1
 156 347 l 1
 46 347 l 1
 46 440 l 1
EndSplineSet
EndChar
StartChar: uF1DCB
Encoding: 990667 990667 249
Width: 1000
Flags: MW
LayerCount: 2
Fore
SplineSet
134 -48 m 0
 134 -20 155 -12 177 -12 c 0
 181 -12 187 -12 187 -12 c 1
 464 -12 l 1
 464 540 l 2
 464 564 473 584 500 584 c 0
 528 584 536 556 536 539 c 2
 536 -12 l 1
 822 -12 l 2
 846 -12 866 -21 866 -48 c 0
 866 -76 839 -84 821 -84 c 2
 178 -84 l 2
 155 -84 134 -74 134 -48 c 0
EndSplineSet
EndChar
StartChar: uF1DCC
Encoding: 990668 990668 250
Width: 1000
Flags: MW
LayerCount: 2
Fore
SplineSet
184 -49 m 3
 184 -34 192 -22 197 -14 c 2
 528 559 l 2
 537 574 549 584 563 584 c 0
 583 584 598 566 598 550 c 0
 598 540 594 529 590 522 c 2
 282 -12 l 1
 772 -12 l 2
 796 -12 816 -21 816 -48 c 0
 816 -76 789 -84 771 -84 c 10
 220 -84 l 18
 201 -84 184 -69 184 -49 c 3
EndSplineSet
EndChar
StartChar: uF1DCF
Encoding: 990671 990671 256
Width: 1000
Flags: MW
LayerCount: 2
Fore
SplineSet
500 585 m 0
 691 585 846 429 846 238 c 2
 846 -39 l 2
 846 -80 819 -84 810 -84 c 0
 796 -84 774 -76 774 -36 c 2
 774 238 l 2
 774 389 651 511 500 511 c 0
 349 511 226 389 226 238 c 2
 226 -39 l 2
 226 -80 199 -84 190 -84 c 0
 176 -84 154 -76 154 -36 c 2
 154 238 l 2
 154 429 309 585 500 585 c 0
EndSplineSet
EndChar
StartChar: uF1DD0
Encoding: 990672 990672 250
Width: 1000
Flags: MW
LayerCount: 2
Fore
SplineSet
190 585 m 0
 199 585 226 581 226 540 c 2
 226 263 l 2
 226 112 349 -10 500 -10 c 0
 651 -10 774 112 774 263 c 2
 774 537 l 2
 774 577 796 585 810 585 c 0
 819 585 846 581 846 540 c 2
 846 263 l 2
 846 72 691 -84 500 -84 c 0
 309 -84 154 72 154 263 c 2
 154 537 l 2
 154 577 176 585 190 585 c 0
EndSplineSet
EndChar
StartChar: uF1EEB
Encoding: 990955 990955 400
Width: 1000
Flags: W
LayerCount: 2
Fore
SplineSet
30 210 m 1
 970 210 l 1
 970 -107 l 1
 909 -44 838 5 756 40 c 128
 674 75 589 93 500 93 c 128
 411 93 326 75 244 40 c 128
 162 5 91 -44 30 -107 c 1
 30 210 l 1
EndSplineSet
Colour: ff
EndChar
StartChar: uF1EED
Encoding: 990957 990957 396
Width: 1000
Flags: W
LayerCount: 2
Fore
SplineSet
582 574 m 0
 595 574 603 569 608 563 c 0
 619 550 618 530 619 529 c 1
 619 71 l 1
 617 59 615 46 608 37 c 0
 603 30 595 26 582 26 c 0
 568 26 560 31 555 38 c 0
 545 51 547 69 546 70 c 1
 546 531 l 2
 547 542 549 555 556 564 c 0
 561 570 569 574 582 574 c 0
345 574 m 0
 359 574 367 569 372 562 c 0
 382 549 380 531 381 531 c 1
 381 521 l 1
 381 70 l 2
 380 60 379 49 374 40 c 0
 369 32 360 26 345 26 c 0
 330 26 321 33 316 41 c 0
 308 54 310 71 309 71 c 1
 309 530 l 2
 310 541 312 554 319 563 c 0
 324 570 332 574 345 574 c 0
EndSplineSet
EndChar
StartChar: uF1F48
Encoding: 991048 991048 258
Width: 1000
Flags: MW
LayerCount: 2
Fore
SplineSet
225 361 m 0
 225 376 234 403 274 403 c 2
 725 403 l 2
 752 403 775 393 775 354 c 2
 775 105 l 2
 775 59 747 53 733 53 c 0
 713 53 695 67 692 91 c 0
 691 100 691 110 691 120 c 2
 691 320 l 1
 288 320 l 2
 284 320 280 319 275 319 c 0
 230 319 225 351 225 361 c 0
EndSplineSet
EndChar
StartChar: uF1F49
Encoding: 991049 991049 285
Width: 1000
Flags: MW
LayerCount: 2
Fore
SplineSet
795 -85 m 1
 201 284 l 1
 795 653 l 1
 795 -85 l 1
738 17 m 1
 738 551 l 1
 310 284 l 1
 738 17 l 1
EndSplineSet
Colour: ff
EndChar
StartChar: uF1F4B
Encoding: 991051 991051 287
Width: 1000
Flags: MW
LayerCount: 2
Fore
SplineSet
784 191 m 1
 782 195 782 195 784 184 c 1
 782 186 782 186 784 178 c 0
 784 174 779 167 773 163 c 0
 701 122 648 79 612 35 c 0
 575 -9 549 -57 531 -109 c 0
 529 -118 525 -132 519 -149 c 0
 516 -157 508 -163 500 -163 c 0
 492 -163 484 -156 481 -148 c 0
 478 -128 478 -128 469 -109 c 0
 451 -57 425 -9 388 35 c 0
 352 79 299 122 227 163 c 0
 222 167 218 172 217 178 c 0
 219 186 219 186 217 184 c 1
 217 187 218 187 217 188 c 0
 217 205 224 216 236 216 c 2
 371 216 l 2
 377 215 376 216 375 222 c 2
 375 704 l 2
 375 720 386 731 402 732 c 2
 599 732 l 2
 614 731 625 720 625 704 c 2
 625 222 l 2
 624 216 624 216 630 216 c 2
 764 216 l 2
 776 216 784 205 784 191 c 1
685 166 m 1
 596 160 l 2
 580 161 569 172 569 188 c 2
 569 671 l 2
 570 677 570 677 565 677 c 2
 435 677 l 2
 430 678 431 677 432 671 c 2
 432 188 l 2
 431 172 420 161 404 160 c 2
 316 166 l 1
 346 151 372 130 389 113 c 0
 442 61 481 3 500 -57 c 1
 519 4 558 62 611 113 c 0
 629 130 655 151 685 166 c 1
EndSplineSet
Colour: ff
EndChar
StartChar: uF1F4E
Encoding: 991054 991054 290
Width: 1000
Flags: MW
LayerCount: 2
Fore
SplineSet
952 284 m 0
 952 276 945 268 937 265 c 1
 929 270 929 270 898 253 c 1
 846 235 798 210 754 173 c 0
 710 137 667 83 625 11 c 0
 621 6 616 2 611 1 c 0
 601 9 601 9 604 1 c 1
 601 1 602 2 601 1 c 0
 584 1 573 8 572 20 c 2
 572 155 l 2
 573 161 573 160 567 159 c 2
 76 159 l 2
 60 159 49 170 48 186 c 2
 48 383 l 2
 49 398 60 409 76 409 c 2
 567 409 l 2
 573 408 573 408 572 414 c 2
 572 548 l 2
 573 560 584 568 598 568 c 0
 600 568 600 568 604 568 c 0
 608 568 608 568 611 568 c 0
 616 567 621 563 625 557 c 0
 666 485 709 431 754 395 c 0
 798 358 846 333 898 315 c 0
 907 313 921 309 938 303 c 0
 946 300 952 292 952 284 c 0
846 284 m 1
 785 303 727 342 675 395 c 0
 658 412 637 439 622 469 c 1
 628 380 l 2
 627 364 616 353 600 353 c 2
 108 353 l 2
 102 354 102 354 103 349 c 2
 103 219 l 2
 102 214 102 215 108 216 c 2
 600 216 l 2
 616 215 627 204 628 188 c 2
 622 100 l 1
 637 130 658 156 675 173 c 0
 727 226 785 265 846 284 c 1
EndSplineSet
Colour: ff
EndChar
StartChar: uF1F51
Encoding: 991057 991057 292
Width: 1000
Flags: MW
LayerCount: 2
Fore
SplineSet
840 519 m 0
 840 474 825 424 796 372 c 0
 778 340 748 298 708 247 c 0
 653 178 615 125 590 87 c 0
 550 24 523 -35 500 -98 c 1
 477 -35 450 24 409 87 c 0
 384 126 346 178 292 247 c 0
 252 298 222 340 204 372 c 0
 175 424 160 474 160 519 c 0
 160 566 176 605 208 636 c 0
 240 667 282 683 328 683 c 0
 370 683 411 667 445 635 c 0
 477 605 498 568 500 530 c 1
 501 567 523 605 555 635 c 0
 589 667 628 683 671 683 c 0
 717 683 760 667 792 636 c 0
 824 605 840 566 840 519 c 0
784 519 m 0
 784 551 774 575 752 596 c 0
 730 617 705 627 671 627 c 0
 622 627 587 602 561 550 c 0
 558 544 554 532 547 511 c 0
 538 484 521 468 500 467 c 0
 479 468 462 484 453 511 c 0
 450 520 446 533 439 551 c 0
 413 603 377 627 328 627 c 0
 295 627 270 617 248 596 c 0
 226 575 216 551 216 519 c 0
 216 481 229 440 256 393 c 0
 272 365 298 329 335 282 c 0
 419 176 477 90 500 31 c 1
 523 90 581 175 665 282 c 0
 702 329 728 365 744 393 c 0
 771 440 784 481 784 519 c 0
EndSplineSet
Colour: ff
EndChar
StartChar: uF1F52
Encoding: 991058 991058 260
Width: 1000
Flags: MW
LayerCount: 2
Fore
SplineSet
500 710 m 1
 597 627 671 558 722 502 c 0
 773 446 807 400 824 364 c 0
 841 328 850 290 850 250 c 0
 850 197 834 154 801 120 c 0
 768 86 726 70 675 70 c 0
 642 70 613 78 589 94 c 1
 587 94 l 1
 589 77 591 63 595 51 c 0
 601 33 608 20 618 14 c 0
 628 8 644 4 667 2 c 4
 682 1 700 0 720 0 c 1
 720 -60 l 1
 280 -60 l 1
 280 0 l 1
 301 0 319 0 334 2 c 0
 356 4 372 8 382 14 c 0
 392 20 399 33 405 52 c 0
 408 64 411 78 413 94 c 1
 411 94 l 1
 387 78 358 70 325 70 c 0
 274 70 232 86 199 120 c 0
 166 154 150 197 150 250 c 0
 150 290 159 328 176 364 c 0
 193 400 227 446 278 502 c 0
 329 558 403 627 500 710 c 1
552 -2 m 1
 552 0 l 1
 542 17 534 40 530 68 c 0
 526 96 523 143 520 210 c 1
 580 210 l 1
 589 157 621 130 675 130 c 0
 710 130 737 141 758 162 c 0
 779 183 790 213 790 250 c 0
 790 278 783 307 769 337 c 0
 760 357 747 378 732 399 c 0
 719 417 701 439 678 463 c 0
 635 509 576 565 500 631 c 1
 426 567 368 512 326 467 c 0
 302 441 282 418 268 399 c 0
 251 376 238 354 229 332 c 0
 217 303 210 276 210 250 c 0
 210 213 221 183 242 162 c 0
 263 141 290 130 325 130 c 0
 379 130 411 157 420 210 c 1
 480 210 l 1
 477 143 474 96 470 68 c 0
 466 40 458 17 448 0 c 1
 448 -2 l 1
 552 -2 l 1
EndSplineSet
Colour: ff
EndChar
StartChar: uF1F53
Encoding: 991059 991059 294
Width: 1000
Flags: MW
LayerCount: 2
Fore
SplineSet
788 293 m 1
 679 167 586 41 500 -97 c 1
 413 41 321 167 212 293 c 1
 321 419 413 545 500 683 c 1
 586 545 679 419 788 293 c 1
718 293 m 1
 637 385 560 487 500 591 c 1
 439 487 363 385 282 293 c 1
 363 201 439 99 500 -5 c 1
 560 99 637 201 718 293 c 1
EndSplineSet
Colour: ff
EndChar
StartChar: uF1F7A
Encoding: 991098 991098 360
Width: 1000
VWidth: 0
LayerCount: 2
Fore
SplineSet
869 327 m 0
 860 327 844 319 844 319 c 25
 815 372 l 25
 815 372 846 387 866 387 c 0
 930 387 957 328 957 263 c 0
 957 203 928 129 869 129 c 0
 864 129 860 130 860 130 c 1
 810 -9 690 -80 504 -80 c 24
 316 -80 195 -7 140 130 c 1
 140 130 137 129 132 129 c 0
 69 129 43 206 43 270 c 24
 43 331 73 387 133 387 c 0
 153 387 184 372 184 372 c 25
 155 319 l 25
 155 319 140 327 131 327 c 0
 111 327 103 289 103 268 c 24
 103 229 112 187 151 187 c 0
 172 187 182 183 190 166 c 16
 242 45 333 -20 504 -20 c 24
 671 -20 762 33 810 164 c 8
 816 179 831 185 845 187 c 16
 882 192 897 218 897 260 c 0
 897 284 893 327 869 327 c 0
704 164 m 1
 680 62 622 12 500 12 c 27
 377 12 319 62 295 164 c 1
 354 166 l 1
 371 99 419 72 500 72 c 27
 581 72 628 99 645 166 c 1
 704 164 l 1
542 400 m 1
 542 165 l 1
 458 165 l 1
 458 400 l 1
 150 400 l 1
 150 485 l 1
 850 485 l 1
 850 400 l 1
 542 400 l 1
700 292 m 27
 684 292 674 277 674 265 c 27
 674 250 681 239 700 239 c 27
 714 239 726 251 726 265 c 27
 726 275 714 292 700 292 c 27
214 265 m 27
 214 284 218 296 226 309 c 1
 198 332 l 1
 211 348 l 1
 238 325 l 1
 242 330 252 336 257 339 c 1
 242 374 l 1
 256 380 l 1
 271 346 l 1
 278 349 287 350 295 351 c 1
 295 390 l 1
 310 390 l 1
 310 351 l 1
 318 350 327 347 333 344 c 1
 348 380 l 1
 363 374 l 1
 347 337 l 1
 352 334 357 329 361 325 c 1
 388 348 l 1
 401 332 l 1
 373 309 l 1
 380 298 386 283 386 265 c 27
 386 216 349 179 300 179 c 27
 247 179 214 215 214 265 c 27
150 555 m 1
 150 640 l 1
 850 640 l 1
 850 555 l 1
 150 555 l 1
274 265 m 27
 274 251 281 239 300 239 c 27
 314 239 326 251 326 265 c 27
 326 275 314 292 300 292 c 27
 286 292 274 279 274 265 c 27
710 390 m 1
 710 351 l 1
 718 350 727 347 733 344 c 1
 748 380 l 1
 763 374 l 1
 747 337 l 1
 752 334 757 329 761 325 c 1
 788 348 l 1
 801 332 l 1
 773 309 l 1
 780 298 786 283 786 265 c 27
 786 216 749 179 700 179 c 27
 647 179 614 215 614 265 c 27
 614 284 618 296 626 309 c 1
 598 332 l 1
 611 348 l 1
 638 325 l 1
 642 329 652 337 657 339 c 1
 642 374 l 1
 656 380 l 1
 671 346 l 1
 678 348 687 350 695 351 c 1
 695 390 l 1
 710 390 l 1
EndSplineSet
Colour: 8080ff
EndChar
StartChar: uF1FE7
Encoding: 991207 991207 1
Width: 1000
Flags: MW
LayerCount: 2
Fore
SplineSet
0 180 m 1
 0 294 l 1
 364 294 l 2
 457 294 477 379 481 413 c 0
 482 426 479 446 500 446 c 0
 520 446 518 424 520 411 c 0
 525 361 554 306 608 296 c 0
 618 294 628 294 638 294 c 2
 1000 294 l 1
 1000 180 l 1
 635 180 l 2
 599 180 530 184 500 300 c 1
 469 176 388 180 365 180 c 2
 0 180 l 1
EndSplineSet
EndChar
StartChar: uF1FE8
Encoding: 991208 991208 2
Width: 1000
Flags: MW
LayerCount: 2
Fore
SplineSet
0 180 m 1
 0 294 l 1
 653 294 l 2
 689 294 750 290 782 192 c 0
 796 148 800 93 800 56 c 2
 800 52 l 2
 800 39 797 28 781 28 c 4
 758 28 766 56 758 87 c 0
 749 125 726 164 689 176 c 0
 676 180 663 180 650 180 c 2
 0 180 l 1
EndSplineSet
EndChar
StartChar: uF1FE9
Encoding: 991209 991209 3
Width: 1000
Flags: MW
LayerCount: 2
Fore
SplineSet
0 180 m 1
 0 294 l 1
 303 294 l 2
 339 294 400 290 432 192 c 0
 446 148 450 93 450 56 c 2
 450 52 l 2
 450 39 447 28 431 28 c 0
 408 28 416 56 408 87 c 0
 399 125 376 164 339 176 c 0
 326 180 313 180 300 180 c 2
 0 180 l 1
550 56 m 0
 550 59 550 63 550 66 c 0
 551 151 572 272 660 291 c 0
 672 294 685 294 697 294 c 2
 1000 294 l 1
 1000 180 l 1
 700 180 l 2
 688 180 676 180 664 177 c 0
 623 166 592 118 587 55 c 0
 586 45 587 28 569 28 c 0
 550 28 550 44 550 56 c 0
EndSplineSet
EndChar
StartChar: uF1FEA
Encoding: 991210 991210 4
Width: 1000
Flags: MW
LayerCount: 2
Fore
SplineSet
200 544 m 0
 200 557 201 571 218 571 c 0
 244 571 232 545 245 501 c 0
 268 425 319 420 342 420 c 2
 1000 420 l 1
 1000 306 l 5
 347 306 l 2
 319 306 259 304 224 392 c 0
 214 417 200 467 200 544 c 0
EndSplineSet
EndChar
StartChar: uF1FEB
Encoding: 991211 991211 5
Width: 1000
Flags: MW
LayerCount: 2
Fore
SplineSet
0 306 m 1
 0 420 l 1
 372 420 l 2
 399 420 470 414 500 299 c 1
 531 420 605 420 635 420 c 2
 1000 420 l 1
 1000 306 l 1
 638 306 l 2
 614 306 597 304 578 292 c 0
 543 269 524 228 520 188 c 0
 518 171 519 154 500 154 c 0
 476 154 485 180 475 217 c 0
 458 274 425 295 399 302 c 0
 387 305 377 306 371 306 c 2
 0 306 l 1
EndSplineSet
EndChar
StartChar: uF1FED
Encoding: 991213 991213 7
Width: 1000
Flags: MW
LayerCount: 2
Fore
SplineSet
0 306 m 1
 0 420 l 1
 300 420 l 2
 313 420 326 420 339 424 c 0
 374 435 398 471 408 513 c 0
 416 544 408 572 432 572 c 0
 450 572 450 555 450 548 c 2
 450 543 l 2
 450 452 430 327 338 308 c 0
 327 306 315 306 303 306 c 2
 0 306 l 1
550 544 m 0
 550 557 551 571 568 571 c 0
 594 571 582 545 595 501 c 0
 618 425 669 420 692 420 c 2
 1000 420 l 1
 1000 306 l 1
 697 306 l 2
 669 306 609 304 574 392 c 0
 564 417 550 467 550 544 c 0
EndSplineSet
EndChar
StartChar: uF1FEE
Encoding: 991214 991214 8
Width: 1000
Flags: MW
LayerCount: 2
Fore
SplineSet
380 -200 m 5
 380 450 l 2
 380 462 380 474 377 486 c 0
 366 527 318 558 255 563 c 0
 245 564 228 563 228 581 c 0
 228 600 244 600 256 600 c 0
 259 600 263 600 266 600 c 0
 351 599 472 578 491 490 c 0
 494 478 494 465 494 453 c 2
 494 -200 l 1
 380 -200 l 5
EndSplineSet
EndChar
StartChar: uF1FEF
Encoding: 991215 991215 9
Width: 1000
Flags: MW
LayerCount: 2
Fore
SplineSet
380 -200 m 1
 380 165 l 2
 380 201 384 270 500 300 c 1
 376 331 380 412 380 435 c 2
 380 800 l 1
 494 800 l 1
 494 436 l 2
 494 343 579 323 613 319 c 0
 626 318 646 321 646 300 c 0
 646 280 624 282 611 280 c 0
 561 275 506 246 496 192 c 0
 494 182 494 172 494 162 c 2
 494 -200 l 1
 380 -200 l 1
EndSplineSet
EndChar
StartChar: uF1FF0
Encoding: 991216 991216 10
Width: 1000
Flags: MW
LayerCount: 2
Fore
SplineSet
228 19 m 4
 228 42 256 34 287 42 c 0
 325 51 364 74 376 111 c 0
 380 124 380 137 380 150 c 2
 380 800 l 1
 494 800 l 1
 494 147 l 2
 494 111 490 50 392 18 c 0
 348 4 293 0 256 0 c 2
 252 0 l 2
 239 0 228 3 228 19 c 4
EndSplineSet
EndChar
StartChar: uF1FF1
Encoding: 991217 991217 11
Width: 1000
Flags: MW
LayerCount: 2
Fore
SplineSet
228 369 m 0
 228 392 256 384 287 392 c 0
 325 401 364 424 376 461 c 0
 380 474 380 487 380 500 c 2
 380 800 l 1
 494 800 l 1
 494 497 l 2
 494 461 490 400 392 368 c 0
 348 354 293 350 256 350 c 2
 252 350 l 2
 239 350 228 353 228 369 c 0
380 -200 m 1
 380 100 l 2
 380 112 380 124 377 136 c 0
 366 177 318 208 255 213 c 0
 245 214 228 213 228 231 c 0
 228 250 244 250 256 250 c 0
 259 250 263 250 266 250 c 0
 351 249 472 228 491 140 c 0
 494 128 494 115 494 103 c 2
 494 -200 l 1
 380 -200 l 1
EndSplineSet
EndChar
StartChar: uF1FF2
Encoding: 991218 991218 12
Width: 1000
Flags: MW
LayerCount: 2
Fore
SplineSet
506 -200 m 5
 506 453 l 2
 506 481 504 541 592 576 c 0
 617 586 667 600 744 600 c 0
 757 600 771 599 771 582 c 0
 771 556 745 568 701 555 c 0
 625 532 620 481 620 458 c 2
 620 -200 l 1
 506 -200 l 5
EndSplineSet
EndChar
StartChar: uF1FF3
Encoding: 991219 991219 13
Width: 1000
Flags: MW
LayerCount: 2
Fore
SplineSet
506 -200 m 1
 506 162 l 2
 506 186 504 203 492 222 c 0
 469 257 428 276 388 280 c 0
 371 282 354 281 354 300 c 0
 354 324 380 315 417 325 c 0
 474 342 495 375 502 401 c 0
 505 413 506 423 506 429 c 2
 506 800 l 1
 620 800 l 1
 620 428 l 2
 620 401 614 330 499 300 c 1
 620 269 620 195 620 165 c 2
 620 -200 l 1
 506 -200 l 1
EndSplineSet
EndChar
StartChar: uF1FF4
Encoding: 991220 991220 14
Width: 1000
Flags: MW
LayerCount: 2
Fore
SplineSet
506 147 m 2
 506 800 l 1
 620 800 l 1
 620 150 l 2
 620 137 620 124 624 111 c 0
 635 76 671 52 713 42 c 0
 744 34 772 42 772 18 c 0
 772 0 755 0 748 0 c 2
 743 0 l 2
 652 0 527 20 508 112 c 0
 506 123 506 135 506 147 c 2
EndSplineSet
EndChar
StartChar: uF1FF5
Encoding: 991221 991221 15
Width: 1000
Flags: MW
LayerCount: 2
Fore
SplineSet
506 497 m 2
 506 800 l 1
 620 800 l 1
 620 500 l 2
 620 487 620 474 624 461 c 0
 635 426 671 402 713 392 c 0
 744 384 772 392 772 368 c 0
 772 350 755 350 748 350 c 2
 743 350 l 2
 652 350 527 370 508 462 c 0
 506 473 506 485 506 497 c 2
506 -200 m 1
 506 103 l 2
 506 131 504 191 592 226 c 0
 617 236 667 250 744 250 c 0
 757 250 771 249 771 232 c 0
 771 206 745 218 701 205 c 0
 625 182 620 131 620 108 c 2
 620 -200 l 1
 506 -200 l 1
EndSplineSet
EndChar
StartChar: uF1FF8
Encoding: 991224 991224 147
Width: 1000
Flags: MW
LayerCount: 2
Fore
SplineSet
114 -131 m 0
 114 -124 118 -113 132 -97 c 2
 830 721 l 2
 840 732 854 748 868 748 c 0
 877 748 885 740 885 731 c 0
 885 722 876 712 871 706 c 2
 171 -121 l 2
 165 -129 146 -149 131 -149 c 0
 122 -149 114 -140 114 -131 c 0
76 625 m 1
 76 698 l 1
 205 699 257 740 291 773 c 1
 325 773 l 1
 325 420 l 1
 412 420 l 1
 412 347 l 1
 92 347 l 1
 92 420 l 1
 187 420 l 1
 187 639 l 1
 154 631 126 625 76 625 c 1
595 220 m 1
 651 254 701 273 776 273 c 0
 897 273 982 209 982 115 c 0
 982 35 885 34 813 7 c 0
 789 -2 789 -3 696 -46 c 1
 830 -46 l 1
 852 -45 l 1
 982 -45 l 1
 982 -153 l 1
 604 -153 l 1
 604 -47 l 1
 703 6 l 2
 774 37 841 54 841 112 c 0
 841 147 809 172 761 172 c 0
 702 172 672 140 661 129 c 1
 595 220 l 1
EndSplineSet
EndChar
StartChar: uF1FF9
Encoding: 991225 991225 148
Width: 1000
Flags: MW
LayerCount: 2
Fore
SplineSet
114 -131 m 0
 114 -124 118 -113 132 -97 c 2
 830 721 l 2
 840 732 854 748 868 748 c 0
 877 748 885 740 885 731 c 0
 885 722 876 712 871 706 c 2
 171 -121 l 2
 165 -129 146 -149 131 -149 c 0
 122 -149 114 -140 114 -131 c 0
76 625 m 1
 76 698 l 1
 205 699 257 740 291 773 c 1
 325 773 l 1
 325 420 l 1
 412 420 l 1
 412 347 l 1
 92 347 l 1
 92 420 l 1
 187 420 l 1
 187 639 l 1
 154 631 126 625 76 625 c 1
577 -64 m 1
 577 16 l 1
 577 12 576 11 572 7 c 1
 779 279 l 1
 938 279 l 1
 938 12 l 1
 1011 12 l 1
 1011 -64 l 1
 938 -64 l 1
 938 -150 l 1
 814 -150 l 1
 814 -64 l 1
 577 -64 l 1
678 12 m 1
 818 12 l 1
 818 187 l 1
 801 157 775 131 678 12 c 1
EndSplineSet
EndChar
StartChar: uF2003
Encoding: 991235 991235 296
Width: 1000
Flags: MW
LayerCount: 2
Fore
SplineSet
614 -35 m 2
 654 562 l 2
 657 618 677 662 712 693 c 128
 747 724 794 740 854 740 c 0
 894 740 934 735 974 725 c 1
 958 609 l 1
 929 616 899 620 868 620 c 0
 825 620 803 595 800 545 c 2
 760 -52 l 2
 757 -108 737 -152 702 -183 c 128
 667 -214 618 -230 558 -230 c 0
 518 -230 478 -225 438 -215 c 1
 454 -99 l 1
 483 -106 513 -110 544 -110 c 0
 586 -110 610 -85 614 -35 c 2
406 -35 m 2
 446 562 l 2
 449 618 469 662 504 693 c 128
 539 724 587 740 648 740 c 0
 687 740 728 735 768 725 c 1
 752 609 l 1
 723 616 693 620 662 620 c 0
 621 620 598 595 594 545 c 2
 554 -52 l 2
 551 -108 531 -152 496 -183 c 128
 461 -214 413 -230 352 -230 c 0
 313 -230 272 -225 232 -215 c 1
 248 -99 l 1
 277 -106 307 -110 338 -110 c 0
 379 -110 402 -85 406 -35 c 2
200 -35 m 2
 240 562 l 2
 243 618 263 662 298 693 c 128
 333 724 381 740 442 740 c 0
 482 740 522 735 562 725 c 1
 546 609 l 1
 517 616 485 620 454 620 c 0
 413 620 390 595 386 545 c 2
 346 -52 l 2
 343 -108 323 -152 288 -183 c 128
 253 -214 205 -230 144 -230 c 0
 105 -230 66 -225 26 -215 c 1
 42 -99 l 1
 71 -106 101 -110 132 -110 c 0
 175 -110 197 -85 200 -35 c 2
EndSplineSet
EndChar
StartChar: uF200E
Encoding: 991246 991246 213
Width: 1000
Flags: MW
LayerCount: 2
Fore
SplineSet
130 138 m 2
 130 172 l 1
 130 472 l 2
 130 478 136 482 140 482 c 2
 463 482 l 1
 463 685 l 2
 463 691 468 695 474 695 c 0
 476 695 479 694 480 693 c 2
 917 313 l 2
 922 309 921 301 917 297 c 2
 480 -83 l 2
 476 -87 468 -86 465 -81 c 0
 464 -79 463 -76 463 -75 c 2
 463 128 l 1
 140 128 l 2
 134 128 130 134 130 138 c 2
EndSplineSet
Colour: ff
EndChar
StartChar: uF200F
Encoding: 991247 991247 214
Width: 1000
VWidth: 940
Flags: MW
LayerCount: 2
Fore
SplineSet
870 172 m 1
 870 138 l 2
 870 132 864 128 860 128 c 2
 537 128 l 1
 537 -75 l 2
 537 -81 532 -85 526 -85 c 0
 524 -85 521 -84 520 -83 c 2
 83 297 l 2
 78 301 79 309 83 313 c 2
 520 693 l 2
 524 697 532 696 535 691 c 0
 536 689 537 686 537 685 c 2
 537 482 l 1
 860 482 l 2
 866 482 870 476 870 472 c 2
 870 172 l 1
EndSplineSet
Colour: ff
EndChar
StartChar: uF2010
Encoding: 991248 991248 215
Width: 1000
Flags: MW
LayerCount: 2
Fore
SplineSet
776 377 m 0
 776 365 772 359 764 360 c 2
 630 360 l 2
 621 360 617 356 617 347 c 2
 617 -135 l 2
 617 -148 611 -155 599 -155 c 2
 402 -155 l 2
 390 -155 384 -148 383 -135 c 2
 383 347 l 2
 383 356 379 360 371 360 c 2
 236 360 l 2
 228 360 224 366 224 377 c 0
 224 378 224 381 225 384 c 0
 225 388 225 388 225 391 c 0
 225 393 227 395 231 398 c 0
 303 439 358 483 395 529 c 0
 432 574 459 623 477 676 c 0
 479 685 483 698 489 715 c 0
 491 721 495 724 500 724 c 256
 505 724 509 721 511 715 c 0
 515 702 515 702 523 676 c 0
 541 623 568 574 605 529 c 0
 642 484 697 440 769 398 c 0
 773 395 776 394 776 392 c 0
 776 390 776 387 776 384 c 0
 776 379 776 379 776 377 c 0
EndSplineSet
Colour: ff
EndChar
StartChar: uF2012
Encoding: 991250 991250 217
Width: 1000
Flags: MW
LayerCount: 2
Fore
SplineSet
939 284 m 256
 939 162 896 59 811 -27 c 0
 726 -113 621 -155 499 -155 c 256
 377 -155 274 -113 189 -27 c 0
 104 59 61 162 61 284 c 256
 61 406 104 509 189 595 c 0
 274 681 377 723 499 723 c 256
 621 723 724 681 810 595 c 0
 896 509 939 406 939 284 c 256
880 284 m 256
 880 390 843 479 769 553 c 0
 695 627 605 664 499 664 c 256
 393 664 304 627 230 553 c 0
 156 479 119 390 119 284 c 256
 119 178 156 89 230 15 c 0
 304 -59 393 -96 499 -96 c 256
 605 -96 695 -59 769 15 c 0
 843 89 880 178 880 284 c 256
792 284 m 256
 792 202 764 133 707 77 c 0
 650 21 581 -8 499 -8 c 256
 417 -8 348 21 292 78 c 0
 236 135 208 203 208 284 c 256
 208 366 236 435 293 492 c 0
 350 549 418 577 499 577 c 256
 581 577 650 549 707 492 c 0
 764 435 792 366 792 284 c 256
EndSplineSet
Colour: ff
EndChar
StartChar: uF2013
Encoding: 991251 991251 218
Width: 1000
Flags: MW
LayerCount: 2
Fore
SplineSet
690 -60 m 1
 310 -60 l 1
 310 0 l 1
 375 0 417 10 434 28 c 0
 451 46 460 90 460 160 c 1
 450 160 l 1
 425 107 381 80 320 80 c 0
 273 80 233 97 200 130 c 0
 167 163 150 203 150 250 c 0
 150 290 159 328 176 364 c 0
 193 400 227 446 278 502 c 0
 329 558 403 627 500 710 c 1
 597 627 671 558 722 502 c 0
 773 446 807 400 824 364 c 0
 841 328 850 290 850 250 c 0
 850 203 833 163 800 130 c 0
 767 97 727 80 680 80 c 0
 619 80 575 107 550 160 c 1
 540 160 l 1
 540 90 549 46 566 28 c 0
 583 10 625 0 690 0 c 1
 690 -60 l 1
EndSplineSet
Colour: ff
EndChar
StartChar: uF2016
Encoding: 991254 991254 221
Width: 1000
Flags: MW
LayerCount: 2
Fore
SplineSet
835 293 m 1
 707 148 596 -4 501 -165 c 1
 405 -4 293 148 165 293 c 1
 293 438 405 590 501 751 c 1
 596 590 707 438 835 293 c 1
EndSplineSet
Colour: ff
EndChar
StartChar: uF2018
Encoding: 991256 991256 323
Width: 1000
VWidth: 0
LayerCount: 2
Fore
SplineSet
922 390 m 27
 922 354 913 319 897 295 c 1
 925 267 941 227 941 176 c 27
 941 64 860 -12 748 -12 c 27
 705 -12 670 1 643 17 c 1
 613 -22 563 -52 495 -52 c 27
 395 -52 331 8 310 88 c 1
 300 85 275 80 260 80 c 11
 149 80 68 166 68 280 c 27
 68 391 134 453 223 476 c 1
 237 570 308 644 415 644 c 27
 498 644 544 602 579 552 c 1
 610 576 655 590 708 590 c 27
 831 590 922 508 922 390 c 27
EndSplineSet
Colour: 8080ff
EndChar
StartChar: uF2028
Encoding: 991272 991272 357
Width: 1000
Flags: W
LayerCount: 2
Fore
SplineSet
0 175 m 1
 1000 175 l 1
 1000 -200 l 1
 0 -200 l 1
 0 175 l 1
EndSplineSet
Colour: ff
EndChar
StartChar: uF2029
Encoding: 991273 991273 375
Width: 1000
VWidth: 940
Flags: W
LayerCount: 2
Fore
SplineSet
0 -200 m 1
 0 300 l 1
 1000 300 l 1
 1000 -200 l 1
 0 -200 l 1
EndSplineSet
Colour: ff
EndChar
StartChar: uF2034
Encoding: 991284 991284 386
Width: 1000
VWidth: 940
Flags: W
LayerCount: 2
Fore
SplineSet
0 -200 m 1
 0 800 l 1
 875 800 l 1
 875 -200 l 1
 0 -200 l 1
EndSplineSet
Colour: ff
EndChar
StartChar: uF2035
Encoding: 991285 991285 372
Width: 1000
VWidth: 940
Flags: W
LayerCount: 2
Fore
SplineSet
0 675 m 1
 0 800 l 1
 1000 800 l 1
 1000 675 l 1
 0 675 l 1
EndSplineSet
Colour: ff
EndChar
StartChar: uF2036
Encoding: 991286 991286 373
Width: 1000
VWidth: 940
Flags: W
LayerCount: 2
Fore
SplineSet
875 -200 m 1
 875 800 l 1
 1000 800 l 1
 1000 -200 l 1
 875 -200 l 1
EndSplineSet
Colour: ff
EndChar
StartChar: uF203B
Encoding: 991291 991291 424
Width: 1000
Flags: W
LayerCount: 2
Fore
SplineSet
0 140 m 1
 0 200 l 1
 1000 200 l 1
 1000 140 l 1
 0 140 l 1
0 400 m 1
 0 460 l 1
 1000 460 l 1
 1000 400 l 1
 0 400 l 1
EndSplineSet
Colour: ff
EndChar
StartChar: uF203C
Encoding: 991292 991292 379
Width: 1000
Flags: W
LayerCount: 2
Fore
SplineSet
470 -200 m 1
 470 800 l 1
 530 800 l 1
 530 460 l 1
 1000 460 l 1
 1000 400 l 1
 530 400 l 1
 530 200 l 1
 1000 200 l 1
 1000 140 l 1
 530 140 l 1
 530 -200 l 1
 470 -200 l 1
EndSplineSet
Colour: ff
EndChar
StartChar: uF2040
Encoding: 991296 991296 389
Width: 1000
VWidth: 940
Flags: W
LayerCount: 2
Fore
SplineSet
0 -200 m 1
 0 800 l 5
 1000 -200 l 5
 0 -200 l 1
EndSplineSet
Colour: ff
EndChar
StartChar: uF2042
Encoding: 991298 991298 385
Width: 1000
VWidth: 940
Flags: W
LayerCount: 2
Fore
SplineSet
0 -200 m 5
 0 800 l 1
 1000 800 l 5
 0 -200 l 5
EndSplineSet
Colour: ff
EndChar
StartChar: uF2046
Encoding: 991302 991302 433
Width: 1000
Flags: W
LayerCount: 2
Fore
SplineSet
-21.212890625 778.786132812 m 1
 21.2138671875 821.212890625 l 1
 1021.21289062 -178.786132812 l 1
 978.786132812 -221.212890625 l 1
 -21.212890625 778.786132812 l 1
EndSplineSet
Colour: ff
EndChar
StartChar: uF2047
Encoding: 991303 991303 386
Width: 1000
Flags: W
LayerCount: 2
Fore
SplineSet
-21.212890625 -178.786132812 m 1
 457.573242188 300 l 1
 -21.212890625 778.786132812 l 1
 21.2138671875 821.212890625 l 1
 500 342.426757812 l 1
 978.786132812 821.212890625 l 1
 1021.21289062 778.786132812 l 1
 542.426757812 300 l 1
 1021.21289062 -178.786132812 l 1
 978.786132812 -221.212890625 l 1
 500 257.573242188 l 1
 21.2138671875 -221.212890625 l 1
 -21.212890625 -178.786132812 l 1
EndSplineSet
Colour: ff
EndChar
StartChar: uF2075
Encoding: 991349 991349 270
Width: 1000
Flags: MW
LayerCount: 2
Fore
SplineSet
153 122 m 2
 153 167 l 2
 153 173 159 177 163 177 c 2
 761 177 l 1
 572 342 l 2
 568 346 568 353 571 357 c 2
 599 389 l 2
 603 394 611 393 614 390 c 2
 884 152 l 2
 889 148 888 140 884 136 c 2
 614 -101 l 2
 610 -105 603 -104 600 -100 c 2
 572 -69 l 2
 568 -65 569 -57 572 -54 c 2
 762 112 l 1
 163 112 l 2
 157 112 153 118 153 122 c 2
239 433 m 1
 428 268 l 2
 432 264 432 257 429 253 c 2
 401 221 l 2
 397 216 389 217 386 220 c 2
 116 458 l 2
 111 462 112 470 116 474 c 2
 386 711 l 2
 390 715 397 714 400 710 c 2
 428 679 l 2
 432 675 431 667 428 664 c 2
 238 498 l 1
 837 498 l 2
 843 498 847 492 847 488 c 2
 847 443 l 2
 847 437 841 433 837 433 c 2
 239 433 l 1
EndSplineSet
Colour: ff
EndChar
StartChar: uF2076
Encoding: 991350 991350 298
Width: 1000
Flags: MW
LayerCount: 2
Fore
SplineSet
952 466 m 0
 952 457 945 449 936 447 c 0
 929 446 919 443 905 440 c 0
 862 429 824 409 791 378 c 0
 758 347 735 311 720 269 c 0
 718 262 715 251 711 238 c 0
 708 229 692 225 672 225 c 0
 662 226 655 234 655 245 c 2
 656 249 l 2
 665 282 676 310 686 329 c 0
 714 381 753 423 798 444 c 1
 74 438 l 2
 59 439 48 450 48 466 c 0
 48 482 59 493 74 494 c 2
 798 488 l 1
 752 509 714 550 686 602 c 0
 676 621 665 649 656 684 c 1
 657 683 656 684 655 688 c 0
 656 699 664 705 673 707 c 0
 682 707 686 707 694 707 c 0
 700 707 708 702 711 695 c 0
 713 688 716 676 720 662 c 0
 735 620 758 585 791 554 c 0
 824 523 862 502 904 491 c 0
 911 490 921 488 937 485 c 0
 946 482 952 474 952 466 c 0
952 133 m 0
 952 117 941 106 926 105 c 2
 202 111 l 1
 235 98 267 68 293 32 c 0
 314 1 332 -38 344 -85 c 1
 343 -84 344 -85 345 -89 c 0
 344 -99 336 -107 325 -109 c 0
 317 -109 312 -108 306 -108 c 0
 299 -108 291 -102 289 -94 c 0
 288 -87 285 -78 280 -65 c 0
 265 -23 242 13 209 44 c 0
 176 75 138 96 95 107 c 0
 88 108 78 111 64 114 c 0
 55 116 48 124 48 133 c 0
 49 142 57 150 68 154 c 0
 76 155 83 156 90 157 c 0
 155 171 205 206 244 262 c 0
 259 283 270 305 280 330 c 0
 282 337 285 348 289 362 c 0
 293 371 308 374 328 374 c 0
 338 373 345 365 345 354 c 2
 344 350 l 2
 331 303 313 263 292 233 c 0
 267 197 236 168 202 155 c 1
 926 161 l 2
 941 160 952 149 952 133 c 0
EndSplineSet
Colour: ff
EndChar
StartChar: uF2077
Encoding: 991351 991351 299
Width: 1000
Flags: MW
LayerCount: 2
Fore
SplineSet
907 117 m 0
 907 97 904 82 895 77 c 0
 888 75 876 72 862 68 c 0
 820 53 785 31 754 -2 c 0
 723 -35 703 -73 692 -116 c 0
 691 -123 688 -133 685 -147 c 0
 683 -156 675 -163 666 -163 c 0
 658 -163 650 -157 647 -148 c 0
 646 -141 643 -130 640 -116 c 0
 629 -74 609 -36 578 -3 c 0
 547 30 512 53 470 68 c 0
 463 70 451 73 437 77 c 0
 430 80 425 88 425 95 c 0
 425 102 425 107 425 115 c 0
 427 124 433 132 444 133 c 2
 448 133 l 1
 483 124 511 113 529 103 c 0
 581 75 623 36 644 -10 c 1
 638 706 l 2
 639 721 650 732 666 732 c 0
 682 732 693 721 694 706 c 2
 688 -10 l 1
 709 35 751 74 803 103 c 0
 822 113 850 124 884 133 c 0
 886 133 886 133 887 133 c 0
 897 134 906 127 907 117 c 0
575 452 m 0
 574 442 566 435 555 435 c 2
 551 436 l 2
 518 445 490 456 471 466 c 0
 419 494 377 533 356 578 c 1
 362 -137 l 2
 361 -152 350 -163 334 -163 c 0
 318 -163 307 -152 306 -137 c 2
 312 578 l 1
 291 532 249 494 197 466 c 0
 178 456 150 445 116 436 c 1
 117 437 116 436 112 435 c 0
 101 436 95 444 93 453 c 0
 93 462 93 466 93 474 c 0
 93 480 98 488 105 491 c 0
 112 493 124 496 138 500 c 0
 180 515 215 538 246 571 c 0
 277 604 297 642 308 684 c 0
 309 691 311 701 315 717 c 0
 318 725 326 732 334 732 c 0
 343 732 351 725 353 716 c 0
 354 709 357 699 360 685 c 0
 371 642 391 604 422 571 c 0
 453 538 488 515 530 500 c 0
 537 498 548 495 562 491 c 0
 571 488 575 472 575 452 c 0
EndSplineSet
Colour: ff
EndChar
StartChar: uF2078
Encoding: 991352 991352 270
Width: 1000
Flags: MW
LayerCount: 2
Fore
SplineSet
141 233 m 2
 307 43 l 1
 307 642 l 2
 307 648 313 652 317 652 c 2
 362 652 l 2
 368 652 372 646 372 642 c 2
 372 44 l 1
 537 233 l 2
 541 237 548 237 552 234 c 2
 584 206 l 2
 589 202 588 194 585 191 c 2
 347 -79 l 2
 343 -84 335 -83 331 -79 c 2
 94 191 l 2
 90 195 91 202 95 205 c 2
 126 233 l 2
 130 237 138 236 141 233 c 2
693 567 m 1
 693 -32 l 2
 693 -38 687 -42 683 -42 c 2
 638 -42 l 2
 632 -42 628 -36 628 -32 c 2
 628 566 l 1
 463 377 l 2
 459 373 452 373 448 376 c 2
 416 404 l 2
 411 408 412 416 415 419 c 2
 653 689 l 2
 657 694 665 693 669 689 c 2
 906 419 l 2
 910 415 909 408 905 405 c 2
 874 377 l 2
 870 373 862 374 859 377 c 2
 693 567 l 1
EndSplineSet
Colour: ff
EndChar
StartChar: uF2634
Encoding: 992820 992820 55
Width: 1000
Flags: MW
LayerCount: 2
Fore
SplineSet
114 -131 m 0
 114 -124 118 -113 132 -97 c 2
 830 721 l 2
 840 732 854 748 868 748 c 0
 877 748 885 740 885 731 c 0
 885 722 876 712 871 706 c 2
 171 -121 l 2
 165 -129 146 -149 131 -149 c 0
 122 -149 114 -140 114 -131 c 0
36 567 m 1
 36 578 36 582 36 593 c 1
 39 680 56 764 170 786 c 0
 192 790 216 792 244 792 c 0
 295 792 353 784 392 754 c 0
 457 704 452 608 451 568 c 1
 451 572 451 566 451 569 c 1
 451 505 470 371 315 342 c 0
 293 339 270 337 243 337 c 0
 -4 337 36 505 36 567 c 1
178 573 m 1
 178 458 169 424 218 406 c 0
 224 405 233 401 244 401 c 0
 243 401 265 400 285 415 c 0
 323 442 306 488 309 577 c 1
 309 586 311 579 311 590 c 1
 311 624 312 682 299 701 c 0
 293 712 273 727 244 727 c 0
 146 727 178 632 178 592 c 1
 178 580 178 584 178 573 c 1
595 -131 m 1
 610 -38 l 1
 610 -38 671 -69 721 -69 c 2
 769 -69 l 0
 795 -69 815 -68 828 -60 c 0
 838 -54 844 -42 844 -23 c 0
 844 -5 838 7 828 14 c 4
 818 21 803 23 785 23 c 2
 732 23 l 1
 732 96 l 1
 768 100 789 99 808 120 c 0
 817 129 821 141 821 152 c 0
 821 179 804 183 782 183 c 0
 733 183 700 174 660 158 c 1
 610 236 l 1
 666 260 719 273 782 273 c 0
 910 273 961 224 961 150 c 0
 961 96 923 73 902 60 c 1
 939 51 991 29 991 -25 c 0
 991 -47 984 -104 926 -136 c 0
 876 -164 818 -164 762 -164 c 2
 712 -164 l 2
 662 -164 595 -131 595 -131 c 1
EndSplineSet
EndChar
StartChar: uF2635
Encoding: 992821 992821 56
Width: 1000
Flags: MW
LayerCount: 2
Fore
SplineSet
114 -131 m 0
 114 -124 118 -113 132 -97 c 2
 830 721 l 2
 840 732 854 748 868 748 c 0
 877 748 885 740 885 731 c 0
 885 722 876 712 871 706 c 2
 171 -121 l 2
 165 -129 146 -149 131 -149 c 0
 122 -149 114 -140 114 -131 c 0
76 625 m 1
 76 698 l 1
 205 699 257 740 291 773 c 1
 325 773 l 1
 325 420 l 1
 412 420 l 1
 412 347 l 1
 92 347 l 1
 92 420 l 1
 187 420 l 1
 187 639 l 1
 154 631 126 625 76 625 c 1
595 -131 m 1
 610 -38 l 1
 610 -38 671 -69 721 -69 c 2
 769 -69 l 0
 795 -69 815 -68 828 -60 c 0
 838 -54 844 -42 844 -23 c 0
 844 -5 838 7 828 14 c 4
 818 21 803 23 785 23 c 2
 732 23 l 1
 732 96 l 1
 768 100 789 99 808 120 c 0
 817 129 821 141 821 152 c 0
 821 179 804 183 782 183 c 0
 733 183 700 174 660 158 c 1
 610 236 l 1
 666 260 719 273 782 273 c 0
 910 273 961 224 961 150 c 0
 961 96 923 73 902 60 c 1
 939 51 991 29 991 -25 c 0
 991 -47 984 -104 926 -136 c 0
 876 -164 818 -164 762 -164 c 2
 712 -164 l 2
 662 -164 595 -131 595 -131 c 1
EndSplineSet
EndChar
StartChar: uF2636
Encoding: 992822 992822 57
Width: 1000
Flags: MW
LayerCount: 2
Fore
SplineSet
114 -131 m 0
 114 -124 118 -113 132 -97 c 2
 830 721 l 2
 840 732 854 748 868 748 c 0
 877 748 885 740 885 731 c 0
 885 722 876 712 871 706 c 2
 171 -121 l 2
 165 -129 146 -149 131 -149 c 0
 122 -149 114 -140 114 -131 c 0
45 720 m 1
 101 754 151 773 226 773 c 0
 347 773 432 709 432 615 c 0
 432 535 335 534 263 507 c 0
 239 498 239 497 146 454 c 1
 280 454 l 1
 302 455 l 1
 432 455 l 1
 432 347 l 1
 54 347 l 1
 54 453 l 1
 153 506 l 2
 224 537 291 554 291 612 c 0
 291 647 259 672 211 672 c 0
 152 672 122 640 111 629 c 1
 45 720 l 1
595 -131 m 1
 610 -38 l 1
 610 -38 671 -69 721 -69 c 2
 769 -69 l 0
 795 -69 815 -68 828 -60 c 0
 838 -54 844 -42 844 -23 c 0
 844 -5 838 7 828 14 c 4
 818 21 803 23 785 23 c 2
 732 23 l 1
 732 96 l 1
 768 100 789 99 808 120 c 0
 817 129 821 141 821 152 c 0
 821 179 804 183 782 183 c 0
 733 183 700 174 660 158 c 1
 610 236 l 1
 666 260 719 273 782 273 c 0
 910 273 961 224 961 150 c 0
 961 96 923 73 902 60 c 1
 939 51 991 29 991 -25 c 0
 991 -47 984 -104 926 -136 c 0
 876 -164 818 -164 762 -164 c 2
 712 -164 l 2
 662 -164 595 -131 595 -131 c 1
EndSplineSet
EndChar
StartChar: uF2637
Encoding: 992823 992823 58
Width: 1000
Flags: MW
LayerCount: 2
Fore
SplineSet
114 -131 m 0
 114 -124 118 -113 132 -97 c 2
 830 721 l 2
 840 732 854 748 868 748 c 0
 877 748 885 740 885 731 c 0
 885 722 876 712 871 706 c 2
 171 -121 l 2
 165 -129 146 -149 131 -149 c 0
 122 -149 114 -140 114 -131 c 0
45 369 m 1
 60 462 l 1
 60 462 121 431 171 431 c 2
 219 431 l 0
 245 431 265 432 278 440 c 0
 288 446 294 458 294 477 c 0
 294 495 288 507 278 514 c 4
 268 521 253 523 235 523 c 2
 182 523 l 1
 182 596 l 1
 218 600 239 599 258 620 c 0
 267 629 271 641 271 652 c 0
 271 679 254 683 232 683 c 0
 183 683 150 674 110 658 c 1
 60 736 l 1
 116 760 169 773 232 773 c 0
 360 773 411 724 411 650 c 0
 411 596 373 573 352 560 c 1
 389 551 441 529 441 475 c 0
 441 453 434 396 376 364 c 0
 326 336 268 336 212 336 c 2
 162 336 l 2
 112 336 45 369 45 369 c 1
577 -64 m 1
 577 16 l 1
 577 12 576 11 572 7 c 1
 779 279 l 1
 938 279 l 1
 938 12 l 1
 1011 12 l 1
 1011 -64 l 1
 938 -64 l 1
 938 -150 l 1
 814 -150 l 1
 814 -64 l 1
 577 -64 l 1
678 12 m 1
 818 12 l 1
 818 187 l 1
 801 157 775 131 678 12 c 1
EndSplineSet
EndChar
StartChar: uF2638
Encoding: 992824 992824 59
Width: 1000
Flags: MW
LayerCount: 2
Fore
SplineSet
114 -131 m 0
 114 -124 118 -113 132 -97 c 2
 830 721 l 2
 840 732 854 748 868 748 c 0
 877 748 885 740 885 731 c 0
 885 722 876 712 871 706 c 2
 171 -121 l 2
 165 -129 146 -149 131 -149 c 0
 122 -149 114 -140 114 -131 c 0
76 625 m 1
 76 698 l 1
 205 699 257 740 291 773 c 1
 325 773 l 1
 325 420 l 1
 412 420 l 1
 412 347 l 1
 92 347 l 1
 92 420 l 1
 187 420 l 1
 187 639 l 1
 154 631 126 625 76 625 c 1
580 -99 m 1
 633 -35 l 1
 639 -41 643 -47 650 -53 c 0
 663 -64 680 -73 698 -79 c 0
 716 -85 738 -88 762 -88 c 0
 805 -88 821 -81 828 -72 c 0
 842 -57 839 -35 839 -13 c 1
 839 -16 839 4 839 1 c 1
 841 21 845 45 833 60 c 0
 830 66 822 72 801 72 c 0
 743 72 723 27 722 27 c 1
 621 27 l 1
 621 279 l 1
 957 279 l 1
 957 202 l 1
 757 202 l 1
 757 129 l 1
 768 130 781 131 806 131 c 0
 859 131 902 126 933 110 c 0
 970 91 990 47 990 -14 c 0
 990 -71 970 -104 939 -125 c 0
 894 -156 828 -163 767 -163 c 0
 733 -163 705 -159 684 -154 c 0
 621 -138 590 -109 580 -99 c 1
EndSplineSet
EndChar
StartChar: uF2639
Encoding: 992825 992825 60
Width: 1000
Flags: MW
LayerCount: 2
Fore
SplineSet
114 -131 m 0
 114 -124 118 -113 132 -97 c 2
 830 721 l 2
 840 732 854 748 868 748 c 0
 877 748 885 740 885 731 c 0
 885 722 876 712 871 706 c 2
 171 -121 l 2
 165 -129 146 -149 131 -149 c 0
 122 -149 114 -140 114 -131 c 0
45 720 m 1
 101 754 151 773 226 773 c 0
 347 773 432 709 432 615 c 0
 432 535 335 534 263 507 c 0
 239 498 239 497 146 454 c 1
 280 454 l 1
 302 455 l 1
 432 455 l 1
 432 347 l 1
 54 347 l 1
 54 453 l 1
 153 506 l 2
 224 537 291 554 291 612 c 0
 291 647 259 672 211 672 c 0
 152 672 122 640 111 629 c 1
 45 720 l 1
580 -99 m 1
 633 -35 l 1
 639 -41 643 -47 650 -53 c 0
 663 -64 680 -73 698 -79 c 0
 716 -85 738 -88 762 -88 c 0
 805 -88 821 -81 828 -72 c 0
 842 -57 839 -35 839 -13 c 1
 839 -16 839 4 839 1 c 1
 841 21 845 45 833 60 c 0
 830 66 822 72 801 72 c 0
 743 72 723 27 722 27 c 1
 621 27 l 1
 621 279 l 1
 957 279 l 1
 957 202 l 1
 757 202 l 1
 757 129 l 1
 768 130 781 131 806 131 c 0
 859 131 902 126 933 110 c 0
 970 91 990 47 990 -14 c 0
 990 -71 970 -104 939 -125 c 0
 894 -156 828 -163 767 -163 c 0
 733 -163 705 -159 684 -154 c 0
 621 -138 590 -109 580 -99 c 1
EndSplineSet
EndChar
StartChar: uF263A
Encoding: 992826 992826 61
Width: 1000
Flags: MW
LayerCount: 2
Fore
SplineSet
114 -131 m 0
 114 -124 118 -113 132 -97 c 2
 830 721 l 2
 840 732 854 748 868 748 c 0
 877 748 885 740 885 731 c 0
 885 722 876 712 871 706 c 2
 171 -121 l 2
 165 -129 146 -149 131 -149 c 0
 122 -149 114 -140 114 -131 c 0
45 369 m 1
 60 462 l 1
 60 462 121 431 171 431 c 2
 219 431 l 0
 245 431 265 432 278 440 c 0
 288 446 294 458 294 477 c 0
 294 495 288 507 278 514 c 4
 268 521 253 523 235 523 c 2
 182 523 l 1
 182 596 l 1
 218 600 239 599 258 620 c 0
 267 629 271 641 271 652 c 0
 271 679 254 683 232 683 c 0
 183 683 150 674 110 658 c 1
 60 736 l 1
 116 760 169 773 232 773 c 0
 360 773 411 724 411 650 c 0
 411 596 373 573 352 560 c 1
 389 551 441 529 441 475 c 0
 441 453 434 396 376 364 c 0
 326 336 268 336 212 336 c 2
 162 336 l 2
 112 336 45 369 45 369 c 1
580 -99 m 1
 633 -35 l 1
 639 -41 643 -47 650 -53 c 0
 663 -64 680 -73 698 -79 c 0
 716 -85 738 -88 762 -88 c 0
 805 -88 821 -81 828 -72 c 0
 842 -57 839 -35 839 -13 c 1
 839 -16 839 4 839 1 c 1
 841 21 845 45 833 60 c 0
 830 66 822 72 801 72 c 0
 743 72 723 27 722 27 c 1
 621 27 l 1
 621 279 l 1
 957 279 l 1
 957 202 l 1
 757 202 l 1
 757 129 l 1
 768 130 781 131 806 131 c 0
 859 131 902 126 933 110 c 0
 970 91 990 47 990 -14 c 0
 990 -71 970 -104 939 -125 c 0
 894 -156 828 -163 767 -163 c 0
 733 -163 705 -159 684 -154 c 0
 621 -138 590 -109 580 -99 c 1
EndSplineSet
EndChar
StartChar: uF263B
Encoding: 992827 992827 62
Width: 1000
Flags: MW
LayerCount: 2
Fore
SplineSet
114 -131 m 0
 114 -124 118 -113 132 -97 c 2
 830 721 l 2
 840 732 854 748 868 748 c 0
 877 748 885 740 885 731 c 0
 885 722 876 712 871 706 c 2
 171 -121 l 2
 165 -129 146 -149 131 -149 c 0
 122 -149 114 -140 114 -131 c 0
27 436 m 1
 27 516 l 1
 27 512 26 511 22 507 c 1
 229 779 l 1
 388 779 l 1
 388 512 l 1
 461 512 l 1
 461 436 l 1
 388 436 l 1
 388 350 l 1
 264 350 l 1
 264 436 l 1
 27 436 l 1
128 512 m 1
 268 512 l 1
 268 687 l 1
 251 657 225 631 128 512 c 1
580 -99 m 1
 633 -35 l 1
 639 -41 643 -47 650 -53 c 0
 663 -64 680 -73 698 -79 c 0
 716 -85 738 -88 762 -88 c 0
 805 -88 821 -81 828 -72 c 0
 842 -57 839 -35 839 -13 c 1
 839 -16 839 4 839 1 c 1
 841 21 845 45 833 60 c 0
 830 66 822 72 801 72 c 0
 743 72 723 27 722 27 c 1
 621 27 l 1
 621 279 l 1
 957 279 l 1
 957 202 l 1
 757 202 l 1
 757 129 l 1
 768 130 781 131 806 131 c 0
 859 131 902 126 933 110 c 0
 970 91 990 47 990 -14 c 0
 990 -71 970 -104 939 -125 c 0
 894 -156 828 -163 767 -163 c 0
 733 -163 705 -159 684 -154 c 0
 621 -138 590 -109 580 -99 c 1
EndSplineSet
EndChar
StartChar: uF263C
Encoding: 992828 992828 63
Width: 1000
Flags: MW
LayerCount: 2
Fore
SplineSet
114 -131 m 0
 114 -124 118 -113 132 -97 c 2
 830 721 l 2
 840 732 854 748 868 748 c 0
 877 748 885 740 885 731 c 0
 885 722 876 712 871 706 c 2
 171 -121 l 2
 165 -129 146 -149 131 -149 c 0
 122 -149 114 -140 114 -131 c 0
76 625 m 1
 76 698 l 1
 205 699 257 740 291 773 c 1
 325 773 l 1
 325 420 l 1
 412 420 l 1
 412 347 l 1
 92 347 l 1
 92 420 l 1
 187 420 l 1
 187 639 l 1
 154 631 126 625 76 625 c 1
590 61 m 0
 590 174 618 205 633 224 c 0
 676 272 753 292 846 292 c 0
 873 292 890 291 925 279 c 1
 925 209 l 1
 897 219 879 222 850 222 c 0
 781 222 753 199 749 192 c 0
 743 181 733 159 734 95 c 1
 743 121 766 155 834 155 c 0
 920 155 951 131 967 116 c 0
 1000 85 999 43 998 3 c 1
 998 5 998 0 998 2 c 1
 998 -24 1004 -64 981 -98 c 0
 923 -167 833 -163 796 -163 c 0
 719 -163 681 -144 656 -128 c 0
 584 -71 590 26 590 61 c 0
734 4 m 0
 734 0 734 -4 734 -8 c 0
 732 -54 738 -87 801 -87 c 0
 850 -87 855 -69 855 -38 c 0
 855 -25 853 -11 854 1 c 1
 854 -3 854 22 854 19 c 1
 854 40 858 63 852 77 c 0
 852 85 842 97 801 97 c 0
 747 97 735 60 734 23 c 0
 734 16 734 11 734 4 c 0
EndSplineSet
EndChar
StartChar: uF263D
Encoding: 992829 992829 64
Width: 1000
Flags: MW
LayerCount: 2
Fore
SplineSet
114 -131 m 0
 114 -124 118 -113 132 -97 c 2
 830 721 l 2
 840 732 854 748 868 748 c 0
 877 748 885 740 885 731 c 0
 885 722 876 712 871 706 c 2
 171 -121 l 2
 165 -129 146 -149 131 -149 c 0
 122 -149 114 -140 114 -131 c 0
30 401 m 1
 83 465 l 1
 89 459 93 453 100 447 c 0
 113 436 130 427 148 421 c 0
 166 415 188 412 212 412 c 0
 255 412 271 419 278 428 c 0
 292 443 289 465 289 487 c 1
 289 484 289 504 289 501 c 1
 291 521 295 545 283 560 c 0
 280 566 272 572 251 572 c 0
 193 572 173 527 172 527 c 1
 71 527 l 1
 71 779 l 1
 407 779 l 1
 407 702 l 1
 207 702 l 1
 207 629 l 1
 218 630 231 631 256 631 c 0
 309 631 352 626 383 610 c 0
 420 591 440 547 440 486 c 0
 440 429 420 396 389 375 c 0
 344 344 278 337 217 337 c 0
 183 337 155 341 134 346 c 0
 71 362 40 391 30 401 c 1
590 61 m 0
 590 174 618 205 633 224 c 0
 676 272 753 292 846 292 c 0
 873 292 890 291 925 279 c 1
 925 209 l 1
 897 219 879 222 850 222 c 0
 781 222 753 199 749 192 c 0
 743 181 733 159 734 95 c 1
 743 121 766 155 834 155 c 0
 920 155 951 131 967 116 c 0
 1000 85 999 43 998 3 c 1
 998 5 998 0 998 2 c 1
 998 -24 1004 -64 981 -98 c 0
 923 -167 833 -163 796 -163 c 0
 719 -163 681 -144 656 -128 c 0
 584 -71 590 26 590 61 c 0
734 4 m 0
 734 0 734 -4 734 -8 c 0
 732 -54 738 -87 801 -87 c 0
 850 -87 855 -69 855 -38 c 0
 855 -25 853 -11 854 1 c 1
 854 -3 854 22 854 19 c 1
 854 40 858 63 852 77 c 0
 852 85 842 97 801 97 c 0
 747 97 735 60 734 23 c 0
 734 16 734 11 734 4 c 0
EndSplineSet
EndChar
StartChar: uF263E
Encoding: 992830 992830 65
Width: 1000
Flags: MW
LayerCount: 2
Fore
SplineSet
114 -131 m 0
 114 -124 118 -113 132 -97 c 2
 830 721 l 2
 840 732 854 748 868 748 c 0
 877 748 885 740 885 731 c 0
 885 722 876 712 871 706 c 2
 171 -121 l 2
 165 -129 146 -149 131 -149 c 0
 122 -149 114 -140 114 -131 c 0
76 625 m 1
 76 698 l 1
 205 699 257 740 291 773 c 1
 325 773 l 1
 325 420 l 1
 412 420 l 1
 412 347 l 1
 92 347 l 1
 92 420 l 1
 187 420 l 1
 187 639 l 1
 154 631 126 625 76 625 c 1
590 191 m 1
 590 279 l 1
 998 279 l 1
 998 196 l 1
 873 90 812 -33 812 -157 c 1
 667 -157 l 1
 667 -14 761 107 926 192 c 1
 590 191 l 1
EndSplineSet
EndChar
StartChar: uF263F
Encoding: 992831 992831 66
Width: 1000
Flags: MW
LayerCount: 2
Fore
SplineSet
114 -131 m 0
 114 -124 118 -113 132 -97 c 2
 830 721 l 2
 840 732 854 748 868 748 c 0
 877 748 885 740 885 731 c 0
 885 722 876 712 871 706 c 2
 171 -121 l 2
 165 -129 146 -149 131 -149 c 0
 122 -149 114 -140 114 -131 c 0
45 720 m 1
 101 754 151 773 226 773 c 0
 347 773 432 709 432 615 c 0
 432 535 335 534 263 507 c 0
 239 498 239 497 146 454 c 1
 280 454 l 1
 302 455 l 1
 432 455 l 1
 432 347 l 1
 54 347 l 1
 54 453 l 1
 153 506 l 2
 224 537 291 554 291 612 c 0
 291 647 259 672 211 672 c 0
 152 672 122 640 111 629 c 1
 45 720 l 1
590 191 m 1
 590 279 l 1
 998 279 l 1
 998 196 l 1
 873 90 812 -33 812 -157 c 1
 667 -157 l 1
 667 -14 761 107 926 192 c 1
 590 191 l 1
EndSplineSet
EndChar
StartChar: uF2640
Encoding: 992832 992832 67
Width: 1000
Flags: MW
LayerCount: 2
Fore
SplineSet
114 -131 m 0
 114 -124 118 -113 132 -97 c 2
 830 721 l 2
 840 732 854 748 868 748 c 0
 877 748 885 740 885 731 c 0
 885 722 876 712 871 706 c 2
 171 -121 l 2
 165 -129 146 -149 131 -149 c 0
 122 -149 114 -140 114 -131 c 0
45 369 m 1
 60 462 l 1
 60 462 121 431 171 431 c 2
 219 431 l 0
 245 431 265 432 278 440 c 0
 288 446 294 458 294 477 c 0
 294 495 288 507 278 514 c 4
 268 521 253 523 235 523 c 2
 182 523 l 1
 182 596 l 1
 218 600 239 599 258 620 c 0
 267 629 271 641 271 652 c 0
 271 679 254 683 232 683 c 0
 183 683 150 674 110 658 c 1
 60 736 l 1
 116 760 169 773 232 773 c 0
 360 773 411 724 411 650 c 0
 411 596 373 573 352 560 c 1
 389 551 441 529 441 475 c 0
 441 453 434 396 376 364 c 0
 326 336 268 336 212 336 c 2
 162 336 l 2
 112 336 45 369 45 369 c 1
590 191 m 1
 590 279 l 1
 998 279 l 1
 998 196 l 1
 873 90 812 -33 812 -157 c 1
 667 -157 l 1
 667 -14 761 107 926 192 c 1
 590 191 l 1
EndSplineSet
EndChar
StartChar: uF2641
Encoding: 992833 992833 68
Width: 1000
Flags: MW
LayerCount: 2
Fore
SplineSet
114 -131 m 0
 114 -124 118 -113 132 -97 c 2
 830 721 l 2
 840 732 854 748 868 748 c 0
 877 748 885 740 885 731 c 0
 885 722 876 712 871 706 c 2
 171 -121 l 2
 165 -129 146 -149 131 -149 c 0
 122 -149 114 -140 114 -131 c 0
27 436 m 1
 27 516 l 1
 27 512 26 511 22 507 c 1
 229 779 l 1
 388 779 l 1
 388 512 l 1
 461 512 l 1
 461 436 l 1
 388 436 l 1
 388 350 l 1
 264 350 l 1
 264 436 l 1
 27 436 l 1
128 512 m 1
 268 512 l 1
 268 687 l 1
 251 657 225 631 128 512 c 1
590 191 m 1
 590 279 l 1
 998 279 l 1
 998 196 l 1
 873 90 812 -33 812 -157 c 1
 667 -157 l 1
 667 -14 761 107 926 192 c 1
 590 191 l 1
EndSplineSet
EndChar
StartChar: uF2642
Encoding: 992834 992834 69
Width: 1000
Flags: MW
LayerCount: 2
Fore
SplineSet
114 -131 m 0
 114 -124 118 -113 132 -97 c 2
 830 721 l 2
 840 732 854 748 868 748 c 0
 877 748 885 740 885 731 c 0
 885 722 876 712 871 706 c 2
 171 -121 l 2
 165 -129 146 -149 131 -149 c 0
 122 -149 114 -140 114 -131 c 0
30 401 m 1
 83 465 l 1
 89 459 93 453 100 447 c 0
 113 436 130 427 148 421 c 0
 166 415 188 412 212 412 c 0
 255 412 271 419 278 428 c 0
 292 443 289 465 289 487 c 1
 289 484 289 504 289 501 c 1
 291 521 295 545 283 560 c 0
 280 566 272 572 251 572 c 0
 193 572 173 527 172 527 c 1
 71 527 l 1
 71 779 l 1
 407 779 l 1
 407 702 l 1
 207 702 l 1
 207 629 l 1
 218 630 231 631 256 631 c 0
 309 631 352 626 383 610 c 0
 420 591 440 547 440 486 c 0
 440 429 420 396 389 375 c 0
 344 344 278 337 217 337 c 0
 183 337 155 341 134 346 c 0
 71 362 40 391 30 401 c 1
590 191 m 1
 590 279 l 1
 998 279 l 1
 998 196 l 1
 873 90 812 -33 812 -157 c 1
 667 -157 l 1
 667 -14 761 107 926 192 c 1
 590 191 l 1
EndSplineSet
EndChar
StartChar: uF2643
Encoding: 992835 992835 70
Width: 1000
Flags: MW
LayerCount: 2
Fore
SplineSet
114 -131 m 0
 114 -124 118 -113 132 -97 c 2
 830 721 l 2
 840 732 854 748 868 748 c 0
 877 748 885 740 885 731 c 0
 885 722 876 712 871 706 c 2
 171 -121 l 2
 165 -129 146 -149 131 -149 c 0
 122 -149 114 -140 114 -131 c 0
40 561 m 0
 40 674 68 705 83 724 c 0
 126 772 203 792 296 792 c 0
 323 792 340 791 375 779 c 1
 375 709 l 1
 347 719 329 722 300 722 c 0
 231 722 203 699 199 692 c 0
 193 681 183 659 184 595 c 1
 193 621 216 655 284 655 c 0
 370 655 401 631 417 616 c 0
 450 585 449 543 448 503 c 1
 448 505 448 500 448 502 c 1
 448 476 454 436 431 402 c 0
 373 333 283 337 246 337 c 0
 169 337 131 356 106 372 c 0
 34 429 40 526 40 561 c 0
184 504 m 0
 184 500 184 496 184 492 c 0
 182 446 188 413 251 413 c 0
 300 413 305 431 305 462 c 0
 305 475 303 489 304 501 c 1
 304 497 304 522 304 519 c 1
 304 540 308 563 302 577 c 0
 302 585 292 597 251 597 c 0
 197 597 185 560 184 523 c 0
 184 516 184 511 184 504 c 0
590 191 m 1
 590 279 l 1
 998 279 l 1
 998 196 l 1
 873 90 812 -33 812 -157 c 1
 667 -157 l 1
 667 -14 761 107 926 192 c 1
 590 191 l 1
EndSplineSet
EndChar
StartChar: uF2644
Encoding: 992836 992836 71
Width: 1000
Flags: MW
LayerCount: 2
Fore
SplineSet
114 -131 m 0
 114 -124 118 -113 132 -97 c 2
 830 721 l 2
 840 732 854 748 868 748 c 0
 877 748 885 740 885 731 c 0
 885 722 876 712 871 706 c 2
 171 -121 l 2
 165 -129 146 -149 131 -149 c 0
 122 -149 114 -140 114 -131 c 0
76 625 m 1
 76 698 l 1
 205 699 257 740 291 773 c 1
 325 773 l 1
 325 420 l 1
 412 420 l 1
 412 347 l 1
 92 347 l 1
 92 420 l 1
 187 420 l 1
 187 639 l 1
 154 631 126 625 76 625 c 1
590 -23 m 0
 590 34 620 70 689 81 c 1
 694 82 603 84 603 170 c 0
 603 229 623 292 794 292 c 1
 793 292 794 292 793 292 c 1
 968 293 985 229 985 169 c 0
 985 72 863 75 899 81 c 1
 983 65 998 25 998 -23 c 0
 998 -92 977 -163 794 -163 c 0
 611 -163 590 -91 590 -23 c 0
734 -32 m 1
 735 -49 730 -68 744 -79 c 0
 752 -85 766 -89 793 -89 c 0
 817 -89 830 -86 836 -83 c 0
 867 -68 854 -37 855 -26 c 1
 855 -28 856 -14 856 -16 c 1
 857 8 857 28 842 40 c 0
 835 46 820 50 794 50 c 0
 763 50 751 45 744 39 c 0
 720 21 733 -11 734 -20 c 1
 734 -18 734 -34 734 -32 c 1
737 160 m 1
 737 141 738 128 747 120 c 0
 754 114 768 111 793 111 c 0
 821 111 834 114 842 120 c 0
 855 131 851 147 851 161 c 1
 851 158 851 170 852 168 c 1
 855 187 856 199 851 208 c 0
 845 219 828 223 795 223 c 0
 768 223 756 220 748 216 c 0
 728 205 736 184 736 170 c 1
 736 171 737 158 737 160 c 1
EndSplineSet
EndChar
StartChar: uF2645
Encoding: 992837 992837 72
Width: 1000
Flags: MW
LayerCount: 2
Fore
SplineSet
114 -131 m 0
 114 -124 118 -113 132 -97 c 2
 830 721 l 2
 840 732 854 748 868 748 c 0
 877 748 885 740 885 731 c 0
 885 722 876 712 871 706 c 2
 171 -121 l 2
 165 -129 146 -149 131 -149 c 0
 122 -149 114 -140 114 -131 c 0
45 369 m 1
 60 462 l 1
 60 462 121 431 171 431 c 2
 219 431 l 0
 245 431 265 432 278 440 c 0
 288 446 294 458 294 477 c 0
 294 495 288 507 278 514 c 4
 268 521 253 523 235 523 c 2
 182 523 l 1
 182 596 l 1
 218 600 239 599 258 620 c 0
 267 629 271 641 271 652 c 0
 271 679 254 683 232 683 c 0
 183 683 150 674 110 658 c 1
 60 736 l 1
 116 760 169 773 232 773 c 0
 360 773 411 724 411 650 c 0
 411 596 373 573 352 560 c 1
 389 551 441 529 441 475 c 0
 441 453 434 396 376 364 c 0
 326 336 268 336 212 336 c 2
 162 336 l 2
 112 336 45 369 45 369 c 1
590 -23 m 0
 590 34 620 70 689 81 c 1
 694 82 603 84 603 170 c 0
 603 229 623 292 794 292 c 1
 793 292 794 292 793 292 c 1
 968 293 985 229 985 169 c 0
 985 72 863 75 899 81 c 1
 983 65 998 25 998 -23 c 0
 998 -92 977 -163 794 -163 c 0
 611 -163 590 -91 590 -23 c 0
734 -32 m 1
 735 -49 730 -68 744 -79 c 0
 752 -85 766 -89 793 -89 c 0
 817 -89 830 -86 836 -83 c 0
 867 -68 854 -37 855 -26 c 1
 855 -28 856 -14 856 -16 c 1
 857 8 857 28 842 40 c 0
 835 46 820 50 794 50 c 0
 763 50 751 45 744 39 c 0
 720 21 733 -11 734 -20 c 1
 734 -18 734 -34 734 -32 c 1
737 160 m 1
 737 141 738 128 747 120 c 0
 754 114 768 111 793 111 c 0
 821 111 834 114 842 120 c 0
 855 131 851 147 851 161 c 1
 851 158 851 170 852 168 c 1
 855 187 856 199 851 208 c 0
 845 219 828 223 795 223 c 0
 768 223 756 220 748 216 c 0
 728 205 736 184 736 170 c 1
 736 171 737 158 737 160 c 1
EndSplineSet
EndChar
StartChar: uF2646
Encoding: 992838 992838 73
Width: 1000
Flags: MW
LayerCount: 2
Fore
SplineSet
114 -131 m 0
 114 -124 118 -113 132 -97 c 2
 830 721 l 2
 840 732 854 748 868 748 c 0
 877 748 885 740 885 731 c 0
 885 722 876 712 871 706 c 2
 171 -121 l 2
 165 -129 146 -149 131 -149 c 0
 122 -149 114 -140 114 -131 c 0
30 401 m 1
 83 465 l 1
 89 459 93 453 100 447 c 0
 113 436 130 427 148 421 c 0
 166 415 188 412 212 412 c 0
 255 412 271 419 278 428 c 0
 292 443 289 465 289 487 c 1
 289 484 289 504 289 501 c 1
 291 521 295 545 283 560 c 0
 280 566 272 572 251 572 c 0
 193 572 173 527 172 527 c 1
 71 527 l 1
 71 779 l 1
 407 779 l 1
 407 702 l 1
 207 702 l 1
 207 629 l 1
 218 630 231 631 256 631 c 0
 309 631 352 626 383 610 c 0
 420 591 440 547 440 486 c 0
 440 429 420 396 389 375 c 0
 344 344 278 337 217 337 c 0
 183 337 155 341 134 346 c 0
 71 362 40 391 30 401 c 1
590 -23 m 0
 590 34 620 70 689 81 c 1
 694 82 603 84 603 170 c 0
 603 229 623 292 794 292 c 1
 793 292 794 292 793 292 c 1
 968 293 985 229 985 169 c 0
 985 72 863 75 899 81 c 1
 983 65 998 25 998 -23 c 0
 998 -92 977 -163 794 -163 c 0
 611 -163 590 -91 590 -23 c 0
734 -32 m 1
 735 -49 730 -68 744 -79 c 0
 752 -85 766 -89 793 -89 c 0
 817 -89 830 -86 836 -83 c 0
 867 -68 854 -37 855 -26 c 1
 855 -28 856 -14 856 -16 c 1
 857 8 857 28 842 40 c 0
 835 46 820 50 794 50 c 0
 763 50 751 45 744 39 c 0
 720 21 733 -11 734 -20 c 1
 734 -18 734 -34 734 -32 c 1
737 160 m 1
 737 141 738 128 747 120 c 0
 754 114 768 111 793 111 c 0
 821 111 834 114 842 120 c 0
 855 131 851 147 851 161 c 1
 851 158 851 170 852 168 c 1
 855 187 856 199 851 208 c 0
 845 219 828 223 795 223 c 0
 768 223 756 220 748 216 c 0
 728 205 736 184 736 170 c 1
 736 171 737 158 737 160 c 1
EndSplineSet
EndChar
StartChar: uF2649
Encoding: 992841 992841 76
Width: 1000
Flags: MW
LayerCount: 2
Fore
SplineSet
114 -131 m 0
 114 -124 118 -113 132 -97 c 2
 830 721 l 2
 840 732 854 748 868 748 c 0
 877 748 885 740 885 731 c 0
 885 722 876 712 871 706 c 2
 171 -121 l 2
 165 -129 146 -149 131 -149 c 0
 122 -149 114 -140 114 -131 c 0
45 720 m 1
 101 754 151 773 226 773 c 0
 347 773 432 709 432 615 c 0
 432 535 335 534 263 507 c 0
 239 498 239 497 146 454 c 1
 280 454 l 1
 302 455 l 1
 432 455 l 1
 432 347 l 1
 54 347 l 1
 54 453 l 1
 153 506 l 2
 224 537 291 554 291 612 c 0
 291 647 259 672 211 672 c 0
 152 672 122 640 111 629 c 1
 45 720 l 1
590 118 m 0
 590 159 582 196 614 233 c 0
 642 265 686 292 795 292 c 0
 863 292 904 276 929 260 c 0
 1009 205 998 104 998 73 c 0
 998 13 1001 -76 919 -128 c 0
 874 -155 809 -163 751 -163 c 0
 698 -163 662 -154 620 -134 c 1
 668 -70 l 1
 697 -84 717 -89 751 -89 c 0
 792 -89 826 -78 838 -64 c 0
 849 -50 858 -17 855 36 c 1
 855 33 854 38 854 35 c 1
 852 16 828 -26 753 -26 c 0
 668 -26 634 -1 619 15 c 0
 590 44 590 83 590 118 c 0
733 125 m 1
 736 46 740 43 748 38 c 0
 759 32 776 31 786 31 c 0
 800 31 825 34 841 59 c 0
 848 73 854 94 854 130 c 0
 854 175 861 219 792 219 c 0
 775 219 762 218 754 214 c 0
 716 198 732 156 731 131 c 1
 734 137 733 118 733 125 c 1
EndSplineSet
EndChar
StartChar: uF264B
Encoding: 992843 992843 78
Width: 1000
Flags: MW
LayerCount: 2
Fore
SplineSet
114 -131 m 0
 114 -124 118 -113 132 -97 c 2
 830 721 l 2
 840 732 854 748 868 748 c 0
 877 748 885 740 885 731 c 0
 885 722 876 712 871 706 c 2
 171 -121 l 2
 165 -129 146 -149 131 -149 c 0
 122 -149 114 -140 114 -131 c 0
30 401 m 1
 83 465 l 1
 89 459 93 453 100 447 c 0
 113 436 130 427 148 421 c 0
 166 415 188 412 212 412 c 0
 255 412 271 419 278 428 c 0
 292 443 289 465 289 487 c 1
 289 484 289 504 289 501 c 1
 291 521 295 545 283 560 c 0
 280 566 272 572 251 572 c 0
 193 572 173 527 172 527 c 1
 71 527 l 1
 71 779 l 1
 407 779 l 1
 407 702 l 1
 207 702 l 1
 207 629 l 1
 218 630 231 631 256 631 c 0
 309 631 352 626 383 610 c 0
 420 591 440 547 440 486 c 0
 440 429 420 396 389 375 c 0
 344 344 278 337 217 337 c 0
 183 337 155 341 134 346 c 0
 71 362 40 391 30 401 c 1
590 118 m 0
 590 159 582 196 614 233 c 0
 642 265 686 292 795 292 c 0
 863 292 904 276 929 260 c 0
 1009 205 998 104 998 73 c 0
 998 13 1001 -76 919 -128 c 0
 874 -155 809 -163 751 -163 c 0
 698 -163 662 -154 620 -134 c 1
 668 -70 l 1
 697 -84 717 -89 751 -89 c 0
 792 -89 826 -78 838 -64 c 0
 849 -50 858 -17 855 36 c 1
 855 33 854 38 854 35 c 1
 852 16 828 -26 753 -26 c 0
 668 -26 634 -1 619 15 c 0
 590 44 590 83 590 118 c 0
733 125 m 1
 736 46 740 43 748 38 c 0
 759 32 776 31 786 31 c 0
 800 31 825 34 841 59 c 0
 848 73 854 94 854 130 c 0
 854 175 861 219 792 219 c 0
 775 219 762 218 754 214 c 0
 716 198 732 156 731 131 c 1
 734 137 733 118 733 125 c 1
EndSplineSet
EndChar
StartChar: uF264D
Encoding: 992845 992845 80
Width: 1000
Flags: MW
LayerCount: 2
Fore
SplineSet
114 -131 m 0
 114 -124 118 -113 132 -97 c 2
 830 721 l 2
 840 732 854 748 868 748 c 0
 877 748 885 740 885 731 c 0
 885 722 876 712 871 706 c 2
 171 -121 l 2
 165 -129 146 -149 131 -149 c 0
 122 -149 114 -140 114 -131 c 0
40 477 m 0
 40 534 70 570 139 581 c 1
 144 582 53 584 53 670 c 0
 53 729 73 792 244 792 c 1
 243 792 244 792 243 792 c 1
 418 793 435 729 435 669 c 0
 435 572 313 575 349 581 c 1
 433 565 448 525 448 477 c 0
 448 408 427 337 244 337 c 0
 61 337 40 409 40 477 c 0
184 468 m 1
 185 451 180 432 194 421 c 0
 202 415 216 411 243 411 c 0
 267 411 280 414 286 417 c 0
 317 432 304 463 305 474 c 1
 305 472 306 486 306 484 c 1
 307 508 307 528 292 540 c 0
 285 546 270 550 244 550 c 0
 213 550 201 545 194 539 c 0
 170 521 183 489 184 480 c 1
 184 482 184 466 184 468 c 1
187 660 m 1
 187 641 188 628 197 620 c 0
 204 614 218 611 243 611 c 0
 271 611 284 614 292 620 c 0
 305 631 301 647 301 661 c 1
 301 658 301 670 302 668 c 1
 305 687 306 699 301 708 c 0
 295 719 278 723 245 723 c 0
 218 723 206 720 198 716 c 0
 178 705 186 684 186 670 c 1
 186 671 187 658 187 660 c 1
590 118 m 0
 590 159 582 196 614 233 c 0
 642 265 686 292 795 292 c 0
 863 292 904 276 929 260 c 0
 1009 205 998 104 998 73 c 0
 998 13 1001 -76 919 -128 c 0
 874 -155 809 -163 751 -163 c 0
 698 -163 662 -154 620 -134 c 1
 668 -70 l 1
 697 -84 717 -89 751 -89 c 0
 792 -89 826 -78 838 -64 c 0
 849 -50 858 -17 855 36 c 1
 855 33 854 38 854 35 c 1
 852 16 828 -26 753 -26 c 0
 668 -26 634 -1 619 15 c 0
 590 44 590 83 590 118 c 0
733 125 m 1
 736 46 740 43 748 38 c 0
 759 32 776 31 786 31 c 0
 800 31 825 34 841 59 c 0
 848 73 854 94 854 130 c 0
 854 175 861 219 792 219 c 0
 775 219 762 218 754 214 c 0
 716 198 732 156 731 131 c 1
 734 137 733 118 733 125 c 1
EndSplineSet
EndChar
StartChar: uF264E
Encoding: 992846 992846 81
Width: 1000
Flags: MW
LayerCount: 2
Fore
SplineSet
114 -131 m 0
 114 -124 118 -113 132 -97 c 2
 830 721 l 2
 840 732 854 748 868 748 c 0
 877 748 885 740 885 731 c 0
 885 722 876 712 871 706 c 2
 171 -121 l 2
 165 -129 146 -149 131 -149 c 0
 122 -149 114 -140 114 -131 c 0
76 625 m 1
 76 698 l 1
 205 699 257 740 291 773 c 1
 325 773 l 1
 325 420 l 1
 412 420 l 1
 412 347 l 1
 92 347 l 1
 92 420 l 1
 187 420 l 1
 187 639 l 1
 154 631 126 625 76 625 c 1
496 125 m 1
 496 198 l 1
 573 199 605 240 625 273 c 1
 645 273 l 1
 645 -80 l 1
 697 -80 l 1
 697 -153 l 1
 505 -153 l 1
 505 -80 l 1
 562 -80 l 1
 562 139 l 1
 542 131 526 125 496 125 c 1
705 67 m 1
 705 78 705 82 705 93 c 1
 707 180 717 264 785 286 c 0
 798 290 813 292 830 292 c 0
 861 292 896 284 919 254 c 0
 958 204 955 108 954 68 c 1
 954 72 954 66 954 69 c 1
 954 5 965 -129 872 -158 c 0
 859 -161 845 -163 829 -163 c 0
 681 -163 705 5 705 67 c 1
790 73 m 1
 790 -42 785 -76 814 -94 c 0
 818 -95 823 -99 830 -99 c 0
 829 -99 842 -100 854 -85 c 0
 877 -58 867 -12 869 77 c 1
 869 86 870 79 870 90 c 1
 870 124 871 182 863 201 c 0
 859 212 847 227 830 227 c 0
 771 227 790 132 790 92 c 1
 790 80 790 84 790 73 c 1
EndSplineSet
EndChar
StartChar: uF264F
Encoding: 992847 992847 82
Width: 1000
Flags: MW
LayerCount: 2
Fore
SplineSet
114 -131 m 0
 114 -124 118 -113 132 -97 c 2
 830 721 l 2
 840 732 854 748 868 748 c 0
 877 748 885 740 885 731 c 0
 885 722 876 712 871 706 c 2
 171 -121 l 2
 165 -129 146 -149 131 -149 c 0
 122 -149 114 -140 114 -131 c 0
45 369 m 1
 60 462 l 1
 60 462 121 431 171 431 c 2
 219 431 l 0
 245 431 265 432 278 440 c 0
 288 446 294 458 294 477 c 0
 294 495 288 507 278 514 c 4
 268 521 253 523 235 523 c 2
 182 523 l 1
 182 596 l 1
 218 600 239 599 258 620 c 0
 267 629 271 641 271 652 c 0
 271 679 254 683 232 683 c 0
 183 683 150 674 110 658 c 1
 60 736 l 1
 116 760 169 773 232 773 c 0
 360 773 411 724 411 650 c 0
 411 596 373 573 352 560 c 1
 389 551 441 529 441 475 c 0
 441 453 434 396 376 364 c 0
 326 336 268 336 212 336 c 2
 162 336 l 2
 112 336 45 369 45 369 c 1
496 125 m 1
 496 198 l 1
 573 199 605 240 625 273 c 1
 645 273 l 1
 645 -80 l 1
 697 -80 l 1
 697 -153 l 1
 505 -153 l 1
 505 -80 l 1
 562 -80 l 1
 562 139 l 1
 542 131 526 125 496 125 c 1
705 67 m 1
 705 78 705 82 705 93 c 1
 707 180 717 264 785 286 c 0
 798 290 813 292 830 292 c 0
 861 292 896 284 919 254 c 0
 958 204 955 108 954 68 c 1
 954 72 954 66 954 69 c 1
 954 5 965 -129 872 -158 c 0
 859 -161 845 -163 829 -163 c 0
 681 -163 705 5 705 67 c 1
790 73 m 1
 790 -42 785 -76 814 -94 c 0
 818 -95 823 -99 830 -99 c 0
 829 -99 842 -100 854 -85 c 0
 877 -58 867 -12 869 77 c 1
 869 86 870 79 870 90 c 1
 870 124 871 182 863 201 c 0
 859 212 847 227 830 227 c 0
 771 227 790 132 790 92 c 1
 790 80 790 84 790 73 c 1
EndSplineSet
EndChar
StartChar: uF2650
Encoding: 992848 992848 83
Width: 1000
Flags: MW
LayerCount: 2
Fore
SplineSet
114 -131 m 0
 114 -124 118 -113 132 -97 c 2
 830 721 l 2
 840 732 854 748 868 748 c 0
 877 748 885 740 885 731 c 0
 885 722 876 712 871 706 c 2
 171 -121 l 2
 165 -129 146 -149 131 -149 c 0
 122 -149 114 -140 114 -131 c 0
40 691 m 1
 40 779 l 1
 448 779 l 1
 448 696 l 1
 323 590 262 467 262 343 c 1
 117 343 l 1
 117 486 211 607 376 692 c 1
 40 691 l 1
496 125 m 1
 496 198 l 1
 573 199 605 240 625 273 c 1
 645 273 l 1
 645 -80 l 1
 697 -80 l 1
 697 -153 l 1
 505 -153 l 1
 505 -80 l 1
 562 -80 l 1
 562 139 l 1
 542 131 526 125 496 125 c 1
705 67 m 1
 705 78 705 82 705 93 c 1
 707 180 717 264 785 286 c 0
 798 290 813 292 830 292 c 0
 861 292 896 284 919 254 c 0
 958 204 955 108 954 68 c 1
 954 72 954 66 954 69 c 1
 954 5 965 -129 872 -158 c 0
 859 -161 845 -163 829 -163 c 0
 681 -163 705 5 705 67 c 1
790 73 m 1
 790 -42 785 -76 814 -94 c 0
 818 -95 823 -99 830 -99 c 0
 829 -99 842 -100 854 -85 c 0
 877 -58 867 -12 869 77 c 1
 869 86 870 79 870 90 c 1
 870 124 871 182 863 201 c 0
 859 212 847 227 830 227 c 0
 771 227 790 132 790 92 c 1
 790 80 790 84 790 73 c 1
EndSplineSet
EndChar
StartChar: uF2651
Encoding: 992849 992849 84
Width: 1000
Flags: MW
LayerCount: 2
Fore
SplineSet
114 -131 m 0
 114 -124 118 -113 132 -97 c 2
 830 721 l 2
 840 732 854 748 868 748 c 0
 877 748 885 740 885 731 c 0
 885 722 876 712 871 706 c 2
 171 -121 l 2
 165 -129 146 -149 131 -149 c 0
 122 -149 114 -140 114 -131 c 0
40 618 m 0
 40 659 32 696 64 733 c 0
 92 765 136 792 245 792 c 0
 313 792 354 776 379 760 c 0
 459 705 448 604 448 573 c 0
 448 513 451 424 369 372 c 0
 324 345 259 337 201 337 c 0
 148 337 112 346 70 366 c 1
 118 430 l 1
 147 416 167 411 201 411 c 0
 242 411 276 422 288 436 c 0
 299 450 308 483 305 536 c 1
 305 533 304 538 304 535 c 1
 302 516 278 474 203 474 c 0
 118 474 84 499 69 515 c 0
 40 544 40 583 40 618 c 0
183 625 m 1
 186 546 190 543 198 538 c 0
 209 532 226 531 236 531 c 0
 250 531 275 534 291 559 c 0
 298 573 304 594 304 630 c 0
 304 675 311 719 242 719 c 0
 225 719 212 718 204 714 c 0
 166 698 182 656 181 631 c 1
 184 637 183 618 183 625 c 1
496 125 m 1
 496 198 l 1
 573 199 605 240 625 273 c 1
 645 273 l 1
 645 -80 l 1
 697 -80 l 1
 697 -153 l 1
 505 -153 l 1
 505 -80 l 1
 562 -80 l 1
 562 139 l 1
 542 131 526 125 496 125 c 1
705 67 m 1
 705 78 705 82 705 93 c 1
 707 180 717 264 785 286 c 0
 798 290 813 292 830 292 c 0
 861 292 896 284 919 254 c 0
 958 204 955 108 954 68 c 1
 954 72 954 66 954 69 c 1
 954 5 965 -129 872 -158 c 0
 859 -161 845 -163 829 -163 c 0
 681 -163 705 5 705 67 c 1
790 73 m 1
 790 -42 785 -76 814 -94 c 0
 818 -95 823 -99 830 -99 c 0
 829 -99 842 -100 854 -85 c 0
 877 -58 867 -12 869 77 c 1
 869 86 870 79 870 90 c 1
 870 124 871 182 863 201 c 0
 859 212 847 227 830 227 c 0
 771 227 790 132 790 92 c 1
 790 80 790 84 790 73 c 1
EndSplineSet
EndChar
StartChar: uF2652
Encoding: 992850 992850 85
Width: 1000
Flags: MW
LayerCount: 2
Fore
SplineSet
114 -131 m 0
 114 -124 118 -113 132 -97 c 2
 830 721 l 2
 840 732 854 748 868 748 c 0
 877 748 885 740 885 731 c 0
 885 722 876 712 871 706 c 2
 171 -121 l 2
 165 -129 146 -149 131 -149 c 0
 122 -149 114 -140 114 -131 c 0
76 625 m 1
 76 698 l 1
 205 699 257 740 291 773 c 1
 325 773 l 1
 325 420 l 1
 412 420 l 1
 412 347 l 1
 92 347 l 1
 92 420 l 1
 187 420 l 1
 187 639 l 1
 154 631 126 625 76 625 c 1
496 125 m 1
 496 198 l 1
 573 199 605 240 625 273 c 1
 645 273 l 1
 645 -80 l 1
 697 -80 l 1
 697 -153 l 1
 505 -153 l 1
 505 -80 l 1
 562 -80 l 1
 562 139 l 1
 542 131 526 125 496 125 c 1
729 125 m 1
 729 198 l 1
 806 199 838 240 858 273 c 1
 878 273 l 1
 878 -80 l 1
 931 -80 l 1
 931 -153 l 1
 739 -153 l 1
 739 -80 l 1
 796 -80 l 1
 796 139 l 1
 776 131 759 125 729 125 c 1
EndSplineSet
EndChar
StartChar: uF2653
Encoding: 992851 992851 86
Width: 1000
Flags: MW
LayerCount: 2
Fore
SplineSet
114 -131 m 0
 114 -124 118 -113 132 -97 c 2
 830 721 l 2
 840 732 854 748 868 748 c 0
 877 748 885 740 885 731 c 0
 885 722 876 712 871 706 c 2
 171 -121 l 2
 165 -129 146 -149 131 -149 c 0
 122 -149 114 -140 114 -131 c 0
45 720 m 1
 101 754 151 773 226 773 c 0
 347 773 432 709 432 615 c 0
 432 535 335 534 263 507 c 0
 239 498 239 497 146 454 c 1
 280 454 l 1
 302 455 l 1
 432 455 l 1
 432 347 l 1
 54 347 l 1
 54 453 l 1
 153 506 l 2
 224 537 291 554 291 612 c 0
 291 647 259 672 211 672 c 0
 152 672 122 640 111 629 c 1
 45 720 l 1
496 125 m 1
 496 198 l 1
 573 199 605 240 625 273 c 1
 645 273 l 1
 645 -80 l 1
 697 -80 l 1
 697 -153 l 1
 505 -153 l 1
 505 -80 l 1
 562 -80 l 1
 562 139 l 1
 542 131 526 125 496 125 c 1
729 125 m 1
 729 198 l 1
 806 199 838 240 858 273 c 1
 878 273 l 1
 878 -80 l 1
 931 -80 l 1
 931 -153 l 1
 739 -153 l 1
 739 -80 l 1
 796 -80 l 1
 796 139 l 1
 776 131 759 125 729 125 c 1
EndSplineSet
EndChar
StartChar: uF2654
Encoding: 992852 992852 87
Width: 1000
Flags: MW
LayerCount: 2
Fore
SplineSet
114 -131 m 0
 114 -124 118 -113 132 -97 c 2
 830 721 l 2
 840 732 854 748 868 748 c 0
 877 748 885 740 885 731 c 0
 885 722 876 712 871 706 c 2
 171 -121 l 2
 165 -129 146 -149 131 -149 c 0
 122 -149 114 -140 114 -131 c 0
45 369 m 1
 60 462 l 1
 60 462 121 431 171 431 c 2
 219 431 l 0
 245 431 265 432 278 440 c 0
 288 446 294 458 294 477 c 0
 294 495 288 507 278 514 c 4
 268 521 253 523 235 523 c 2
 182 523 l 1
 182 596 l 1
 218 600 239 599 258 620 c 0
 267 629 271 641 271 652 c 0
 271 679 254 683 232 683 c 0
 183 683 150 674 110 658 c 1
 60 736 l 1
 116 760 169 773 232 773 c 0
 360 773 411 724 411 650 c 0
 411 596 373 573 352 560 c 1
 389 551 441 529 441 475 c 0
 441 453 434 396 376 364 c 0
 326 336 268 336 212 336 c 2
 162 336 l 2
 112 336 45 369 45 369 c 1
496 125 m 1
 496 198 l 1
 573 199 605 240 625 273 c 1
 645 273 l 1
 645 -80 l 1
 697 -80 l 1
 697 -153 l 1
 505 -153 l 1
 505 -80 l 1
 562 -80 l 1
 562 139 l 1
 542 131 526 125 496 125 c 1
729 125 m 1
 729 198 l 1
 806 199 838 240 858 273 c 1
 878 273 l 1
 878 -80 l 1
 931 -80 l 1
 931 -153 l 1
 739 -153 l 1
 739 -80 l 1
 796 -80 l 1
 796 139 l 1
 776 131 759 125 729 125 c 1
EndSplineSet
EndChar
StartChar: uF2657
Encoding: 992855 992855 90
Width: 1000
Flags: MW
LayerCount: 2
Fore
SplineSet
114 -131 m 0
 114 -124 118 -113 132 -97 c 2
 830 721 l 2
 840 732 854 748 868 748 c 0
 877 748 885 740 885 731 c 0
 885 722 876 712 871 706 c 2
 171 -121 l 2
 165 -129 146 -149 131 -149 c 0
 122 -149 114 -140 114 -131 c 0
40 561 m 0
 40 674 68 705 83 724 c 0
 126 772 203 792 296 792 c 0
 323 792 340 791 375 779 c 1
 375 709 l 1
 347 719 329 722 300 722 c 0
 231 722 203 699 199 692 c 0
 193 681 183 659 184 595 c 1
 193 621 216 655 284 655 c 0
 370 655 401 631 417 616 c 0
 450 585 449 543 448 503 c 1
 448 505 448 500 448 502 c 1
 448 476 454 436 431 402 c 0
 373 333 283 337 246 337 c 0
 169 337 131 356 106 372 c 0
 34 429 40 526 40 561 c 0
184 504 m 0
 184 500 184 496 184 492 c 0
 182 446 188 413 251 413 c 0
 300 413 305 431 305 462 c 0
 305 475 303 489 304 501 c 1
 304 497 304 522 304 519 c 1
 304 540 308 563 302 577 c 0
 302 585 292 597 251 597 c 0
 197 597 185 560 184 523 c 0
 184 516 184 511 184 504 c 0
496 125 m 1
 496 198 l 1
 573 199 605 240 625 273 c 1
 645 273 l 1
 645 -80 l 1
 697 -80 l 1
 697 -153 l 1
 505 -153 l 1
 505 -80 l 1
 562 -80 l 1
 562 139 l 1
 542 131 526 125 496 125 c 1
729 125 m 1
 729 198 l 1
 806 199 838 240 858 273 c 1
 878 273 l 1
 878 -80 l 1
 931 -80 l 1
 931 -153 l 1
 739 -153 l 1
 739 -80 l 1
 796 -80 l 1
 796 139 l 1
 776 131 759 125 729 125 c 1
EndSplineSet
EndChar
StartChar: uF2659
Encoding: 992857 992857 92
Width: 1000
Flags: MW
LayerCount: 2
Fore
SplineSet
114 -131 m 0
 114 -124 118 -113 132 -97 c 2
 830 721 l 2
 840 732 854 748 868 748 c 0
 877 748 885 740 885 731 c 0
 885 722 876 712 871 706 c 2
 171 -121 l 2
 165 -129 146 -149 131 -149 c 0
 122 -149 114 -140 114 -131 c 0
40 477 m 0
 40 534 70 570 139 581 c 1
 144 582 53 584 53 670 c 0
 53 729 73 792 244 792 c 1
 243 792 244 792 243 792 c 1
 418 793 435 729 435 669 c 0
 435 572 313 575 349 581 c 1
 433 565 448 525 448 477 c 0
 448 408 427 337 244 337 c 0
 61 337 40 409 40 477 c 0
184 468 m 1
 185 451 180 432 194 421 c 0
 202 415 216 411 243 411 c 0
 267 411 280 414 286 417 c 0
 317 432 304 463 305 474 c 1
 305 472 306 486 306 484 c 1
 307 508 307 528 292 540 c 0
 285 546 270 550 244 550 c 0
 213 550 201 545 194 539 c 0
 170 521 183 489 184 480 c 1
 184 482 184 466 184 468 c 1
187 660 m 1
 187 641 188 628 197 620 c 0
 204 614 218 611 243 611 c 0
 271 611 284 614 292 620 c 0
 305 631 301 647 301 661 c 1
 301 658 301 670 302 668 c 1
 305 687 306 699 301 708 c 0
 295 719 278 723 245 723 c 0
 218 723 206 720 198 716 c 0
 178 705 186 684 186 670 c 1
 186 671 187 658 187 660 c 1
496 125 m 1
 496 198 l 1
 573 199 605 240 625 273 c 1
 645 273 l 1
 645 -80 l 1
 697 -80 l 1
 697 -153 l 1
 505 -153 l 1
 505 -80 l 1
 562 -80 l 1
 562 139 l 1
 542 131 526 125 496 125 c 1
729 125 m 1
 729 198 l 1
 806 199 838 240 858 273 c 1
 878 273 l 1
 878 -80 l 1
 931 -80 l 1
 931 -153 l 1
 739 -153 l 1
 739 -80 l 1
 796 -80 l 1
 796 139 l 1
 776 131 759 125 729 125 c 1
EndSplineSet
EndChar
StartChar: uF265A
Encoding: 992858 992858 93
Width: 1000
Flags: MW
LayerCount: 2
Fore
SplineSet
114 -131 m 0
 114 -124 118 -113 132 -97 c 2
 830 721 l 2
 840 732 854 748 868 748 c 0
 877 748 885 740 885 731 c 0
 885 722 876 712 871 706 c 2
 171 -121 l 2
 165 -129 146 -149 131 -149 c 0
 122 -149 114 -140 114 -131 c 0
40 618 m 0
 40 659 32 696 64 733 c 0
 92 765 136 792 245 792 c 0
 313 792 354 776 379 760 c 0
 459 705 448 604 448 573 c 0
 448 513 451 424 369 372 c 0
 324 345 259 337 201 337 c 0
 148 337 112 346 70 366 c 1
 118 430 l 1
 147 416 167 411 201 411 c 0
 242 411 276 422 288 436 c 0
 299 450 308 483 305 536 c 1
 305 533 304 538 304 535 c 1
 302 516 278 474 203 474 c 0
 118 474 84 499 69 515 c 0
 40 544 40 583 40 618 c 0
183 625 m 1
 186 546 190 543 198 538 c 0
 209 532 226 531 236 531 c 0
 250 531 275 534 291 559 c 0
 298 573 304 594 304 630 c 0
 304 675 311 719 242 719 c 0
 225 719 212 718 204 714 c 0
 166 698 182 656 181 631 c 1
 184 637 183 618 183 625 c 1
496 125 m 1
 496 198 l 1
 573 199 605 240 625 273 c 1
 645 273 l 1
 645 -80 l 1
 697 -80 l 1
 697 -153 l 1
 505 -153 l 1
 505 -80 l 1
 562 -80 l 1
 562 139 l 1
 542 131 526 125 496 125 c 1
729 125 m 1
 729 198 l 1
 806 199 838 240 858 273 c 1
 878 273 l 1
 878 -80 l 1
 931 -80 l 1
 931 -153 l 1
 739 -153 l 1
 739 -80 l 1
 796 -80 l 1
 796 139 l 1
 776 131 759 125 729 125 c 1
EndSplineSet
EndChar
StartChar: uF265B
Encoding: 992859 992859 94
Width: 1000
Flags: MW
LayerCount: 2
Fore
SplineSet
114 -131 m 0
 114 -124 118 -113 132 -97 c 2
 830 721 l 2
 840 732 854 748 868 748 c 0
 877 748 885 740 885 731 c 0
 885 722 876 712 871 706 c 2
 171 -121 l 2
 165 -129 146 -149 131 -149 c 0
 122 -149 114 -140 114 -131 c 0
50 625 m 1
 50 698 l 1
 135 699 170 740 192 773 c 1
 214 773 l 1
 214 420 l 1
 272 420 l 1
 272 347 l 1
 61 347 l 1
 61 420 l 1
 123 420 l 1
 123 639 l 1
 101 631 83 625 50 625 c 1
280 567 m 1
 280 578 280 582 280 593 c 1
 282 680 294 764 369 786 c 0
 384 790 400 792 418 792 c 0
 452 792 489 784 515 754 c 0
 558 704 555 608 554 568 c 1
 554 572 554 566 554 569 c 1
 554 505 567 371 465 342 c 0
 450 339 435 337 417 337 c 0
 254 337 280 505 280 567 c 1
374 573 m 1
 374 458 369 424 401 406 c 0
 405 405 411 401 418 401 c 0
 417 401 432 400 445 415 c 0
 470 442 459 488 461 577 c 1
 461 586 462 579 462 590 c 1
 462 624 463 682 454 701 c 0
 450 712 437 727 418 727 c 0
 353 727 374 632 374 592 c 1
 374 580 374 584 374 573 c 1
496 125 m 1
 496 198 l 1
 573 199 605 240 625 273 c 1
 645 273 l 1
 645 -80 l 1
 697 -80 l 1
 697 -153 l 1
 505 -153 l 1
 505 -80 l 1
 562 -80 l 1
 562 139 l 1
 542 131 526 125 496 125 c 1
729 125 m 1
 729 198 l 1
 806 199 838 240 858 273 c 1
 878 273 l 1
 878 -80 l 1
 931 -80 l 1
 931 -153 l 1
 739 -153 l 1
 739 -80 l 1
 796 -80 l 1
 796 139 l 1
 776 131 759 125 729 125 c 1
EndSplineSet
EndChar
StartChar: uF265C
Encoding: 992860 992860 95
Width: 1000
Flags: MW
LayerCount: 2
Fore
SplineSet
114 -131 m 0
 114 -124 118 -113 132 -97 c 2
 830 721 l 2
 840 732 854 748 868 748 c 0
 877 748 885 740 885 731 c 0
 885 722 876 712 871 706 c 2
 171 -121 l 2
 165 -129 146 -149 131 -149 c 0
 122 -149 114 -140 114 -131 c 0
76 625 m 1
 76 698 l 1
 205 699 257 740 291 773 c 1
 325 773 l 1
 325 420 l 1
 412 420 l 1
 412 347 l 1
 92 347 l 1
 92 420 l 1
 187 420 l 1
 187 639 l 1
 154 631 126 625 76 625 c 1
496 125 m 1
 496 198 l 1
 573 199 605 240 625 273 c 1
 645 273 l 1
 645 -80 l 1
 697 -80 l 1
 697 -153 l 1
 505 -153 l 1
 505 -80 l 1
 562 -80 l 1
 562 139 l 1
 542 131 526 125 496 125 c 1
710 220 m 1
 744 254 774 273 819 273 c 0
 892 273 943 209 943 115 c 0
 943 35 884 34 841 7 c 0
 827 -2 827 -3 771 -46 c 1
 851 -46 l 1
 865 -45 l 1
 943 -45 l 1
 943 -153 l 1
 716 -153 l 1
 716 -47 l 1
 775 6 l 2
 818 37 858 54 858 112 c 0
 858 147 839 172 810 172 c 0
 775 172 757 140 750 129 c 1
 710 220 l 1
EndSplineSet
EndChar
StartChar: uF265D
Encoding: 992861 992861 96
Width: 1000
Flags: MW
LayerCount: 2
Fore
SplineSet
114 -131 m 0
 114 -124 118 -113 132 -97 c 2
 830 721 l 2
 840 732 854 748 868 748 c 0
 877 748 885 740 885 731 c 0
 885 722 876 712 871 706 c 2
 171 -121 l 2
 165 -129 146 -149 131 -149 c 0
 122 -149 114 -140 114 -131 c 0
30 401 m 1
 83 465 l 1
 89 459 93 453 100 447 c 0
 113 436 130 427 148 421 c 0
 166 415 188 412 212 412 c 0
 255 412 271 419 278 428 c 0
 292 443 289 465 289 487 c 1
 289 484 289 504 289 501 c 1
 291 521 295 545 283 560 c 0
 280 566 272 572 251 572 c 0
 193 572 173 527 172 527 c 1
 71 527 l 1
 71 779 l 1
 407 779 l 1
 407 702 l 1
 207 702 l 1
 207 629 l 1
 218 630 231 631 256 631 c 0
 309 631 352 626 383 610 c 0
 420 591 440 547 440 486 c 0
 440 429 420 396 389 375 c 0
 344 344 278 337 217 337 c 0
 183 337 155 341 134 346 c 0
 71 362 40 391 30 401 c 1
496 125 m 1
 496 198 l 1
 573 199 605 240 625 273 c 1
 645 273 l 1
 645 -80 l 1
 697 -80 l 1
 697 -153 l 1
 505 -153 l 1
 505 -80 l 1
 562 -80 l 1
 562 139 l 1
 542 131 526 125 496 125 c 1
710 220 m 1
 744 254 774 273 819 273 c 0
 892 273 943 209 943 115 c 0
 943 35 884 34 841 7 c 0
 827 -2 827 -3 771 -46 c 1
 851 -46 l 1
 865 -45 l 1
 943 -45 l 1
 943 -153 l 1
 716 -153 l 1
 716 -47 l 1
 775 6 l 2
 818 37 858 54 858 112 c 0
 858 147 839 172 810 172 c 0
 775 172 757 140 750 129 c 1
 710 220 l 1
EndSplineSet
EndChar
StartChar: uF265E
Encoding: 992862 992862 97
Width: 1000
Flags: MW
LayerCount: 2
Fore
SplineSet
114 -131 m 0
 114 -124 118 -113 132 -97 c 2
 830 721 l 2
 840 732 854 748 868 748 c 0
 877 748 885 740 885 731 c 0
 885 722 876 712 871 706 c 2
 171 -121 l 2
 165 -129 146 -149 131 -149 c 0
 122 -149 114 -140 114 -131 c 0
40 691 m 1
 40 779 l 1
 448 779 l 1
 448 696 l 1
 323 590 262 467 262 343 c 1
 117 343 l 1
 117 486 211 607 376 692 c 1
 40 691 l 1
496 125 m 1
 496 198 l 1
 573 199 605 240 625 273 c 1
 645 273 l 1
 645 -80 l 1
 697 -80 l 1
 697 -153 l 1
 505 -153 l 1
 505 -80 l 1
 562 -80 l 1
 562 139 l 1
 542 131 526 125 496 125 c 1
710 220 m 1
 744 254 774 273 819 273 c 0
 892 273 943 209 943 115 c 0
 943 35 884 34 841 7 c 0
 827 -2 827 -3 771 -46 c 1
 851 -46 l 1
 865 -45 l 1
 943 -45 l 1
 943 -153 l 1
 716 -153 l 1
 716 -47 l 1
 775 6 l 2
 818 37 858 54 858 112 c 0
 858 147 839 172 810 172 c 0
 775 172 757 140 750 129 c 1
 710 220 l 1
EndSplineSet
EndChar
StartChar: uF265F
Encoding: 992863 992863 98
Width: 1000
Flags: MW
LayerCount: 2
Fore
SplineSet
114 -131 m 0
 114 -124 118 -113 132 -97 c 2
 830 721 l 2
 840 732 854 748 868 748 c 0
 877 748 885 740 885 731 c 0
 885 722 876 712 871 706 c 2
 171 -121 l 2
 165 -129 146 -149 131 -149 c 0
 122 -149 114 -140 114 -131 c 0
50 625 m 1
 50 698 l 1
 135 699 170 740 192 773 c 1
 214 773 l 1
 214 420 l 1
 272 420 l 1
 272 347 l 1
 61 347 l 1
 61 420 l 1
 123 420 l 1
 123 639 l 1
 101 631 83 625 50 625 c 1
307 625 m 1
 307 698 l 1
 392 699 427 740 449 773 c 1
 471 773 l 1
 471 420 l 1
 529 420 l 1
 529 347 l 1
 317 347 l 1
 317 420 l 1
 380 420 l 1
 380 639 l 1
 358 631 340 625 307 625 c 1
496 125 m 1
 496 198 l 1
 573 199 605 240 625 273 c 1
 645 273 l 1
 645 -80 l 1
 697 -80 l 1
 697 -153 l 1
 505 -153 l 1
 505 -80 l 1
 562 -80 l 1
 562 139 l 1
 542 131 526 125 496 125 c 1
710 220 m 1
 744 254 774 273 819 273 c 0
 892 273 943 209 943 115 c 0
 943 35 884 34 841 7 c 0
 827 -2 827 -3 771 -46 c 1
 851 -46 l 1
 865 -45 l 1
 943 -45 l 1
 943 -153 l 1
 716 -153 l 1
 716 -47 l 1
 775 6 l 2
 818 37 858 54 858 112 c 0
 858 147 839 172 810 172 c 0
 775 172 757 140 750 129 c 1
 710 220 l 1
EndSplineSet
EndChar
StartChar: uF2660
Encoding: 992864 992864 99
Width: 1000
Flags: MW
LayerCount: 2
Fore
SplineSet
118 -131 m 0
 118 -124 121 -115 132 -97 c 2
 707 721 l 2
 717 732 726 748 740 748 c 0
 749 748 757 740 757 731 c 0
 757 722 753 712 748 706 c 2
 171 -121 l 2
 166 -129 150 -149 135 -149 c 0
 126 -149 118 -140 118 -131 c 0
76 625 m 1
 76 698 l 1
 205 699 257 740 291 773 c 1
 325 773 l 1
 325 420 l 1
 412 420 l 1
 412 347 l 1
 92 347 l 1
 92 420 l 1
 187 420 l 1
 187 639 l 1
 154 631 126 625 76 625 c 1
434 125 m 1
 434 198 l 1
 492 199 516 240 531 273 c 1
 546 273 l 1
 546 -80 l 1
 585 -80 l 1
 585 -153 l 1
 441 -153 l 1
 441 -80 l 1
 484 -80 l 1
 484 139 l 1
 469 131 456 125 434 125 c 1
591 67 m 1
 591 78 591 82 591 93 c 1
 592 180 601 264 652 286 c 0
 662 290 672 292 685 292 c 0
 708 292 733 284 751 254 c 0
 780 204 778 108 778 68 c 1
 778 72 778 66 778 69 c 1
 778 5 787 -129 717 -158 c 0
 707 -161 696 -163 684 -163 c 0
 573 -163 591 5 591 67 c 1
655 73 m 1
 655 -42 651 -76 673 -94 c 0
 676 -95 680 -99 685 -99 c 0
 685 -99 694 -100 703 -85 c 0
 720 -58 713 -12 714 77 c 1
 714 86 715 79 715 90 c 1
 715 124 716 182 710 201 c 0
 707 212 698 227 685 227 c 0
 641 227 655 132 655 92 c 1
 655 80 655 84 655 73 c 1
789 67 m 1
 789 78 789 82 789 93 c 1
 790 180 798 264 849 286 c 0
 859 290 869 292 882 292 c 0
 905 292 931 284 949 254 c 0
 978 204 976 108 976 68 c 1
 976 72 976 66 976 69 c 1
 976 5 984 -129 914 -158 c 0
 904 -161 894 -163 882 -163 c 0
 771 -163 789 5 789 67 c 1
853 73 m 1
 853 -42 849 -76 871 -94 c 0
 874 -95 877 -99 882 -99 c 0
 882 -99 892 -100 901 -85 c 0
 918 -58 911 -12 912 77 c 1
 912 86 913 79 913 90 c 1
 913 124 913 182 907 201 c 0
 904 212 895 227 882 227 c 0
 838 227 853 132 853 92 c 1
 853 80 853 84 853 73 c 1
EndSplineSet
EndChar
StartChar: uF2661
Encoding: 992865 992865 100
Width: 1000
Flags: MW
LayerCount: 2
Fore
SplineSet
52 278 m 0
 52 305 81 308 92 308 c 2
 905 308 l 2
 915 308 924 308 933 304 c 0
 943 299 950 288 950 277 c 0
 950 266 944 247 910 247 c 2
 90 247 l 1
 56 248 52 268 52 278 c 0
293 567 m 1
 293 578 293 582 293 593 c 1
 296 680 313 764 427 786 c 0
 449 790 473 792 501 792 c 0
 552 792 610 784 649 754 c 0
 714 704 709 608 708 568 c 1
 708 572 708 566 708 569 c 1
 708 505 727 371 572 342 c 0
 550 339 527 337 500 337 c 0
 253 337 293 505 293 567 c 1
435 573 m 1
 435 458 426 424 475 406 c 0
 481 405 490 401 501 401 c 0
 500 401 522 400 542 415 c 0
 580 442 563 488 566 577 c 1
 566 586 568 579 568 590 c 1
 568 624 569 682 556 701 c 0
 550 712 530 727 501 727 c 0
 403 727 435 632 435 592 c 1
 435 580 435 584 435 573 c 1
302 -191 m 1
 317 -98 l 1
 317 -98 378 -129 428 -129 c 2
 476 -129 l 0
 502 -129 522 -128 535 -120 c 0
 545 -114 551 -102 551 -83 c 0
 551 -65 545 -53 535 -46 c 4
 525 -39 510 -37 492 -37 c 2
 439 -37 l 1
 439 36 l 1
 475 40 496 39 515 60 c 0
 524 69 528 81 528 92 c 0
 528 119 511 123 489 123 c 0
 440 123 407 114 367 98 c 1
 317 176 l 1
 373 200 426 213 489 213 c 0
 617 213 668 164 668 90 c 0
 668 36 630 13 609 0 c 1
 646 -9 698 -31 698 -85 c 0
 698 -107 691 -164 633 -196 c 0
 583 -224 525 -224 469 -224 c 2
 419 -224 l 2
 369 -224 302 -191 302 -191 c 1
EndSplineSet
EndChar
StartChar: uF2662
Encoding: 992866 992866 101
Width: 1000
Flags: MW
LayerCount: 2
Fore
SplineSet
52 278 m 0
 52 305 81 308 92 308 c 2
 905 308 l 2
 915 308 924 308 933 304 c 0
 943 299 950 288 950 277 c 0
 950 266 944 247 910 247 c 2
 90 247 l 1
 56 248 52 268 52 278 c 0
332 625 m 1
 332 698 l 1
 461 699 513 740 547 773 c 1
 581 773 l 1
 581 420 l 1
 668 420 l 1
 668 347 l 1
 348 347 l 1
 348 420 l 1
 443 420 l 1
 443 639 l 1
 410 631 382 625 332 625 c 1
306 160 m 1
 362 194 413 213 488 213 c 0
 609 213 694 149 694 55 c 0
 694 -25 596 -26 524 -53 c 0
 500 -62 501 -63 408 -106 c 1
 542 -106 l 1
 564 -105 l 1
 694 -105 l 1
 694 -213 l 1
 316 -213 l 1
 316 -107 l 1
 414 -54 l 2
 485 -23 552 -6 552 52 c 0
 552 87 520 112 472 112 c 0
 413 112 383 80 372 69 c 1
 306 160 l 1
EndSplineSet
EndChar
StartChar: uF2663
Encoding: 992867 992867 102
Width: 1000
Flags: MW
LayerCount: 2
Fore
SplineSet
52 278 m 0
 52 305 81 308 92 308 c 2
 905 308 l 2
 915 308 924 308 933 304 c 0
 943 299 950 288 950 277 c 0
 950 266 944 247 910 247 c 2
 90 247 l 1
 56 248 52 268 52 278 c 0
332 625 m 1
 332 698 l 1
 461 699 513 740 547 773 c 1
 581 773 l 1
 581 420 l 1
 668 420 l 1
 668 347 l 1
 348 347 l 1
 348 420 l 1
 443 420 l 1
 443 639 l 1
 410 631 382 625 332 625 c 1
302 -191 m 1
 317 -98 l 1
 317 -98 378 -129 428 -129 c 2
 476 -129 l 0
 502 -129 522 -128 535 -120 c 0
 545 -114 551 -102 551 -83 c 0
 551 -65 545 -53 535 -46 c 4
 525 -39 510 -37 492 -37 c 2
 439 -37 l 1
 439 36 l 1
 475 40 496 39 515 60 c 0
 524 69 528 81 528 92 c 0
 528 119 511 123 489 123 c 0
 440 123 407 114 367 98 c 1
 317 176 l 1
 373 200 426 213 489 213 c 0
 617 213 668 164 668 90 c 0
 668 36 630 13 609 0 c 1
 646 -9 698 -31 698 -85 c 0
 698 -107 691 -164 633 -196 c 0
 583 -224 525 -224 469 -224 c 2
 419 -224 l 2
 369 -224 302 -191 302 -191 c 1
EndSplineSet
EndChar
StartChar: uF2664
Encoding: 992868 992868 103
Width: 1000
Flags: MW
LayerCount: 2
Fore
SplineSet
52 278 m 0
 52 305 81 308 92 308 c 2
 905 308 l 2
 915 308 924 308 933 304 c 0
 943 299 950 288 950 277 c 0
 950 266 944 247 910 247 c 2
 90 247 l 1
 56 248 52 268 52 278 c 0
306 720 m 1
 362 754 413 773 488 773 c 0
 609 773 694 709 694 615 c 0
 694 535 596 534 524 507 c 0
 500 498 501 497 408 454 c 1
 542 454 l 1
 564 455 l 1
 694 455 l 1
 694 347 l 1
 316 347 l 1
 316 453 l 1
 414 506 l 2
 485 537 552 554 552 612 c 0
 552 647 520 672 472 672 c 0
 413 672 383 640 372 629 c 1
 306 720 l 1
302 -191 m 1
 317 -98 l 1
 317 -98 378 -129 428 -129 c 2
 476 -129 l 0
 502 -129 522 -128 535 -120 c 0
 545 -114 551 -102 551 -83 c 0
 551 -65 545 -53 535 -46 c 4
 525 -39 510 -37 492 -37 c 2
 439 -37 l 1
 439 36 l 1
 475 40 496 39 515 60 c 0
 524 69 528 81 528 92 c 0
 528 119 511 123 489 123 c 0
 440 123 407 114 367 98 c 1
 317 176 l 1
 373 200 426 213 489 213 c 0
 617 213 668 164 668 90 c 0
 668 36 630 13 609 0 c 1
 646 -9 698 -31 698 -85 c 0
 698 -107 691 -164 633 -196 c 0
 583 -224 525 -224 469 -224 c 2
 419 -224 l 2
 369 -224 302 -191 302 -191 c 1
EndSplineSet
EndChar
StartChar: uF2665
Encoding: 992869 992869 104
Width: 1000
Flags: MW
LayerCount: 2
Fore
SplineSet
52 278 m 0
 52 305 81 308 92 308 c 2
 905 308 l 2
 915 308 924 308 933 304 c 0
 943 299 950 288 950 277 c 0
 950 266 944 247 910 247 c 2
 90 247 l 1
 56 248 52 268 52 278 c 0
332 625 m 1
 332 698 l 1
 461 699 513 740 547 773 c 1
 581 773 l 1
 581 420 l 1
 668 420 l 1
 668 347 l 1
 348 347 l 1
 348 420 l 1
 443 420 l 1
 443 639 l 1
 410 631 382 625 332 625 c 1
286 -124 m 1
 286 -44 l 1
 286 -48 284 -49 280 -53 c 1
 488 219 l 1
 646 219 l 1
 646 -48 l 1
 720 -48 l 1
 720 -124 l 1
 646 -124 l 1
 646 -210 l 1
 522 -210 l 1
 522 -124 l 1
 286 -124 l 1
386 -48 m 1
 526 -48 l 1
 526 127 l 1
 509 97 483 71 386 -48 c 1
EndSplineSet
EndChar
StartChar: uF2667
Encoding: 992871 992871 106
Width: 1000
Flags: MW
LayerCount: 2
Fore
SplineSet
52 278 m 0
 52 305 81 308 92 308 c 2
 905 308 l 2
 915 308 924 308 933 304 c 0
 943 299 950 288 950 277 c 0
 950 266 944 247 910 247 c 2
 90 247 l 1
 56 248 52 268 52 278 c 0
332 625 m 1
 332 698 l 1
 461 699 513 740 547 773 c 1
 581 773 l 1
 581 420 l 1
 668 420 l 1
 668 347 l 1
 348 347 l 1
 348 420 l 1
 443 420 l 1
 443 639 l 1
 410 631 382 625 332 625 c 1
295 -159 m 1
 348 -95 l 1
 354 -101 358 -107 365 -113 c 0
 378 -124 395 -133 413 -139 c 0
 431 -145 453 -148 477 -148 c 0
 520 -148 536 -141 543 -132 c 0
 557 -117 554 -95 554 -73 c 1
 554 -76 554 -56 554 -59 c 1
 556 -39 560 -15 548 0 c 0
 545 6 537 12 516 12 c 0
 458 12 438 -33 437 -33 c 1
 336 -33 l 1
 336 219 l 1
 672 219 l 1
 672 142 l 1
 472 142 l 1
 472 69 l 1
 483 70 496 71 521 71 c 0
 574 71 617 66 648 50 c 0
 685 31 705 -13 705 -74 c 0
 705 -131 685 -164 654 -185 c 0
 609 -216 543 -223 482 -223 c 0
 448 -223 420 -219 399 -214 c 0
 336 -198 305 -169 295 -159 c 1
EndSplineSet
EndChar
StartChar: uF2668
Encoding: 992872 992872 107
Width: 1000
Flags: MW
LayerCount: 2
Fore
SplineSet
52 278 m 0
 52 305 81 308 92 308 c 2
 905 308 l 2
 915 308 924 308 933 304 c 0
 943 299 950 288 950 277 c 0
 950 266 944 247 910 247 c 2
 90 247 l 1
 56 248 52 268 52 278 c 0
306 720 m 1
 362 754 413 773 488 773 c 0
 609 773 694 709 694 615 c 0
 694 535 596 534 524 507 c 0
 500 498 501 497 408 454 c 1
 542 454 l 1
 564 455 l 1
 694 455 l 1
 694 347 l 1
 316 347 l 1
 316 453 l 1
 414 506 l 2
 485 537 552 554 552 612 c 0
 552 647 520 672 472 672 c 0
 413 672 383 640 372 629 c 1
 306 720 l 1
295 -159 m 1
 348 -95 l 1
 354 -101 358 -107 365 -113 c 0
 378 -124 395 -133 413 -139 c 0
 431 -145 453 -148 477 -148 c 0
 520 -148 536 -141 543 -132 c 0
 557 -117 554 -95 554 -73 c 1
 554 -76 554 -56 554 -59 c 1
 556 -39 560 -15 548 0 c 0
 545 6 537 12 516 12 c 0
 458 12 438 -33 437 -33 c 1
 336 -33 l 1
 336 219 l 1
 672 219 l 1
 672 142 l 1
 472 142 l 1
 472 69 l 1
 483 70 496 71 521 71 c 0
 574 71 617 66 648 50 c 0
 685 31 705 -13 705 -74 c 0
 705 -131 685 -164 654 -185 c 0
 609 -216 543 -223 482 -223 c 0
 448 -223 420 -219 399 -214 c 0
 336 -198 305 -169 295 -159 c 1
EndSplineSet
EndChar
StartChar: uF2669
Encoding: 992873 992873 108
Width: 1000
Flags: MW
LayerCount: 2
Fore
SplineSet
52 278 m 0
 52 305 81 308 92 308 c 2
 905 308 l 2
 915 308 924 308 933 304 c 0
 943 299 950 288 950 277 c 0
 950 266 944 247 910 247 c 2
 90 247 l 1
 56 248 52 268 52 278 c 0
302 369 m 1
 317 462 l 1
 317 462 378 431 428 431 c 2
 476 431 l 0
 502 431 522 432 535 440 c 0
 545 446 551 458 551 477 c 0
 551 495 545 507 535 514 c 4
 525 521 510 523 492 523 c 2
 439 523 l 1
 439 596 l 1
 475 600 496 599 515 620 c 0
 524 629 528 641 528 652 c 0
 528 679 511 683 489 683 c 0
 440 683 407 674 367 658 c 1
 317 736 l 1
 373 760 426 773 489 773 c 0
 617 773 668 724 668 650 c 0
 668 596 630 573 609 560 c 1
 646 551 698 529 698 475 c 0
 698 453 691 396 633 364 c 0
 583 336 525 336 469 336 c 2
 419 336 l 2
 369 336 302 369 302 369 c 1
295 -159 m 1
 348 -95 l 1
 354 -101 358 -107 365 -113 c 0
 378 -124 395 -133 413 -139 c 0
 431 -145 453 -148 477 -148 c 0
 520 -148 536 -141 543 -132 c 0
 557 -117 554 -95 554 -73 c 1
 554 -76 554 -56 554 -59 c 1
 556 -39 560 -15 548 0 c 0
 545 6 537 12 516 12 c 0
 458 12 438 -33 437 -33 c 1
 336 -33 l 1
 336 219 l 1
 672 219 l 1
 672 142 l 1
 472 142 l 1
 472 69 l 1
 483 70 496 71 521 71 c 0
 574 71 617 66 648 50 c 0
 685 31 705 -13 705 -74 c 0
 705 -131 685 -164 654 -185 c 0
 609 -216 543 -223 482 -223 c 0
 448 -223 420 -219 399 -214 c 0
 336 -198 305 -169 295 -159 c 1
EndSplineSet
EndChar
StartChar: uF266A
Encoding: 992874 992874 109
Width: 1000
Flags: MW
LayerCount: 2
Fore
SplineSet
52 278 m 0
 52 305 81 308 92 308 c 2
 905 308 l 2
 915 308 924 308 933 304 c 0
 943 299 950 288 950 277 c 0
 950 266 944 247 910 247 c 2
 90 247 l 1
 56 248 52 268 52 278 c 0
286 436 m 1
 286 516 l 1
 286 512 284 511 280 507 c 1
 488 779 l 1
 646 779 l 1
 646 512 l 1
 720 512 l 1
 720 436 l 1
 646 436 l 1
 646 350 l 1
 522 350 l 1
 522 436 l 1
 286 436 l 1
386 512 m 1
 526 512 l 1
 526 687 l 1
 509 657 483 631 386 512 c 1
295 -159 m 1
 348 -95 l 1
 354 -101 358 -107 365 -113 c 0
 378 -124 395 -133 413 -139 c 0
 431 -145 453 -148 477 -148 c 0
 520 -148 536 -141 543 -132 c 0
 557 -117 554 -95 554 -73 c 1
 554 -76 554 -56 554 -59 c 1
 556 -39 560 -15 548 0 c 0
 545 6 537 12 516 12 c 0
 458 12 438 -33 437 -33 c 1
 336 -33 l 1
 336 219 l 1
 672 219 l 1
 672 142 l 1
 472 142 l 1
 472 69 l 1
 483 70 496 71 521 71 c 0
 574 71 617 66 648 50 c 0
 685 31 705 -13 705 -74 c 0
 705 -131 685 -164 654 -185 c 0
 609 -216 543 -223 482 -223 c 0
 448 -223 420 -219 399 -214 c 0
 336 -198 305 -169 295 -159 c 1
EndSplineSet
EndChar
StartChar: uF266B
Encoding: 992875 992875 110
Width: 1000
Flags: MW
LayerCount: 2
Fore
SplineSet
52 278 m 0
 52 305 81 308 92 308 c 2
 905 308 l 2
 915 308 924 308 933 304 c 0
 943 299 950 288 950 277 c 0
 950 266 944 247 910 247 c 2
 90 247 l 1
 56 248 52 268 52 278 c 0
332 625 m 1
 332 698 l 1
 461 699 513 740 547 773 c 1
 581 773 l 1
 581 420 l 1
 668 420 l 1
 668 347 l 1
 348 347 l 1
 348 420 l 1
 443 420 l 1
 443 639 l 1
 410 631 382 625 332 625 c 1
296 1 m 0
 296 114 324 145 339 164 c 0
 382 212 459 232 552 232 c 0
 579 232 596 231 631 219 c 1
 631 149 l 1
 603 159 585 162 556 162 c 0
 487 162 459 139 455 132 c 0
 449 121 439 99 440 35 c 1
 449 61 472 95 540 95 c 0
 626 95 657 71 673 56 c 0
 706 25 705 -17 704 -57 c 1
 704 -55 704 -60 704 -58 c 1
 704 -84 710 -124 687 -158 c 0
 629 -227 539 -223 502 -223 c 0
 425 -223 387 -204 362 -188 c 0
 290 -131 296 -34 296 1 c 0
440 -56 m 0
 440 -60 440 -64 440 -68 c 0
 438 -114 444 -147 507 -147 c 0
 556 -147 561 -129 561 -98 c 0
 561 -85 559 -71 560 -59 c 1
 560 -63 560 -38 560 -41 c 1
 560 -20 564 3 558 17 c 0
 558 25 548 37 507 37 c 0
 453 37 441 0 440 -37 c 0
 440 -44 440 -49 440 -56 c 0
EndSplineSet
EndChar
StartChar: uF266C
Encoding: 992876 992876 111
Width: 1000
Flags: MW
LayerCount: 2
Fore
SplineSet
52 278 m 0
 52 305 81 308 92 308 c 2
 905 308 l 2
 915 308 924 308 933 304 c 0
 943 299 950 288 950 277 c 0
 950 266 944 247 910 247 c 2
 90 247 l 1
 56 248 52 268 52 278 c 0
295 401 m 1
 348 465 l 1
 354 459 358 453 365 447 c 0
 378 436 395 427 413 421 c 0
 431 415 453 412 477 412 c 0
 520 412 536 419 543 428 c 0
 557 443 554 465 554 487 c 1
 554 484 554 504 554 501 c 1
 556 521 560 545 548 560 c 0
 545 566 537 572 516 572 c 0
 458 572 438 527 437 527 c 1
 336 527 l 1
 336 779 l 1
 672 779 l 1
 672 702 l 1
 472 702 l 1
 472 629 l 1
 483 630 496 631 521 631 c 0
 574 631 617 626 648 610 c 0
 685 591 705 547 705 486 c 0
 705 429 685 396 654 375 c 0
 609 344 543 337 482 337 c 0
 448 337 420 341 399 346 c 0
 336 362 305 391 295 401 c 1
296 1 m 0
 296 114 324 145 339 164 c 0
 382 212 459 232 552 232 c 0
 579 232 596 231 631 219 c 1
 631 149 l 1
 603 159 585 162 556 162 c 0
 487 162 459 139 455 132 c 0
 449 121 439 99 440 35 c 1
 449 61 472 95 540 95 c 0
 626 95 657 71 673 56 c 0
 706 25 705 -17 704 -57 c 1
 704 -55 704 -60 704 -58 c 1
 704 -84 710 -124 687 -158 c 0
 629 -227 539 -223 502 -223 c 0
 425 -223 387 -204 362 -188 c 0
 290 -131 296 -34 296 1 c 0
440 -56 m 0
 440 -60 440 -64 440 -68 c 0
 438 -114 444 -147 507 -147 c 0
 556 -147 561 -129 561 -98 c 0
 561 -85 559 -71 560 -59 c 1
 560 -63 560 -38 560 -41 c 1
 560 -20 564 3 558 17 c 0
 558 25 548 37 507 37 c 0
 453 37 441 0 440 -37 c 0
 440 -44 440 -49 440 -56 c 0
EndSplineSet
EndChar
StartChar: uF266D
Encoding: 992877 992877 112
Width: 1000
Flags: MW
LayerCount: 2
Fore
SplineSet
52 278 m 0
 52 305 81 308 92 308 c 2
 905 308 l 2
 915 308 924 308 933 304 c 0
 943 299 950 288 950 277 c 0
 950 266 944 247 910 247 c 2
 90 247 l 1
 56 248 52 268 52 278 c 0
332 625 m 1
 332 698 l 1
 461 699 513 740 547 773 c 1
 581 773 l 1
 581 420 l 1
 668 420 l 1
 668 347 l 1
 348 347 l 1
 348 420 l 1
 443 420 l 1
 443 639 l 1
 410 631 382 625 332 625 c 1
296 131 m 1
 296 219 l 1
 704 219 l 1
 704 136 l 1
 579 30 518 -93 518 -217 c 1
 373 -217 l 1
 373 -74 467 47 632 132 c 1
 296 131 l 1
EndSplineSet
EndChar
StartChar: uF266E
Encoding: 992878 992878 113
Width: 1000
Flags: MW
LayerCount: 2
Fore
SplineSet
52 278 m 0
 52 305 81 308 92 308 c 2
 905 308 l 2
 915 308 924 308 933 304 c 0
 943 299 950 288 950 277 c 0
 950 266 944 247 910 247 c 2
 90 247 l 1
 56 248 52 268 52 278 c 0
306 720 m 1
 362 754 413 773 488 773 c 0
 609 773 694 709 694 615 c 0
 694 535 596 534 524 507 c 0
 500 498 501 497 408 454 c 1
 542 454 l 1
 564 455 l 1
 694 455 l 1
 694 347 l 1
 316 347 l 1
 316 453 l 1
 414 506 l 2
 485 537 552 554 552 612 c 0
 552 647 520 672 472 672 c 0
 413 672 383 640 372 629 c 1
 306 720 l 1
296 131 m 1
 296 219 l 1
 704 219 l 1
 704 136 l 1
 579 30 518 -93 518 -217 c 1
 373 -217 l 1
 373 -74 467 47 632 132 c 1
 296 131 l 1
EndSplineSet
EndChar
StartChar: uF2670
Encoding: 992880 992880 115
Width: 1000
Flags: MW
LayerCount: 2
Fore
SplineSet
52 278 m 0
 52 305 81 308 92 308 c 2
 905 308 l 2
 915 308 924 308 933 304 c 0
 943 299 950 288 950 277 c 0
 950 266 944 247 910 247 c 2
 90 247 l 1
 56 248 52 268 52 278 c 0
286 436 m 1
 286 516 l 1
 286 512 284 511 280 507 c 1
 488 779 l 1
 646 779 l 1
 646 512 l 1
 720 512 l 1
 720 436 l 1
 646 436 l 1
 646 350 l 1
 522 350 l 1
 522 436 l 1
 286 436 l 1
386 512 m 1
 526 512 l 1
 526 687 l 1
 509 657 483 631 386 512 c 1
296 131 m 1
 296 219 l 1
 704 219 l 1
 704 136 l 1
 579 30 518 -93 518 -217 c 1
 373 -217 l 1
 373 -74 467 47 632 132 c 1
 296 131 l 1
EndSplineSet
EndChar
StartChar: uF2671
Encoding: 992881 992881 116
Width: 1000
Flags: MW
LayerCount: 2
Fore
SplineSet
52 278 m 0
 52 305 81 308 92 308 c 2
 905 308 l 2
 915 308 924 308 933 304 c 0
 943 299 950 288 950 277 c 0
 950 266 944 247 910 247 c 2
 90 247 l 1
 56 248 52 268 52 278 c 0
295 401 m 1
 348 465 l 1
 354 459 358 453 365 447 c 0
 378 436 395 427 413 421 c 0
 431 415 453 412 477 412 c 0
 520 412 536 419 543 428 c 0
 557 443 554 465 554 487 c 1
 554 484 554 504 554 501 c 1
 556 521 560 545 548 560 c 0
 545 566 537 572 516 572 c 0
 458 572 438 527 437 527 c 1
 336 527 l 1
 336 779 l 1
 672 779 l 1
 672 702 l 1
 472 702 l 1
 472 629 l 1
 483 630 496 631 521 631 c 0
 574 631 617 626 648 610 c 0
 685 591 705 547 705 486 c 0
 705 429 685 396 654 375 c 0
 609 344 543 337 482 337 c 0
 448 337 420 341 399 346 c 0
 336 362 305 391 295 401 c 1
296 131 m 1
 296 219 l 1
 704 219 l 1
 704 136 l 1
 579 30 518 -93 518 -217 c 1
 373 -217 l 1
 373 -74 467 47 632 132 c 1
 296 131 l 1
EndSplineSet
EndChar
StartChar: uF2672
Encoding: 992882 992882 117
Width: 1000
Flags: MW
LayerCount: 2
Fore
SplineSet
52 278 m 0
 52 305 81 308 92 308 c 2
 905 308 l 2
 915 308 924 308 933 304 c 0
 943 299 950 288 950 277 c 0
 950 266 944 247 910 247 c 2
 90 247 l 1
 56 248 52 268 52 278 c 0
296 561 m 0
 296 674 324 705 339 724 c 0
 382 772 459 792 552 792 c 0
 579 792 596 791 631 779 c 1
 631 709 l 1
 603 719 585 722 556 722 c 0
 487 722 459 699 455 692 c 0
 449 681 439 659 440 595 c 1
 449 621 472 655 540 655 c 0
 626 655 657 631 673 616 c 0
 706 585 705 543 704 503 c 1
 704 505 704 500 704 502 c 1
 704 476 710 436 687 402 c 0
 629 333 539 337 502 337 c 0
 425 337 387 356 362 372 c 0
 290 429 296 526 296 561 c 0
440 504 m 0
 440 500 440 496 440 492 c 0
 438 446 444 413 507 413 c 0
 556 413 561 431 561 462 c 0
 561 475 559 489 560 501 c 1
 560 497 560 522 560 519 c 1
 560 540 564 563 558 577 c 0
 558 585 548 597 507 597 c 0
 453 597 441 560 440 523 c 0
 440 516 440 511 440 504 c 0
296 131 m 1
 296 219 l 1
 704 219 l 1
 704 136 l 1
 579 30 518 -93 518 -217 c 1
 373 -217 l 1
 373 -74 467 47 632 132 c 1
 296 131 l 1
EndSplineSet
EndChar
StartChar: uF2673
Encoding: 992883 992883 118
Width: 1000
Flags: MW
LayerCount: 2
Fore
SplineSet
52 278 m 0
 52 305 81 308 92 308 c 2
 905 308 l 2
 915 308 924 308 933 304 c 0
 943 299 950 288 950 277 c 0
 950 266 944 247 910 247 c 2
 90 247 l 1
 56 248 52 268 52 278 c 0
332 625 m 1
 332 698 l 1
 461 699 513 740 547 773 c 1
 581 773 l 1
 581 420 l 1
 668 420 l 1
 668 347 l 1
 348 347 l 1
 348 420 l 1
 443 420 l 1
 443 639 l 1
 410 631 382 625 332 625 c 1
296 -83 m 0
 296 -26 326 10 395 21 c 1
 400 22 309 24 309 110 c 0
 309 169 329 232 500 232 c 1
 499 232 500 232 499 232 c 1
 674 233 691 169 691 109 c 0
 691 12 569 15 605 21 c 1
 689 5 704 -35 704 -83 c 0
 704 -152 683 -223 500 -223 c 0
 317 -223 296 -151 296 -83 c 0
440 -92 m 1
 441 -109 436 -128 450 -139 c 0
 458 -145 472 -149 499 -149 c 0
 523 -149 536 -146 542 -143 c 0
 573 -128 560 -97 561 -86 c 1
 561 -88 562 -74 562 -76 c 1
 563 -52 563 -32 548 -20 c 0
 541 -14 526 -10 500 -10 c 0
 469 -10 457 -15 450 -21 c 0
 426 -39 439 -71 440 -80 c 1
 440 -78 440 -94 440 -92 c 1
443 100 m 1
 443 81 444 68 453 60 c 0
 460 54 474 51 499 51 c 0
 527 51 540 54 548 60 c 0
 561 71 557 87 557 101 c 1
 557 98 557 110 558 108 c 1
 561 127 562 139 557 148 c 0
 551 159 534 163 501 163 c 0
 474 163 462 160 454 156 c 0
 434 145 442 124 442 110 c 1
 442 111 443 98 443 100 c 1
EndSplineSet
EndChar
StartChar: uF2674
Encoding: 992884 992884 119
Width: 1000
Flags: MW
LayerCount: 2
Fore
SplineSet
52 278 m 0
 52 305 81 308 92 308 c 2
 905 308 l 2
 915 308 924 308 933 304 c 0
 943 299 950 288 950 277 c 0
 950 266 944 247 910 247 c 2
 90 247 l 1
 56 248 52 268 52 278 c 0
302 369 m 1
 317 462 l 1
 317 462 378 431 428 431 c 2
 476 431 l 0
 502 431 522 432 535 440 c 0
 545 446 551 458 551 477 c 0
 551 495 545 507 535 514 c 4
 525 521 510 523 492 523 c 2
 439 523 l 1
 439 596 l 1
 475 600 496 599 515 620 c 0
 524 629 528 641 528 652 c 0
 528 679 511 683 489 683 c 0
 440 683 407 674 367 658 c 1
 317 736 l 1
 373 760 426 773 489 773 c 0
 617 773 668 724 668 650 c 0
 668 596 630 573 609 560 c 1
 646 551 698 529 698 475 c 0
 698 453 691 396 633 364 c 0
 583 336 525 336 469 336 c 2
 419 336 l 2
 369 336 302 369 302 369 c 1
296 -83 m 0
 296 -26 326 10 395 21 c 1
 400 22 309 24 309 110 c 0
 309 169 329 232 500 232 c 1
 499 232 500 232 499 232 c 1
 674 233 691 169 691 109 c 0
 691 12 569 15 605 21 c 1
 689 5 704 -35 704 -83 c 0
 704 -152 683 -223 500 -223 c 0
 317 -223 296 -151 296 -83 c 0
440 -92 m 1
 441 -109 436 -128 450 -139 c 0
 458 -145 472 -149 499 -149 c 0
 523 -149 536 -146 542 -143 c 0
 573 -128 560 -97 561 -86 c 1
 561 -88 562 -74 562 -76 c 1
 563 -52 563 -32 548 -20 c 0
 541 -14 526 -10 500 -10 c 0
 469 -10 457 -15 450 -21 c 0
 426 -39 439 -71 440 -80 c 1
 440 -78 440 -94 440 -92 c 1
443 100 m 1
 443 81 444 68 453 60 c 0
 460 54 474 51 499 51 c 0
 527 51 540 54 548 60 c 0
 561 71 557 87 557 101 c 1
 557 98 557 110 558 108 c 1
 561 127 562 139 557 148 c 0
 551 159 534 163 501 163 c 0
 474 163 462 160 454 156 c 0
 434 145 442 124 442 110 c 1
 442 111 443 98 443 100 c 1
EndSplineSet
EndChar
StartChar: uF2675
Encoding: 992885 992885 120
Width: 1000
Flags: MW
LayerCount: 2
Fore
SplineSet
52 278 m 0
 52 305 81 308 92 308 c 2
 905 308 l 2
 915 308 924 308 933 304 c 0
 943 299 950 288 950 277 c 0
 950 266 944 247 910 247 c 2
 90 247 l 1
 56 248 52 268 52 278 c 0
295 401 m 1
 348 465 l 1
 354 459 358 453 365 447 c 0
 378 436 395 427 413 421 c 0
 431 415 453 412 477 412 c 0
 520 412 536 419 543 428 c 0
 557 443 554 465 554 487 c 1
 554 484 554 504 554 501 c 1
 556 521 560 545 548 560 c 0
 545 566 537 572 516 572 c 0
 458 572 438 527 437 527 c 1
 336 527 l 1
 336 779 l 1
 672 779 l 1
 672 702 l 1
 472 702 l 1
 472 629 l 1
 483 630 496 631 521 631 c 0
 574 631 617 626 648 610 c 0
 685 591 705 547 705 486 c 0
 705 429 685 396 654 375 c 0
 609 344 543 337 482 337 c 0
 448 337 420 341 399 346 c 0
 336 362 305 391 295 401 c 1
296 -83 m 0
 296 -26 326 10 395 21 c 1
 400 22 309 24 309 110 c 0
 309 169 329 232 500 232 c 1
 499 232 500 232 499 232 c 1
 674 233 691 169 691 109 c 0
 691 12 569 15 605 21 c 1
 689 5 704 -35 704 -83 c 0
 704 -152 683 -223 500 -223 c 0
 317 -223 296 -151 296 -83 c 0
440 -92 m 1
 441 -109 436 -128 450 -139 c 0
 458 -145 472 -149 499 -149 c 0
 523 -149 536 -146 542 -143 c 0
 573 -128 560 -97 561 -86 c 1
 561 -88 562 -74 562 -76 c 1
 563 -52 563 -32 548 -20 c 0
 541 -14 526 -10 500 -10 c 0
 469 -10 457 -15 450 -21 c 0
 426 -39 439 -71 440 -80 c 1
 440 -78 440 -94 440 -92 c 1
443 100 m 1
 443 81 444 68 453 60 c 0
 460 54 474 51 499 51 c 0
 527 51 540 54 548 60 c 0
 561 71 557 87 557 101 c 1
 557 98 557 110 558 108 c 1
 561 127 562 139 557 148 c 0
 551 159 534 163 501 163 c 0
 474 163 462 160 454 156 c 0
 434 145 442 124 442 110 c 1
 442 111 443 98 443 100 c 1
EndSplineSet
EndChar
StartChar: uF2676
Encoding: 992886 992886 121
Width: 1000
Flags: MW
LayerCount: 2
Fore
SplineSet
52 278 m 0
 52 305 81 308 92 308 c 2
 905 308 l 2
 915 308 924 308 933 304 c 0
 943 299 950 288 950 277 c 0
 950 266 944 247 910 247 c 2
 90 247 l 1
 56 248 52 268 52 278 c 0
296 691 m 1
 296 779 l 1
 704 779 l 1
 704 696 l 1
 579 590 518 467 518 343 c 1
 373 343 l 1
 373 486 467 607 632 692 c 1
 296 691 l 1
296 -83 m 0
 296 -26 326 10 395 21 c 1
 400 22 309 24 309 110 c 0
 309 169 329 232 500 232 c 1
 499 232 500 232 499 232 c 1
 674 233 691 169 691 109 c 0
 691 12 569 15 605 21 c 1
 689 5 704 -35 704 -83 c 0
 704 -152 683 -223 500 -223 c 0
 317 -223 296 -151 296 -83 c 0
440 -92 m 1
 441 -109 436 -128 450 -139 c 0
 458 -145 472 -149 499 -149 c 0
 523 -149 536 -146 542 -143 c 0
 573 -128 560 -97 561 -86 c 1
 561 -88 562 -74 562 -76 c 1
 563 -52 563 -32 548 -20 c 0
 541 -14 526 -10 500 -10 c 0
 469 -10 457 -15 450 -21 c 0
 426 -39 439 -71 440 -80 c 1
 440 -78 440 -94 440 -92 c 1
443 100 m 1
 443 81 444 68 453 60 c 0
 460 54 474 51 499 51 c 0
 527 51 540 54 548 60 c 0
 561 71 557 87 557 101 c 1
 557 98 557 110 558 108 c 1
 561 127 562 139 557 148 c 0
 551 159 534 163 501 163 c 0
 474 163 462 160 454 156 c 0
 434 145 442 124 442 110 c 1
 442 111 443 98 443 100 c 1
EndSplineSet
EndChar
StartChar: uF2678
Encoding: 992888 992888 123
Width: 1000
Flags: MW
LayerCount: 2
Fore
SplineSet
52 278 m 0
 52 305 81 308 92 308 c 2
 905 308 l 2
 915 308 924 308 933 304 c 0
 943 299 950 288 950 277 c 0
 950 266 944 247 910 247 c 2
 90 247 l 1
 56 248 52 268 52 278 c 0
306 720 m 1
 362 754 413 773 488 773 c 0
 609 773 694 709 694 615 c 0
 694 535 596 534 524 507 c 0
 500 498 501 497 408 454 c 1
 542 454 l 1
 564 455 l 1
 694 455 l 1
 694 347 l 1
 316 347 l 1
 316 453 l 1
 414 506 l 2
 485 537 552 554 552 612 c 0
 552 647 520 672 472 672 c 0
 413 672 383 640 372 629 c 1
 306 720 l 1
296 58 m 0
 296 99 288 136 320 173 c 0
 348 205 392 232 501 232 c 0
 569 232 610 216 635 200 c 0
 715 145 704 44 704 13 c 0
 704 -47 707 -136 625 -188 c 0
 580 -215 515 -223 457 -223 c 0
 404 -223 368 -214 326 -194 c 1
 374 -130 l 1
 403 -144 423 -149 457 -149 c 0
 498 -149 532 -138 544 -124 c 0
 555 -110 564 -77 561 -24 c 1
 561 -27 560 -22 560 -25 c 1
 558 -44 534 -86 459 -86 c 0
 374 -86 340 -61 325 -45 c 0
 296 -16 296 23 296 58 c 0
439 65 m 1
 442 -14 446 -17 454 -22 c 0
 465 -28 482 -29 492 -29 c 0
 506 -29 531 -26 547 -1 c 0
 554 13 560 34 560 70 c 0
 560 115 567 159 498 159 c 0
 481 159 468 158 460 154 c 0
 422 138 438 96 437 71 c 1
 440 77 439 58 439 65 c 1
EndSplineSet
EndChar
StartChar: uF2679
Encoding: 992889 992889 124
Width: 1000
Flags: MW
LayerCount: 2
Fore
SplineSet
52 278 m 0
 52 305 81 308 92 308 c 2
 905 308 l 2
 915 308 924 308 933 304 c 0
 943 299 950 288 950 277 c 0
 950 266 944 247 910 247 c 2
 90 247 l 1
 56 248 52 268 52 278 c 0
286 436 m 1
 286 516 l 1
 286 512 284 511 280 507 c 1
 488 779 l 1
 646 779 l 1
 646 512 l 1
 720 512 l 1
 720 436 l 1
 646 436 l 1
 646 350 l 1
 522 350 l 1
 522 436 l 1
 286 436 l 1
386 512 m 1
 526 512 l 1
 526 687 l 1
 509 657 483 631 386 512 c 1
296 58 m 0
 296 99 288 136 320 173 c 0
 348 205 392 232 501 232 c 0
 569 232 610 216 635 200 c 0
 715 145 704 44 704 13 c 0
 704 -47 707 -136 625 -188 c 0
 580 -215 515 -223 457 -223 c 0
 404 -223 368 -214 326 -194 c 1
 374 -130 l 1
 403 -144 423 -149 457 -149 c 0
 498 -149 532 -138 544 -124 c 0
 555 -110 564 -77 561 -24 c 1
 561 -27 560 -22 560 -25 c 1
 558 -44 534 -86 459 -86 c 0
 374 -86 340 -61 325 -45 c 0
 296 -16 296 23 296 58 c 0
439 65 m 1
 442 -14 446 -17 454 -22 c 0
 465 -28 482 -29 492 -29 c 0
 506 -29 531 -26 547 -1 c 0
 554 13 560 34 560 70 c 0
 560 115 567 159 498 159 c 0
 481 159 468 158 460 154 c 0
 422 138 438 96 437 71 c 1
 440 77 439 58 439 65 c 1
EndSplineSet
EndChar
StartChar: uF267A
Encoding: 992890 992890 125
Width: 1000
Flags: MW
LayerCount: 2
Fore
SplineSet
52 278 m 0
 52 305 81 308 92 308 c 2
 905 308 l 2
 915 308 924 308 933 304 c 0
 943 299 950 288 950 277 c 0
 950 266 944 247 910 247 c 2
 90 247 l 1
 56 248 52 268 52 278 c 0
295 401 m 1
 348 465 l 1
 354 459 358 453 365 447 c 0
 378 436 395 427 413 421 c 0
 431 415 453 412 477 412 c 0
 520 412 536 419 543 428 c 0
 557 443 554 465 554 487 c 1
 554 484 554 504 554 501 c 1
 556 521 560 545 548 560 c 0
 545 566 537 572 516 572 c 0
 458 572 438 527 437 527 c 1
 336 527 l 1
 336 779 l 1
 672 779 l 1
 672 702 l 1
 472 702 l 1
 472 629 l 1
 483 630 496 631 521 631 c 0
 574 631 617 626 648 610 c 0
 685 591 705 547 705 486 c 0
 705 429 685 396 654 375 c 0
 609 344 543 337 482 337 c 0
 448 337 420 341 399 346 c 0
 336 362 305 391 295 401 c 1
296 58 m 0
 296 99 288 136 320 173 c 0
 348 205 392 232 501 232 c 0
 569 232 610 216 635 200 c 0
 715 145 704 44 704 13 c 0
 704 -47 707 -136 625 -188 c 0
 580 -215 515 -223 457 -223 c 0
 404 -223 368 -214 326 -194 c 1
 374 -130 l 1
 403 -144 423 -149 457 -149 c 0
 498 -149 532 -138 544 -124 c 0
 555 -110 564 -77 561 -24 c 1
 561 -27 560 -22 560 -25 c 1
 558 -44 534 -86 459 -86 c 0
 374 -86 340 -61 325 -45 c 0
 296 -16 296 23 296 58 c 0
439 65 m 1
 442 -14 446 -17 454 -22 c 0
 465 -28 482 -29 492 -29 c 0
 506 -29 531 -26 547 -1 c 0
 554 13 560 34 560 70 c 0
 560 115 567 159 498 159 c 0
 481 159 468 158 460 154 c 0
 422 138 438 96 437 71 c 1
 440 77 439 58 439 65 c 1
EndSplineSet
EndChar
StartChar: uF267B
Encoding: 992891 992891 126
Width: 1000
Flags: MW
LayerCount: 2
Fore
SplineSet
52 278 m 0
 52 305 81 308 92 308 c 2
 905 308 l 2
 915 308 924 308 933 304 c 0
 943 299 950 288 950 277 c 0
 950 266 944 247 910 247 c 2
 90 247 l 1
 56 248 52 268 52 278 c 0
296 691 m 1
 296 779 l 1
 704 779 l 1
 704 696 l 1
 579 590 518 467 518 343 c 1
 373 343 l 1
 373 486 467 607 632 692 c 1
 296 691 l 1
296 58 m 0
 296 99 288 136 320 173 c 0
 348 205 392 232 501 232 c 0
 569 232 610 216 635 200 c 0
 715 145 704 44 704 13 c 0
 704 -47 707 -136 625 -188 c 0
 580 -215 515 -223 457 -223 c 0
 404 -223 368 -214 326 -194 c 1
 374 -130 l 1
 403 -144 423 -149 457 -149 c 0
 498 -149 532 -138 544 -124 c 0
 555 -110 564 -77 561 -24 c 1
 561 -27 560 -22 560 -25 c 1
 558 -44 534 -86 459 -86 c 0
 374 -86 340 -61 325 -45 c 0
 296 -16 296 23 296 58 c 0
439 65 m 1
 442 -14 446 -17 454 -22 c 0
 465 -28 482 -29 492 -29 c 0
 506 -29 531 -26 547 -1 c 0
 554 13 560 34 560 70 c 0
 560 115 567 159 498 159 c 0
 481 159 468 158 460 154 c 0
 422 138 438 96 437 71 c 1
 440 77 439 58 439 65 c 1
EndSplineSet
EndChar
StartChar: uF267C
Encoding: 992892 992892 127
Width: 1000
Flags: MW
LayerCount: 2
Fore
SplineSet
52 278 m 0
 52 305 81 308 92 308 c 2
 905 308 l 2
 915 308 924 308 933 304 c 0
 943 299 950 288 950 277 c 0
 950 266 944 247 910 247 c 2
 90 247 l 1
 56 248 52 268 52 278 c 0
296 477 m 0
 296 534 326 570 395 581 c 1
 400 582 309 584 309 670 c 0
 309 729 329 792 500 792 c 1
 499 792 500 792 499 792 c 1
 674 793 691 729 691 669 c 0
 691 572 569 575 605 581 c 1
 689 565 704 525 704 477 c 0
 704 408 683 337 500 337 c 0
 317 337 296 409 296 477 c 0
440 468 m 1
 441 451 436 432 450 421 c 0
 458 415 472 411 499 411 c 0
 523 411 536 414 542 417 c 0
 573 432 560 463 561 474 c 1
 561 472 562 486 562 484 c 1
 563 508 563 528 548 540 c 0
 541 546 526 550 500 550 c 0
 469 550 457 545 450 539 c 0
 426 521 439 489 440 480 c 1
 440 482 440 466 440 468 c 1
443 660 m 1
 443 641 444 628 453 620 c 0
 460 614 474 611 499 611 c 0
 527 611 540 614 548 620 c 0
 561 631 557 647 557 661 c 1
 557 658 557 670 558 668 c 1
 561 687 562 699 557 708 c 0
 551 719 534 723 501 723 c 0
 474 723 462 720 454 716 c 0
 434 705 442 684 442 670 c 1
 442 671 443 658 443 660 c 1
296 58 m 0
 296 99 288 136 320 173 c 0
 348 205 392 232 501 232 c 0
 569 232 610 216 635 200 c 0
 715 145 704 44 704 13 c 0
 704 -47 707 -136 625 -188 c 0
 580 -215 515 -223 457 -223 c 0
 404 -223 368 -214 326 -194 c 1
 374 -130 l 1
 403 -144 423 -149 457 -149 c 0
 498 -149 532 -138 544 -124 c 0
 555 -110 564 -77 561 -24 c 1
 561 -27 560 -22 560 -25 c 1
 558 -44 534 -86 459 -86 c 0
 374 -86 340 -61 325 -45 c 0
 296 -16 296 23 296 58 c 0
439 65 m 1
 442 -14 446 -17 454 -22 c 0
 465 -28 482 -29 492 -29 c 0
 506 -29 531 -26 547 -1 c 0
 554 13 560 34 560 70 c 0
 560 115 567 159 498 159 c 0
 481 159 468 158 460 154 c 0
 422 138 438 96 437 71 c 1
 440 77 439 58 439 65 c 1
EndSplineSet
EndChar
StartChar: uF267E
Encoding: 992894 992894 129
Width: 1000
Flags: MW
LayerCount: 2
Fore
SplineSet
52 278 m 0
 52 305 81 308 92 308 c 2
 905 308 l 2
 915 308 924 308 933 304 c 0
 943 299 950 288 950 277 c 0
 950 266 944 247 910 247 c 2
 90 247 l 1
 56 248 52 268 52 278 c 0
302 369 m 1
 317 462 l 1
 317 462 378 431 428 431 c 2
 476 431 l 0
 502 431 522 432 535 440 c 0
 545 446 551 458 551 477 c 0
 551 495 545 507 535 514 c 4
 525 521 510 523 492 523 c 2
 439 523 l 1
 439 596 l 1
 475 600 496 599 515 620 c 0
 524 629 528 641 528 652 c 0
 528 679 511 683 489 683 c 0
 440 683 407 674 367 658 c 1
 317 736 l 1
 373 760 426 773 489 773 c 0
 617 773 668 724 668 650 c 0
 668 596 630 573 609 560 c 1
 646 551 698 529 698 475 c 0
 698 453 691 396 633 364 c 0
 583 336 525 336 469 336 c 2
 419 336 l 2
 369 336 302 369 302 369 c 1
118 65 m 1
 118 138 l 1
 247 139 299 180 333 213 c 1
 367 213 l 1
 367 -140 l 1
 454 -140 l 1
 454 -213 l 1
 134 -213 l 1
 134 -140 l 1
 229 -140 l 1
 229 79 l 1
 196 71 168 65 118 65 c 1
467 7 m 1
 467 18 467 22 467 33 c 1
 470 120 487 204 601 226 c 0
 623 230 647 232 675 232 c 0
 726 232 784 224 823 194 c 0
 888 144 883 48 882 8 c 1
 882 12 882 6 882 9 c 1
 882 -55 901 -189 746 -218 c 0
 724 -221 701 -223 674 -223 c 0
 427 -223 467 -55 467 7 c 1
609 13 m 1
 609 -102 600 -136 649 -154 c 0
 655 -155 664 -159 675 -159 c 0
 674 -159 696 -160 716 -145 c 0
 754 -118 737 -72 740 17 c 1
 740 26 742 19 742 30 c 1
 742 64 743 122 730 141 c 0
 724 152 704 167 675 167 c 0
 577 167 609 72 609 32 c 1
 609 20 609 24 609 13 c 1
EndSplineSet
EndChar
StartChar: uF267F
Encoding: 992895 992895 130
Width: 1000
Flags: MW
LayerCount: 2
Fore
SplineSet
52 278 m 0
 52 305 81 308 92 308 c 2
 905 308 l 2
 915 308 924 308 933 304 c 0
 943 299 950 288 950 277 c 0
 950 266 944 247 910 247 c 2
 90 247 l 1
 56 248 52 268 52 278 c 0
296 691 m 1
 296 779 l 1
 704 779 l 1
 704 696 l 1
 579 590 518 467 518 343 c 1
 373 343 l 1
 373 486 467 607 632 692 c 1
 296 691 l 1
118 65 m 1
 118 138 l 1
 247 139 299 180 333 213 c 1
 367 213 l 1
 367 -140 l 1
 454 -140 l 1
 454 -213 l 1
 134 -213 l 1
 134 -140 l 1
 229 -140 l 1
 229 79 l 1
 196 71 168 65 118 65 c 1
467 7 m 1
 467 18 467 22 467 33 c 1
 470 120 487 204 601 226 c 0
 623 230 647 232 675 232 c 0
 726 232 784 224 823 194 c 0
 888 144 883 48 882 8 c 1
 882 12 882 6 882 9 c 1
 882 -55 901 -189 746 -218 c 0
 724 -221 701 -223 674 -223 c 0
 427 -223 467 -55 467 7 c 1
609 13 m 1
 609 -102 600 -136 649 -154 c 0
 655 -155 664 -159 675 -159 c 0
 674 -159 696 -160 716 -145 c 0
 754 -118 737 -72 740 17 c 1
 740 26 742 19 742 30 c 1
 742 64 743 122 730 141 c 0
 724 152 704 167 675 167 c 0
 577 167 609 72 609 32 c 1
 609 20 609 24 609 13 c 1
EndSplineSet
EndChar
StartChar: uF2680
Encoding: 992896 992896 131
Width: 1000
Flags: MW
LayerCount: 2
Fore
SplineSet
52 278 m 0
 52 305 81 308 92 308 c 2
 905 308 l 2
 915 308 924 308 933 304 c 0
 943 299 950 288 950 277 c 0
 950 266 944 247 910 247 c 2
 90 247 l 1
 56 248 52 268 52 278 c 0
296 618 m 0
 296 659 288 696 320 733 c 0
 348 765 392 792 501 792 c 0
 569 792 610 776 635 760 c 0
 715 705 704 604 704 573 c 0
 704 513 707 424 625 372 c 0
 580 345 515 337 457 337 c 0
 404 337 368 346 326 366 c 1
 374 430 l 1
 403 416 423 411 457 411 c 0
 498 411 532 422 544 436 c 0
 555 450 564 483 561 536 c 1
 561 533 560 538 560 535 c 1
 558 516 534 474 459 474 c 0
 374 474 340 499 325 515 c 0
 296 544 296 583 296 618 c 0
439 625 m 1
 442 546 446 543 454 538 c 0
 465 532 482 531 492 531 c 0
 506 531 531 534 547 559 c 0
 554 573 560 594 560 630 c 0
 560 675 567 719 498 719 c 0
 481 719 468 718 460 714 c 0
 422 698 438 656 437 631 c 1
 440 637 439 618 439 625 c 1
118 65 m 1
 118 138 l 1
 247 139 299 180 333 213 c 1
 367 213 l 1
 367 -140 l 1
 454 -140 l 1
 454 -213 l 1
 134 -213 l 1
 134 -140 l 1
 229 -140 l 1
 229 79 l 1
 196 71 168 65 118 65 c 1
467 7 m 1
 467 18 467 22 467 33 c 1
 470 120 487 204 601 226 c 0
 623 230 647 232 675 232 c 0
 726 232 784 224 823 194 c 0
 888 144 883 48 882 8 c 1
 882 12 882 6 882 9 c 1
 882 -55 901 -189 746 -218 c 0
 724 -221 701 -223 674 -223 c 0
 427 -223 467 -55 467 7 c 1
609 13 m 1
 609 -102 600 -136 649 -154 c 0
 655 -155 664 -159 675 -159 c 0
 674 -159 696 -160 716 -145 c 0
 754 -118 737 -72 740 17 c 1
 740 26 742 19 742 30 c 1
 742 64 743 122 730 141 c 0
 724 152 704 167 675 167 c 0
 577 167 609 72 609 32 c 1
 609 20 609 24 609 13 c 1
EndSplineSet
EndChar
StartChar: uF2681
Encoding: 992897 992897 132
Width: 1000
Flags: MW
LayerCount: 2
Fore
SplineSet
52 278 m 0
 52 305 81 308 92 308 c 2
 905 308 l 2
 915 308 924 308 933 304 c 0
 943 299 950 288 950 277 c 0
 950 266 944 247 910 247 c 2
 90 247 l 1
 56 248 52 268 52 278 c 0
332 625 m 1
 332 698 l 1
 461 699 513 740 547 773 c 1
 581 773 l 1
 581 420 l 1
 668 420 l 1
 668 347 l 1
 348 347 l 1
 348 420 l 1
 443 420 l 1
 443 639 l 1
 410 631 382 625 332 625 c 1
138 65 m 1
 138 138 l 1
 267 139 318 180 352 213 c 1
 386 213 l 1
 386 -140 l 1
 474 -140 l 1
 474 -213 l 1
 154 -213 l 1
 154 -140 l 1
 248 -140 l 1
 248 79 l 1
 215 71 188 65 138 65 c 1
526 65 m 1
 526 138 l 1
 655 139 708 180 742 213 c 1
 776 213 l 1
 776 -140 l 1
 862 -140 l 1
 862 -213 l 1
 542 -213 l 1
 542 -140 l 1
 638 -140 l 1
 638 79 l 1
 605 71 576 65 526 65 c 1
EndSplineSet
EndChar
StartChar: uF2682
Encoding: 992898 992898 133
Width: 1000
Flags: MW
LayerCount: 2
Fore
SplineSet
52 278 m 0
 52 305 81 308 92 308 c 2
 905 308 l 2
 915 308 924 308 933 304 c 0
 943 299 950 288 950 277 c 0
 950 266 944 247 910 247 c 2
 90 247 l 1
 56 248 52 268 52 278 c 0
306 720 m 1
 362 754 413 773 488 773 c 0
 609 773 694 709 694 615 c 0
 694 535 596 534 524 507 c 0
 500 498 501 497 408 454 c 1
 542 454 l 1
 564 455 l 1
 694 455 l 1
 694 347 l 1
 316 347 l 1
 316 453 l 1
 414 506 l 2
 485 537 552 554 552 612 c 0
 552 647 520 672 472 672 c 0
 413 672 383 640 372 629 c 1
 306 720 l 1
138 65 m 1
 138 138 l 1
 267 139 318 180 352 213 c 1
 386 213 l 1
 386 -140 l 1
 474 -140 l 1
 474 -213 l 1
 154 -213 l 1
 154 -140 l 1
 248 -140 l 1
 248 79 l 1
 215 71 188 65 138 65 c 1
526 65 m 1
 526 138 l 1
 655 139 708 180 742 213 c 1
 776 213 l 1
 776 -140 l 1
 862 -140 l 1
 862 -213 l 1
 542 -213 l 1
 542 -140 l 1
 638 -140 l 1
 638 79 l 1
 605 71 576 65 526 65 c 1
EndSplineSet
EndChar
StartChar: uF2683
Encoding: 992899 992899 134
Width: 1000
Flags: MW
LayerCount: 2
Fore
SplineSet
52 278 m 0
 52 305 81 308 92 308 c 2
 905 308 l 2
 915 308 924 308 933 304 c 0
 943 299 950 288 950 277 c 0
 950 266 944 247 910 247 c 2
 90 247 l 1
 56 248 52 268 52 278 c 0
302 369 m 1
 317 462 l 1
 317 462 378 431 428 431 c 2
 476 431 l 0
 502 431 522 432 535 440 c 0
 545 446 551 458 551 477 c 0
 551 495 545 507 535 514 c 4
 525 521 510 523 492 523 c 2
 439 523 l 1
 439 596 l 1
 475 600 496 599 515 620 c 0
 524 629 528 641 528 652 c 0
 528 679 511 683 489 683 c 0
 440 683 407 674 367 658 c 1
 317 736 l 1
 373 760 426 773 489 773 c 0
 617 773 668 724 668 650 c 0
 668 596 630 573 609 560 c 1
 646 551 698 529 698 475 c 0
 698 453 691 396 633 364 c 0
 583 336 525 336 469 336 c 2
 419 336 l 2
 369 336 302 369 302 369 c 1
138 65 m 1
 138 138 l 1
 267 139 318 180 352 213 c 1
 386 213 l 1
 386 -140 l 1
 474 -140 l 1
 474 -213 l 1
 154 -213 l 1
 154 -140 l 1
 248 -140 l 1
 248 79 l 1
 215 71 188 65 138 65 c 1
526 65 m 1
 526 138 l 1
 655 139 708 180 742 213 c 1
 776 213 l 1
 776 -140 l 1
 862 -140 l 1
 862 -213 l 1
 542 -213 l 1
 542 -140 l 1
 638 -140 l 1
 638 79 l 1
 605 71 576 65 526 65 c 1
EndSplineSet
EndChar
StartChar: uF2684
Encoding: 992900 992900 135
Width: 1000
Flags: MW
LayerCount: 2
Fore
SplineSet
52 278 m 0
 52 305 81 308 92 308 c 2
 905 308 l 2
 915 308 924 308 933 304 c 0
 943 299 950 288 950 277 c 0
 950 266 944 247 910 247 c 2
 90 247 l 1
 56 248 52 268 52 278 c 0
286 436 m 1
 286 516 l 1
 286 512 284 511 280 507 c 1
 488 779 l 1
 646 779 l 1
 646 512 l 1
 720 512 l 1
 720 436 l 1
 646 436 l 1
 646 350 l 1
 522 350 l 1
 522 436 l 1
 286 436 l 1
386 512 m 1
 526 512 l 1
 526 687 l 1
 509 657 483 631 386 512 c 1
138 65 m 1
 138 138 l 1
 267 139 318 180 352 213 c 1
 386 213 l 1
 386 -140 l 1
 474 -140 l 1
 474 -213 l 1
 154 -213 l 1
 154 -140 l 1
 248 -140 l 1
 248 79 l 1
 215 71 188 65 138 65 c 1
526 65 m 1
 526 138 l 1
 655 139 708 180 742 213 c 1
 776 213 l 1
 776 -140 l 1
 862 -140 l 1
 862 -213 l 1
 542 -213 l 1
 542 -140 l 1
 638 -140 l 1
 638 79 l 1
 605 71 576 65 526 65 c 1
EndSplineSet
EndChar
StartChar: uF2685
Encoding: 992901 992901 136
Width: 1000
Flags: MW
LayerCount: 2
Fore
SplineSet
52 278 m 0
 52 305 81 308 92 308 c 2
 905 308 l 2
 915 308 924 308 933 304 c 0
 943 299 950 288 950 277 c 0
 950 266 944 247 910 247 c 2
 90 247 l 1
 56 248 52 268 52 278 c 0
295 401 m 1
 348 465 l 1
 354 459 358 453 365 447 c 0
 378 436 395 427 413 421 c 0
 431 415 453 412 477 412 c 0
 520 412 536 419 543 428 c 0
 557 443 554 465 554 487 c 1
 554 484 554 504 554 501 c 1
 556 521 560 545 548 560 c 0
 545 566 537 572 516 572 c 0
 458 572 438 527 437 527 c 1
 336 527 l 1
 336 779 l 1
 672 779 l 1
 672 702 l 1
 472 702 l 1
 472 629 l 1
 483 630 496 631 521 631 c 0
 574 631 617 626 648 610 c 0
 685 591 705 547 705 486 c 0
 705 429 685 396 654 375 c 0
 609 344 543 337 482 337 c 0
 448 337 420 341 399 346 c 0
 336 362 305 391 295 401 c 1
138 65 m 1
 138 138 l 1
 267 139 318 180 352 213 c 1
 386 213 l 1
 386 -140 l 1
 474 -140 l 1
 474 -213 l 1
 154 -213 l 1
 154 -140 l 1
 248 -140 l 1
 248 79 l 1
 215 71 188 65 138 65 c 1
526 65 m 1
 526 138 l 1
 655 139 708 180 742 213 c 1
 776 213 l 1
 776 -140 l 1
 862 -140 l 1
 862 -213 l 1
 542 -213 l 1
 542 -140 l 1
 638 -140 l 1
 638 79 l 1
 605 71 576 65 526 65 c 1
EndSplineSet
EndChar
StartChar: uF2687
Encoding: 992903 992903 138
Width: 1000
Flags: MW
LayerCount: 2
Fore
SplineSet
52 278 m 0
 52 305 81 308 92 308 c 2
 905 308 l 2
 915 308 924 308 933 304 c 0
 943 299 950 288 950 277 c 0
 950 266 944 247 910 247 c 2
 90 247 l 1
 56 248 52 268 52 278 c 0
296 691 m 1
 296 779 l 1
 704 779 l 1
 704 696 l 1
 579 590 518 467 518 343 c 1
 373 343 l 1
 373 486 467 607 632 692 c 1
 296 691 l 1
138 65 m 1
 138 138 l 1
 267 139 318 180 352 213 c 1
 386 213 l 1
 386 -140 l 1
 474 -140 l 1
 474 -213 l 1
 154 -213 l 1
 154 -140 l 1
 248 -140 l 1
 248 79 l 1
 215 71 188 65 138 65 c 1
526 65 m 1
 526 138 l 1
 655 139 708 180 742 213 c 1
 776 213 l 1
 776 -140 l 1
 862 -140 l 1
 862 -213 l 1
 542 -213 l 1
 542 -140 l 1
 638 -140 l 1
 638 79 l 1
 605 71 576 65 526 65 c 1
EndSplineSet
EndChar
StartChar: uF2688
Encoding: 992904 992904 139
Width: 1000
Flags: MW
LayerCount: 2
Fore
SplineSet
52 278 m 0
 52 305 81 308 92 308 c 2
 905 308 l 2
 915 308 924 308 933 304 c 0
 943 299 950 288 950 277 c 0
 950 266 944 247 910 247 c 2
 90 247 l 1
 56 248 52 268 52 278 c 0
296 477 m 0
 296 534 326 570 395 581 c 1
 400 582 309 584 309 670 c 0
 309 729 329 792 500 792 c 1
 499 792 500 792 499 792 c 1
 674 793 691 729 691 669 c 0
 691 572 569 575 605 581 c 1
 689 565 704 525 704 477 c 0
 704 408 683 337 500 337 c 0
 317 337 296 409 296 477 c 0
440 468 m 1
 441 451 436 432 450 421 c 0
 458 415 472 411 499 411 c 0
 523 411 536 414 542 417 c 0
 573 432 560 463 561 474 c 1
 561 472 562 486 562 484 c 1
 563 508 563 528 548 540 c 0
 541 546 526 550 500 550 c 0
 469 550 457 545 450 539 c 0
 426 521 439 489 440 480 c 1
 440 482 440 466 440 468 c 1
443 660 m 1
 443 641 444 628 453 620 c 0
 460 614 474 611 499 611 c 0
 527 611 540 614 548 620 c 0
 561 631 557 647 557 661 c 1
 557 658 557 670 558 668 c 1
 561 687 562 699 557 708 c 0
 551 719 534 723 501 723 c 0
 474 723 462 720 454 716 c 0
 434 705 442 684 442 670 c 1
 442 671 443 658 443 660 c 1
138 65 m 1
 138 138 l 1
 267 139 318 180 352 213 c 1
 386 213 l 1
 386 -140 l 1
 474 -140 l 1
 474 -213 l 1
 154 -213 l 1
 154 -140 l 1
 248 -140 l 1
 248 79 l 1
 215 71 188 65 138 65 c 1
526 65 m 1
 526 138 l 1
 655 139 708 180 742 213 c 1
 776 213 l 1
 776 -140 l 1
 862 -140 l 1
 862 -213 l 1
 542 -213 l 1
 542 -140 l 1
 638 -140 l 1
 638 79 l 1
 605 71 576 65 526 65 c 1
EndSplineSet
EndChar
StartChar: uF2689
Encoding: 992905 992905 140
Width: 1000
Flags: MW
LayerCount: 2
Fore
SplineSet
52 278 m 0
 52 305 81 308 92 308 c 2
 905 308 l 2
 915 308 924 308 933 304 c 0
 943 299 950 288 950 277 c 0
 950 266 944 247 910 247 c 2
 90 247 l 1
 56 248 52 268 52 278 c 0
296 618 m 0
 296 659 288 696 320 733 c 0
 348 765 392 792 501 792 c 0
 569 792 610 776 635 760 c 0
 715 705 704 604 704 573 c 0
 704 513 707 424 625 372 c 0
 580 345 515 337 457 337 c 0
 404 337 368 346 326 366 c 1
 374 430 l 1
 403 416 423 411 457 411 c 0
 498 411 532 422 544 436 c 0
 555 450 564 483 561 536 c 1
 561 533 560 538 560 535 c 1
 558 516 534 474 459 474 c 0
 374 474 340 499 325 515 c 0
 296 544 296 583 296 618 c 0
439 625 m 1
 442 546 446 543 454 538 c 0
 465 532 482 531 492 531 c 0
 506 531 531 534 547 559 c 0
 554 573 560 594 560 630 c 0
 560 675 567 719 498 719 c 0
 481 719 468 718 460 714 c 0
 422 698 438 656 437 631 c 1
 440 637 439 618 439 625 c 1
138 65 m 1
 138 138 l 1
 267 139 318 180 352 213 c 1
 386 213 l 1
 386 -140 l 1
 474 -140 l 1
 474 -213 l 1
 154 -213 l 1
 154 -140 l 1
 248 -140 l 1
 248 79 l 1
 215 71 188 65 138 65 c 1
526 65 m 1
 526 138 l 1
 655 139 708 180 742 213 c 1
 776 213 l 1
 776 -140 l 1
 862 -140 l 1
 862 -213 l 1
 542 -213 l 1
 542 -140 l 1
 638 -140 l 1
 638 79 l 1
 605 71 576 65 526 65 c 1
EndSplineSet
EndChar
StartChar: uF268A
Encoding: 992906 992906 141
Width: 1000
Flags: MW
LayerCount: 2
Fore
SplineSet
52 278 m 0
 52 305 81 308 92 308 c 2
 905 308 l 2
 915 308 924 308 933 304 c 0
 943 299 950 288 950 277 c 0
 950 266 944 247 910 247 c 2
 90 247 l 1
 56 248 52 268 52 278 c 0
118 625 m 1
 118 698 l 1
 247 699 299 740 333 773 c 1
 367 773 l 1
 367 420 l 1
 454 420 l 1
 454 347 l 1
 134 347 l 1
 134 420 l 1
 229 420 l 1
 229 639 l 1
 196 631 168 625 118 625 c 1
467 567 m 1
 467 578 467 582 467 593 c 1
 470 680 487 764 601 786 c 0
 623 790 647 792 675 792 c 0
 726 792 784 784 823 754 c 0
 888 704 883 608 882 568 c 1
 882 572 882 566 882 569 c 1
 882 505 901 371 746 342 c 0
 724 339 701 337 674 337 c 0
 427 337 467 505 467 567 c 1
609 573 m 1
 609 458 600 424 649 406 c 0
 655 405 664 401 675 401 c 0
 674 401 696 400 716 415 c 0
 754 442 737 488 740 577 c 1
 740 586 742 579 742 590 c 1
 742 624 743 682 730 701 c 0
 724 712 704 727 675 727 c 0
 577 727 609 632 609 592 c 1
 609 580 609 584 609 573 c 1
138 65 m 1
 138 138 l 1
 267 139 318 180 352 213 c 1
 386 213 l 1
 386 -140 l 1
 474 -140 l 1
 474 -213 l 1
 154 -213 l 1
 154 -140 l 1
 248 -140 l 1
 248 79 l 1
 215 71 188 65 138 65 c 1
526 65 m 1
 526 138 l 1
 655 139 708 180 742 213 c 1
 776 213 l 1
 776 -140 l 1
 862 -140 l 1
 862 -213 l 1
 542 -213 l 1
 542 -140 l 1
 638 -140 l 1
 638 79 l 1
 605 71 576 65 526 65 c 1
EndSplineSet
EndChar
StartChar: uF268B
Encoding: 992907 992907 142
Width: 1000
Flags: MW
LayerCount: 2
Fore
SplineSet
52 278 m 0
 52 305 81 308 92 308 c 2
 905 308 l 2
 915 308 924 308 933 304 c 0
 943 299 950 288 950 277 c 0
 950 266 944 247 910 247 c 2
 90 247 l 1
 56 248 52 268 52 278 c 0
332 625 m 1
 332 698 l 1
 461 699 513 740 547 773 c 1
 581 773 l 1
 581 420 l 1
 668 420 l 1
 668 347 l 1
 348 347 l 1
 348 420 l 1
 443 420 l 1
 443 639 l 1
 410 631 382 625 332 625 c 1
128 65 m 1
 128 138 l 1
 257 139 308 180 342 213 c 1
 376 213 l 1
 376 -140 l 1
 464 -140 l 1
 464 -213 l 1
 144 -213 l 1
 144 -140 l 1
 238 -140 l 1
 238 79 l 1
 205 71 178 65 128 65 c 1
486 160 m 1
 542 194 591 213 666 213 c 0
 787 213 872 149 872 55 c 0
 872 -25 776 -26 704 -53 c 0
 680 -62 679 -63 586 -106 c 1
 720 -106 l 1
 742 -105 l 1
 872 -105 l 1
 872 -213 l 1
 494 -213 l 1
 494 -107 l 1
 594 -54 l 2
 665 -23 732 -6 732 52 c 0
 732 87 700 112 652 112 c 0
 593 112 563 80 552 69 c 1
 486 160 l 1
EndSplineSet
EndChar
StartChar: uF268C
Encoding: 992908 992908 143
Width: 1000
Flags: MW
LayerCount: 2
Fore
SplineSet
52 278 m 0
 52 305 81 308 92 308 c 2
 905 308 l 2
 915 308 924 308 933 304 c 0
 943 299 950 288 950 277 c 0
 950 266 944 247 910 247 c 2
 90 247 l 1
 56 248 52 268 52 278 c 0
295 401 m 1
 348 465 l 1
 354 459 358 453 365 447 c 0
 378 436 395 427 413 421 c 0
 431 415 453 412 477 412 c 0
 520 412 536 419 543 428 c 0
 557 443 554 465 554 487 c 1
 554 484 554 504 554 501 c 1
 556 521 560 545 548 560 c 0
 545 566 537 572 516 572 c 0
 458 572 438 527 437 527 c 1
 336 527 l 1
 336 779 l 1
 672 779 l 1
 672 702 l 1
 472 702 l 1
 472 629 l 1
 483 630 496 631 521 631 c 0
 574 631 617 626 648 610 c 0
 685 591 705 547 705 486 c 0
 705 429 685 396 654 375 c 0
 609 344 543 337 482 337 c 0
 448 337 420 341 399 346 c 0
 336 362 305 391 295 401 c 1
128 65 m 1
 128 138 l 1
 257 139 308 180 342 213 c 1
 376 213 l 1
 376 -140 l 1
 464 -140 l 1
 464 -213 l 1
 144 -213 l 1
 144 -140 l 1
 238 -140 l 1
 238 79 l 1
 205 71 178 65 128 65 c 1
486 160 m 1
 542 194 591 213 666 213 c 0
 787 213 872 149 872 55 c 0
 872 -25 776 -26 704 -53 c 0
 680 -62 679 -63 586 -106 c 1
 720 -106 l 1
 742 -105 l 1
 872 -105 l 1
 872 -213 l 1
 494 -213 l 1
 494 -107 l 1
 594 -54 l 2
 665 -23 732 -6 732 52 c 0
 732 87 700 112 652 112 c 0
 593 112 563 80 552 69 c 1
 486 160 l 1
EndSplineSet
EndChar
StartChar: uF268D
Encoding: 992909 992909 144
Width: 1000
Flags: MW
LayerCount: 2
Fore
SplineSet
52 278 m 0
 52 305 81 308 92 308 c 2
 905 308 l 2
 915 308 924 308 933 304 c 0
 943 299 950 288 950 277 c 0
 950 266 944 247 910 247 c 2
 90 247 l 1
 56 248 52 268 52 278 c 0
296 691 m 1
 296 779 l 1
 704 779 l 1
 704 696 l 1
 579 590 518 467 518 343 c 1
 373 343 l 1
 373 486 467 607 632 692 c 1
 296 691 l 1
128 65 m 1
 128 138 l 1
 257 139 308 180 342 213 c 1
 376 213 l 1
 376 -140 l 1
 464 -140 l 1
 464 -213 l 1
 144 -213 l 1
 144 -140 l 1
 238 -140 l 1
 238 79 l 1
 205 71 178 65 128 65 c 1
486 160 m 1
 542 194 591 213 666 213 c 0
 787 213 872 149 872 55 c 0
 872 -25 776 -26 704 -53 c 0
 680 -62 679 -63 586 -106 c 1
 720 -106 l 1
 742 -105 l 1
 872 -105 l 1
 872 -213 l 1
 494 -213 l 1
 494 -107 l 1
 594 -54 l 2
 665 -23 732 -6 732 52 c 0
 732 87 700 112 652 112 c 0
 593 112 563 80 552 69 c 1
 486 160 l 1
EndSplineSet
EndChar
StartChar: uF268E
Encoding: 992910 992910 145
Width: 1000
Flags: MW
LayerCount: 2
Fore
SplineSet
52 278 m 0
 52 305 81 308 92 308 c 2
 905 308 l 2
 915 308 924 308 933 304 c 0
 943 299 950 288 950 277 c 0
 950 266 944 247 910 247 c 2
 90 247 l 1
 56 248 52 268 52 278 c 0
138 625 m 1
 138 698 l 1
 267 699 318 740 352 773 c 1
 386 773 l 1
 386 420 l 1
 474 420 l 1
 474 347 l 1
 154 347 l 1
 154 420 l 1
 248 420 l 1
 248 639 l 1
 215 631 188 625 138 625 c 1
526 625 m 1
 526 698 l 1
 655 699 708 740 742 773 c 1
 776 773 l 1
 776 420 l 1
 862 420 l 1
 862 347 l 1
 542 347 l 1
 542 420 l 1
 638 420 l 1
 638 639 l 1
 605 631 576 625 526 625 c 1
128 65 m 1
 128 138 l 1
 257 139 308 180 342 213 c 1
 376 213 l 1
 376 -140 l 1
 464 -140 l 1
 464 -213 l 1
 144 -213 l 1
 144 -140 l 1
 238 -140 l 1
 238 79 l 1
 205 71 178 65 128 65 c 1
486 160 m 1
 542 194 591 213 666 213 c 0
 787 213 872 149 872 55 c 0
 872 -25 776 -26 704 -53 c 0
 680 -62 679 -63 586 -106 c 1
 720 -106 l 1
 742 -105 l 1
 872 -105 l 1
 872 -213 l 1
 494 -213 l 1
 494 -107 l 1
 594 -54 l 2
 665 -23 732 -6 732 52 c 0
 732 87 700 112 652 112 c 0
 593 112 563 80 552 69 c 1
 486 160 l 1
EndSplineSet
EndChar
StartChar: uF268F
Encoding: 992911 992911 146
Width: 1000
Flags: MW
LayerCount: 2
Fore
SplineSet
52 278 m 0
 52 305 81 308 92 308 c 2
 905 308 l 2
 915 308 924 308 933 304 c 0
 943 299 950 288 950 277 c 0
 950 266 944 247 910 247 c 2
 90 247 l 1
 56 248 52 268 52 278 c 0
332 625 m 1
 332 698 l 1
 461 699 513 740 547 773 c 1
 581 773 l 1
 581 420 l 1
 668 420 l 1
 668 347 l 1
 348 347 l 1
 348 420 l 1
 443 420 l 1
 443 639 l 1
 410 631 382 625 332 625 c 1
57 65 m 1
 57 138 l 1
 154 139 192 180 218 213 c 1
 244 213 l 1
 244 -140 l 1
 309 -140 l 1
 309 -213 l 1
 69 -213 l 1
 69 -140 l 1
 140 -140 l 1
 140 79 l 1
 115 71 95 65 57 65 c 1
319 7 m 1
 319 18 319 22 319 33 c 1
 321 120 333 204 419 226 c 0
 435 230 454 232 475 232 c 0
 513 232 557 224 586 194 c 0
 635 144 631 48 630 8 c 1
 630 12 630 6 630 9 c 1
 630 -55 644 -189 528 -218 c 0
 512 -221 494 -223 474 -223 c 0
 289 -223 319 -55 319 7 c 1
425 13 m 1
 425 -102 418 -136 455 -154 c 0
 459 -155 467 -159 475 -159 c 0
 474 -159 491 -160 506 -145 c 0
 534 -118 522 -72 524 17 c 1
 524 26 525 19 525 30 c 1
 525 64 526 122 516 141 c 0
 512 152 497 167 475 167 c 0
 401 167 425 72 425 32 c 1
 425 20 425 24 425 13 c 1
648 7 m 1
 648 18 648 22 648 33 c 1
 650 120 662 204 748 226 c 0
 764 230 783 232 804 232 c 0
 842 232 886 224 915 194 c 0
 964 144 960 48 959 8 c 1
 959 12 959 6 959 9 c 1
 959 -55 973 -189 857 -218 c 0
 841 -221 823 -223 803 -223 c 0
 618 -223 648 -55 648 7 c 1
754 13 m 1
 754 -102 747 -136 784 -154 c 0
 788 -155 796 -159 804 -159 c 0
 803 -159 820 -160 835 -145 c 0
 863 -118 851 -72 853 17 c 1
 853 26 854 19 854 30 c 1
 854 64 855 122 845 141 c 0
 841 152 826 167 804 167 c 0
 730 167 754 72 754 32 c 1
 754 20 754 24 754 13 c 1
EndSplineSet
EndChar
StartChar: uF2F38
Encoding: 995128 995128 362
Width: 1000
VWidth: 0
LayerCount: 2
Fore
SplineSet
71.5 140 m 1
 113.3515625 155.185546875 l 1
 105.478751771 153.903615619 91.27845948 153 81 153 c 24
 69.0112394301 153 46.1221324127 158.469466897 40 160 c 1
 44.5 220.5 l 1
 59.8330576591 217.092653854 77.2039246953 213 97.5 213 c 24
 129.155224935 213 144.902771754 230.680380873 146 262.5 c 2
 146 432.5 l 1
 206 432.5 l 1
 206 254 l 2
 206 201 172.522102858 170.622463066 128.892578125 158.463867188 c 1
 190.342889695 18.2285413767 300.181816805 -95 500 -95 c 27
 731.504474681 -95 895 68.5135525856 895 300 c 27
 895 532.067234306 732.336029173 695 500 695 c 27
 298.152756068 695 189.986273785 581.45585556 128 440 c 1
 71.5 460.5 l 1
 143.244089882 623.119937067 267.471661719 755 500 755 c 27
 767.065465016 755 955 573.54004666 955 300 c 27
 955 27.1830038049 766.305012218 -155 500 -155 c 27
 268.179432312 -155 143.086335947 -22.2623614791 71.5 140 c 1
501.048828125 357.822265625 m 27
 501.048828125 343.509777953 529.990399904 338.203840038 540.5 334 c 0
 574.884637736 320.246144905 621.5 297.666763821 621.5 242.5 c 27
 621.5 183.676577293 586.859953947 155 527.5 155 c 27
 469.073268268 155 439.5 192.318780833 439.5 250.5 c 1
 499.5 249 l 1
 499.5 225.879945462 505.615896353 215 529.5 215 c 27
 552.122304124 215 561.5 219.840228518 561.5 242.5 c 27
 561.5 265.21297559 535.136515332 272.621161556 522 277 c 24
 478.143726438 289.530363875 441 305.856104166 441 355 c 27
 441 411.785581055 475.206804593 447 526.5 447 c 24
 578.963813532 447 604.590939119 423.281680055 614 380 c 1
 554.5 372 l 1
 551.921011916 382.315952336 546.305748573 387 534 387 c 26
 534 387 519.5 387 519.5 387 c 26
 504.226164922 387 501.048828125 372.961861054 501.048828125 357.822265625 c 27
448.5 174 m 1
 384.5 174 l 1
 364.545898438 230.5 l 1
 289.954101562 230.5 l 1
 270 174 l 1
 206 174 l 1
 295.5 426 l 1
 359 426 l 1
 448.5 174 l 1
311.14453125 290.5 m 1
 343.35546875 290.5 l 1
 327.25 336.1015625 l 1
 311.14453125 290.5 l 1
EndSplineSet
Colour: 8080ff
EndChar
StartChar: uF2F39
Encoding: 995129 995129 274
Width: 1000
Flags: MW
LayerCount: 2
Fore
SplineSet
663 730 m 1
 805 730 l 1
 756 511 l 2
 731 400 694 319 644 269 c 1
 825 0 l 1
 667 0 l 1
 426 357 l 1
 413 349 402 335 393 314 c 128
 384 293 373 259 362 211 c 2
 317 0 l 1
 175 0 l 1
 224 219 l 2
 250 338 291 423 348 473 c 1
 175 730 l 1
 333 730 l 1
 566 384 l 1
 585 401 602 446 618 519 c 2
 663 730 l 1
EndSplineSet
EndChar
StartChar: uF2F3A
Encoding: 995130 995130 272
Width: 1000
Flags: MW
LayerCount: 2
Fore
SplineSet
385 523 m 2
 385 210 l 2
 385 171 394 143 411 126 c 128
 428 109 456 100 495 100 c 0
 534 100 565 111 587 132 c 128
 609 153 620 183 620 222 c 128
 620 261 606 290 578 308 c 128
 550 326 505 336 442 336 c 2
 432 336 l 1
 432 431 l 1
 442 431 l 2
 546 431 598 466 598 537 c 0
 598 568 588 593 570 610 c 128
 552 627 526 635 493 635 c 0
 454 635 426 627 410 610 c 128
 394 593 385 564 385 523 c 2
255 512 m 2
 255 664 332 740 487 740 c 0
 559 740 615 723 656 690 c 128
 697 657 718 612 718 557 c 0
 718 516 704 480 677 450 c 128
 650 420 613 402 568 393 c 1
 568 391 l 1
 623 384 666 363 698 330 c 128
 730 297 745 257 745 210 c 0
 745 139 723 84 679 46 c 128
 635 8 570 -10 485 -10 c 0
 404 -10 345 8 309 42 c 128
 273 76 255 132 255 210 c 2
 255 512 l 2
EndSplineSet
EndChar
StartChar: uF2F3B
Encoding: 995131 995131 273
Width: 1000
Flags: MW
LayerCount: 2
Fore
SplineSet
276 260 m 0
 276 345 301 410 350 458 c 128
 399 506 467 530 554 530 c 0
 613 530 669 518 724 493 c 1
 694 394 l 1
 652 418 607 430 560 430 c 0
 521 430 487 419 462 398 c 128
 437 377 421 347 414 308 c 1
 684 308 l 1
 684 212 l 1
 414 212 l 1
 422 173 440 142 466 120 c 128
 492 98 523 88 560 88 c 0
 608 88 653 100 694 124 c 1
 724 27 l 1
 669 2 613 -10 554 -10 c 0
 471 -10 403 14 352 63 c 128
 301 112 276 177 276 260 c 0
EndSplineSet
EndChar
StartChar: uF2F3C
Encoding: 995132 995132 269
Width: 1000
Flags: W
LayerCount: 2
Fore
SplineSet
179 560 m 1
 196 657 l 1
 304 657 l 1
 321 750 l 1
 451 750 l 1
 434 657 l 1
 677 657 l 1
 660 560 l 1
 417 560 l 1
 398 453 l 1
 472 504 560 530 655 530 c 0
 739 530 779 511 801 474 c 128
 823 437 827 377 812 293 c 2
 760 0 l 1
 632 0 l 1
 681 280 l 2
 691 337 688 376 672 396 c 128
 656 416 621 427 569 427 c 0
 523 427 480 411 439 380 c 128
 398 349 374 315 367 277 c 2
 319 0 l 1
 189 0 l 1
 287 560 l 1
 179 560 l 1
EndSplineSet
EndChar
StartChar: uF2F3D
Encoding: 995133 995133 272
Width: 1000
Flags: W
LayerCount: 2
Fore
SplineSet
155 -220 m 1
 285 520 l 1
 413 520 l 1
 358 210 l 2
 350 165 354 134 370 118 c 0
 386 102 416 94 461 94 c 0
 505 94 547 108 589 138 c 0
 631 168 656 203 663 243 c 2
 711 520 l 1
 845 520 l 1
 754 0 l 1
 632 0 l 1
 640 73 l 1
 609 47 571 27 530 12 c 0
 489 -3 449 -10 408 -10 c 0
 374 -10 345 -5 322 4 c 1
 283 -220 l 1
 155 -220 l 1
EndSplineSet
EndChar
StartChar: uF2F41
Encoding: 995137 995137 279
Width: 1000
Flags: MW
LayerCount: 2
Fore
SplineSet
500 -110 m 0
 285 -110 110 65 110 280 c 0
 110 495 285 670 500 670 c 0
 715 670 890 495 890 280 c 0
 890 65 715 -110 500 -110 c 0
500 -70 m 0
 693 -70 850 87 850 280 c 0
 850 473 693 630 500 630 c 0
 307 630 150 473 150 280 c 0
 150 87 307 -70 500 -70 c 0
342 481 m 1
 330 497 317 513 302 527 c 1
 331 556 l 1
 347 540 361 522 374 504 c 1
 342 481 l 1
658 481 m 1
 626 504 l 1
 639 522 653 540 669 556 c 1
 698 527 l 1
 683 513 670 497 658 481 c 1
393 371 m 1
 388 390 381 409 372 428 c 1
 409 445 l 1
 418 424 426 403 432 381 c 1
 393 371 l 1
607 371 m 1
 568 381 l 1
 574 403 582 424 591 445 c 1
 628 428 l 1
 619 409 612 390 607 371 c 1
444 246 m 1
 404 250 l 1
 405 260 405 270 405 280 c 0
 405 290 405 300 404 310 c 1
 444 314 l 1
 445 303 445 291 445 280 c 0
 445 269 445 257 444 246 c 1
556 246 m 1
 555 257 555 269 555 280 c 0
 555 291 555 303 556 314 c 1
 596 310 l 1
 595 300 595 290 595 280 c 0
 595 270 595 260 596 250 c 1
 556 246 l 1
409 115 m 1
 372 132 l 1
 381 151 388 170 393 189 c 1
 432 179 l 1
 426 157 418 136 409 115 c 1
591 115 m 1
 582 136 574 157 568 179 c 1
 607 189 l 1
 612 170 619 151 628 132 c 1
 591 115 l 1
331 4 m 1
 302 33 l 1
 317 47 330 63 342 79 c 1
 374 56 l 1
 361 38 347 20 331 4 c 1
669 4 m 1
 653 20 639 38 626 56 c 1
 658 79 l 1
 670 63 683 47 698 33 c 1
 669 4 l 1
EndSplineSet
Colour: 8000ff
EndChar
StartChar: uF2F44
Encoding: 995140 995140 309
Width: 1000
Flags: MW
LayerCount: 2
Fore
SplineSet
801 83 m 2
 801 33 777 -10 732 -43 c 0
 691 -73 643 -89 593 -89 c 0
 563 -89 537 -81 517 -66 c 0
 495 -50 483 -25 483 5 c 0
 483 51 506 93 550 128 c 0
 590 160 636 177 682 177 c 0
 722 177 753 168 763 153 c 1
 761 456 l 1
 415 370 l 1
 417 -27 l 2
 417 -77 393 -120 348 -153 c 0
 307 -183 259 -199 209 -199 c 0
 179 -199 153 -192 133 -178 c 0
 110 -162 99 -136 99 -105 c 0
 99 -59 122 -17 166 17 c 0
 206 49 252 66 298 67 c 0
 338 67 369 58 379 43 c 1
 376 664 l 1
 798 766 l 1
 801 83 l 2
760 567 m 1
 761 647 l 1
 415 560 l 1
 414 481 l 1
 760 567 l 1
EndSplineSet
Colour: ff
EndChar
StartChar: uF2F46
Encoding: 995142 995142 149
Width: 1000
Flags: MW
LayerCount: 2
Fore
SplineSet
36 158 m 4
 36 402 190 463 341 463 c 4
 586 463 648 311 648 158 c 4
 648 -86 494 -147 343 -147 c 4
 98 -147 36 5 36 158 c 4
86 158 m 4
 86 -1 156 -97 341 -97 c 4
 524 -97 598 -5 598 158 c 4
 598 340 505 413 342 413 c 4
 203 413 86 362 86 158 c 4
158 146 m 0
 158 183 170 219 195 247 c 0
 241 298 327 306 386 306 c 0
 423 306 446 302 485 290 c 1
 471 212 l 1
 454 226 435 245 385 245 c 0
 266 245 247 186 247 146 c 0
 247 67 315 47 389 47 c 0
 441 47 457 58 487 77 c 1
 492 10 l 1
 463 -4 442 -14 389 -14 c 0
 291 -14 190 4 164 103 c 0
 160 117 158 131 158 146 c 0
EndSplineSet
EndChar
StartChar: uF2F47
Encoding: 995143 995143 150
Width: 1000
VWidth: 900
Flags: MW
LayerCount: 2
Fore
SplineSet
336 458 m 4
 336 702 490 763 641 763 c 4
 886 763 948 611 948 458 c 4
 948 214 794 153 643 153 c 4
 398 153 336 305 336 458 c 4
386 458 m 4
 386 299 456 203 641 203 c 4
 824 203 898 295 898 458 c 4
 898 640 805 713 642 713 c 4
 503 713 386 662 386 458 c 4
458 446 m 0
 458 483 470 519 495 547 c 0
 541 598 627 606 686 606 c 0
 723 606 746 602 785 590 c 1
 771 512 l 1
 754 526 735 545 685 545 c 0
 566 545 547 486 547 446 c 0
 547 367 615 347 689 347 c 0
 741 347 757 358 787 377 c 1
 792 310 l 1
 763 296 742 286 689 286 c 0
 591 286 490 304 464 403 c 0
 460 417 458 431 458 446 c 0
EndSplineSet
EndChar
StartChar: uF2F48
Encoding: 995144 995144 151
Width: 1000
VWidth: 900
Flags: MW
LayerCount: 2
Fore
SplineSet
36 158 m 0
 36 402 190 463 341 463 c 0
 586 463 648 311 648 158 c 0
 648 -86 494 -147 343 -147 c 0
 98 -147 36 5 36 158 c 0
86 158 m 0
 86 -1 156 -97 341 -97 c 0
 524 -97 598 -5 598 158 c 0
 598 340 505 413 342 413 c 0
 203 413 86 362 86 158 c 0
195 0 m 1
 195 292 l 1
 352 292 l 2
 386 292 429 291 464 278 c 0
 481 272 498 264 509 250 c 0
 519 237 525 221 525 204 c 0
 525 159 482 136 436 129 c 1
 544 0 l 1
 455 0 l 1
 354 124 l 1
 282 124 l 1
 282 0 l 1
 195 0 l 1
282 168 m 1
 348 168 l 2
 351 168 354 167 358 167 c 0
 384 167 406 170 420 175 c 4
 434 180 442 189 442 204 c 0
 442 233 414 240 358 240 c 2
 283 240 l 1
 282 212 l 1
 282 168 l 1
EndSplineSet
EndChar
StartChar: uF2F49
Encoding: 995145 995145 152
Width: 1000
Flags: MW
LayerCount: 2
Fore
SplineSet
336 458 m 0
 336 702 490 763 641 763 c 0
 886 763 948 611 948 458 c 0
 948 214 794 153 643 153 c 0
 398 153 336 305 336 458 c 0
386 458 m 0
 386 299 456 203 641 203 c 0
 824 203 898 295 898 458 c 0
 898 640 805 713 642 713 c 0
 503 713 386 662 386 458 c 0
495 300 m 1
 495 592 l 1
 652 592 l 2
 686 592 729 591 764 578 c 0
 781 572 798 564 809 550 c 0
 819 537 825 521 825 504 c 0
 825 459 782 436 736 429 c 1
 844 300 l 1
 755 300 l 1
 654 424 l 1
 582 424 l 1
 582 300 l 1
 495 300 l 1
582 468 m 1
 648 468 l 2
 651 468 654 467 658 467 c 0
 684 467 706 470 720 475 c 4
 734 480 742 489 742 504 c 0
 742 533 714 540 658 540 c 2
 583 540 l 1
 582 512 l 1
 582 468 l 1
EndSplineSet
EndChar
StartChar: uF2F4F
Encoding: 995151 995151 16
Width: 1000
VWidth: 0
Flags: MW
LayerCount: 2
Fore
SplineSet
251 695 m 1xe0
 382 695 l 1xe0
 369 217 l 1
 264 217 l 1xd0
 252 652 l 5
 251 695 l 1xe0
251 0 m 1
 251 131 l 1
 382 131 l 1
 382 0 l 1
 251 0 l 1
618 695 m 1xe0
 749 695 l 1xe0
 736 217 l 1
 631 217 l 1xd0
 619 652 l 5
 618 695 l 1xe0
618 0 m 1
 618 131 l 1
 749 131 l 1
 749 0 l 1
 618 0 l 1
EndSplineSet
EndChar
StartChar: uF2F50
Encoding: 995152 995152 17
Width: 1000
VWidth: 0
Flags: MW
LayerCount: 2
Fore
SplineSet
146 695 m 1xe0
 278 695 l 1xe0
 264 217 l 1
 160 217 l 1xd0
 148 652 l 5
 146 695 l 1xe0
146 0 m 1
 146 131 l 1
 278 131 l 1
 278 0 l 1
 146 0 l 1
456 657 m 1
 506 685 563 704 636 706 c 2
 648 706 l 2xd8
 803 706 854 644 854 557 c 0
 854 469 798 441 782 428 c 0
 692 355 692 284 692 250 c 2
 692 217 l 1
 588 217 l 1
 588 249 l 2
 588 410 689 479 708 511 c 0
 717 528 718 552 718 562 c 0
 718 621 699 633 644 633 c 0
 574 633 526 602 492 562 c 1
 456 657 l 1
574 0 m 1
 574 131 l 1
 706 131 l 1
 706 0 l 1
 574 0 l 1
EndSplineSet
EndChar
StartChar: uF2F51
Encoding: 995153 995153 18
Width: 1000
Flags: MW
LayerCount: 2
Fore
SplineSet
252 0 m 1
 252 131 l 1
 383 131 l 1
 383 0 l 1
 252 0 l 1
616 695 m 1xe0
 748 695 l 1xe0
 458 217 l 1
 354 217 l 1xd0
 593 652 l 1
 616 695 l 1xe0
EndSplineSet
EndChar
StartChar: uF2F52
Encoding: 995154 995154 19
Width: 1000
VWidth: 0
Flags: MW
LayerCount: 2
Fore
SplineSet
335 695 m 1xe0
 466 695 l 1xe0
 325 217 l 1
 220 217 l 1xd0
 325 652 l 1
 335 695 l 1xe0
167 0 m 1
 167 131 l 1
 298 131 l 1
 298 0 l 1
 167 0 l 1
702 695 m 1xe0
 833 695 l 1xe0
 692 217 l 1
 587 217 l 1xd0
 692 652 l 1
 702 695 l 1xe0
534 0 m 1
 534 131 l 1
 665 131 l 1
 665 0 l 1
 534 0 l 1
EndSplineSet
EndChar
StartChar: uF2F53
Encoding: 995155 995155 20
Width: 1000
Flags: MW
LayerCount: 2
Fore
SplineSet
246 695 m 1xe0
 377 695 l 1xe0
 236 217 l 1
 131 217 l 1xd0
 235 652 l 1
 246 695 l 1xe0
77 0 m 1
 77 131 l 1
 208 131 l 1
 208 0 l 1
 77 0 l 1
546 657 m 1
 604 685 664 704 738 706 c 2
 750 706 l 2xd8
 905 706 939 644 916 557 c 0
 892 469 829 441 810 428 c 0
 700 355 682 284 673 250 c 2
 664 217 l 1
 559 217 l 1
 568 249 l 2
 611 410 730 479 758 511 c 0
 772 528 778 552 781 562 c 0
 797 621 781 633 726 633 c 0
 656 633 600 602 555 562 c 1
 546 657 l 1
505 0 m 1
 505 131 l 1
 636 131 l 1
 636 0 l 1
 505 0 l 1
EndSplineSet
EndChar
StartChar: uF2F54
Encoding: 995156 995156 275
Width: 1000
Flags: MW
LayerCount: 2
Fore
SplineSet
14 -81 m 0
 14 -74 16 -63 30 -47 c 2
 830 771 l 2
 840 782 854 798 868 798 c 0
 877 798 885 790 885 781 c 0
 885 772 878 762 873 756 c 2
 70 -71 l 2
 63 -78 46 -99 31 -99 c 0
 22 -99 14 -90 14 -81 c 0
114 -181 m 0
 114 -174 116 -163 130 -147 c 2
 930 671 l 2
 940 682 954 698 968 698 c 0
 977 698 985 690 985 681 c 0
 985 672 978 662 973 656 c 2
 170 -171 l 2
 163 -178 146 -199 131 -199 c 0
 122 -199 114 -190 114 -181 c 0
EndSplineSet
EndChar
StartChar: uF2F55
Encoding: 995157 995157 280
Width: 1000
Flags: MW
LayerCount: 2
Fore
SplineSet
114 781 m 0
 114 790 122 798 131 798 c 0
 145 798 159 782 169 771 c 2
 969 -47 l 2
 983 -63 985 -74 985 -81 c 0
 985 -90 977 -99 968 -99 c 0
 953 -99 936 -78 929 -71 c 2
 126 756 l 2
 121 762 114 772 114 781 c 0
14 681 m 0
 14 690 22 698 31 698 c 0
 45 698 59 682 69 671 c 2
 869 -147 l 2
 883 -163 885 -174 885 -181 c 0
 885 -190 877 -199 868 -199 c 0
 853 -199 836 -178 829 -171 c 2
 26 656 l 2
 21 662 14 672 14 681 c 0
EndSplineSet
EndChar
StartChar: uF2F58
Encoding: 995160 995160 314
Width: 1000
Flags: MW
LayerCount: 2
Fore
SplineSet
840 515 m 0
 840 465 825 418 794 379 c 0
 760 337 716 315 666 316 c 0
 628 316 586 331 545 361 c 1
 491 410 491 410 443 441 c 0
 404 469 370 482 334 482 c 0
 283 482 247 460 221 414 c 0
 212 398 207 376 204 348 c 0
 203 329 194 317 182 316 c 0
 169 317 160 332 160 354 c 0
 160 404 175 451 206 490 c 0
 239 531 283 553 334 553 c 0
 372 553 413 538 455 508 c 0
 489 481 524 455 557 428 c 0
 597 400 631 387 666 387 c 0
 693 387 717 396 739 411 c 0
 761 426 776 445 787 470 c 0
 792 481 793 498 796 522 c 0
 797 541 807 553 818 553 c 0
 831 553 840 538 840 515 c 0
840 138 m 0
 840 122 829 111 814 110 c 2
 186 110 l 2
 169 111 160 123 160 138 c 0
 160 153 169 165 186 166 c 2
 814 166 l 2
 829 165 840 154 840 138 c 0
EndSplineSet
Colour: ff
EndChar
StartChar: uF2F5A
Encoding: 995162 995162 316
Width: 1000
Flags: MW
LayerCount: 2
Fore
SplineSet
814 431 m 0
 814 420 805 411 795 406 c 2
 226 136 l 2
 222 134 217 134 214 134 c 0
 198 135 187 146 186 162 c 0
 186 173 193 183 203 187 c 2
 730 431 l 1
 203 675 l 2
 193 679 186 689 186 700 c 0
 187 716 198 727 214 728 c 0
 218 728 223 726 225 725 c 2
 795 456 l 2
 805 451 814 442 814 431 c 0
840 22 m 0
 840 -28 825 -75 794 -113 c 0
 760 -155 716 -177 666 -176 c 0
 628 -176 586 -161 545 -131 c 1
 491 -82 491 -82 443 -51 c 0
 404 -23 370 -10 334 -10 c 0
 283 -10 247 -32 221 -78 c 0
 212 -94 207 -116 204 -145 c 0
 203 -164 194 -176 182 -176 c 0
 169 -175 160 -160 160 -138 c 0
 160 -88 175 -41 206 -2 c 0
 239 39 283 61 334 61 c 0
 372 61 413 46 455 16 c 0
 489 -11 524 -37 557 -64 c 0
 597 -92 631 -105 666 -105 c 0
 693 -105 717 -96 739 -81 c 0
 761 -66 776 -47 787 -22 c 0
 792 -11 793 6 796 29 c 0
 797 48 806 60 818 61 c 0
 831 60 840 45 840 22 c 0
EndSplineSet
Colour: ff
EndChar
StartChar: uF2F71
Encoding: 995185 995185 23
Width: 1000
Flags: MW
LayerCount: 2
Fore
SplineSet
446 -200 m 5
 446 83 423 403 297 633 c 0
 280 662 280 665 280 674 c 0
 280 694 290 700 298 700 c 0
 317 700 408 579 474 372 c 0
 521 223 554 25 554 -200 c 1
 446 -200 l 5
EndSplineSet
EndChar
StartChar: uF2F72
Encoding: 995186 995186 24
Width: 1000
Flags: MW
LayerCount: 2
Fore
SplineSet
554 800 m 1
 554 609 531 278 375 -1 c 0
 357 -32 315 -99 298 -99 c 0
 290 -99 280 -93 280 -73 c 0
 280 -64 281 -63 296 -36 c 0
 406 164 446 445 446 800 c 1
 554 800 l 1
EndSplineSet
EndChar
StartChar: uF2F73
Encoding: 995187 995187 25
Width: 1000
Flags: MW
LayerCount: 2
Fore
SplineSet
1000 354 m 1
 1000 246 l 1
 842 246 675 245 533 219 c 0
 303 177 194 112 145 83 c 0
 143 83 136 80 127 80 c 0
 107 80 101 90 101 98 c 0
 101 117 222 208 429 274 c 0
 578 321 775 354 1000 354 c 1
EndSplineSet
EndChar
StartChar: uF2F76
Encoding: 995190 995190 28
Width: 1000
Flags: MW
LayerCount: 2
Fore
SplineSet
0 354 m 5
 283 354 603 377 833 503 c 0
 862 520 865 520 874 520 c 0
 894 520 900 510 900 502 c 0
 900 483 779 392 572 326 c 0
 423 279 225 246 0 246 c 1
 0 354 l 5
EndSplineSet
EndChar
StartChar: uF2F7A
Encoding: 995194 995194 32
Width: 1000
Flags: MW
LayerCount: 2
Fore
SplineSet
216 -100 m 1
 216 -35 l 1
 446 -35 l 1
 446 800 l 1
 554 800 l 1
 554 -100 l 1
 216 -100 l 1
EndSplineSet
EndChar
StartChar: uF2F7B
Encoding: 995195 995195 33
Width: 1000
Flags: MW
LayerCount: 2
Fore
SplineSet
100 354 m 1
 1000 354 l 1
 1000 246 l 1
 165 246 l 1
 165 16 l 1
 100 16 l 1
 100 354 l 1
EndSplineSet
EndChar
StartChar: uF2F7C
Encoding: 995196 995196 34
Width: 1000
Flags: MW
LayerCount: 2
Fore
SplineSet
0 354 m 5
 900 354 l 1
 900 16 l 1
 835 16 l 1
 835 246 l 1
 0 246 l 1
 0 354 l 5
EndSplineSet
EndChar
StartChar: uF2F84
Encoding: 995204 995204 42
Width: 1000
Flags: MW
LayerCount: 2
Fore
SplineSet
0 354 m 1
 760 354 l 1
 900 16 l 1
 835 16 l 1
 735 246 l 1
 0 246 l 1
 0 354 l 1
EndSplineSet
EndChar
StartChar: uF2F86
Encoding: 995206 995206 44
Width: 1000
Flags: MW
LayerCount: 2
Fore
SplineSet
0 354 m 1
 735 354 l 1
 835 584 l 1
 900 584 l 1
 760 246 l 1
 0 246 l 1
 0 354 l 1
EndSplineSet
EndChar
StartChar: uF2F8F
Encoding: 995215 995215 280
Width: 1000
Flags: MW
LayerCount: 2
Fore
SplineSet
703 518 m 24
 726 552 759 606 814 606 c 0
 864 606 900 551 900 502 c 27
 900 434 851 401 806 377 c 24
 773 358 712 338 676 326 c 2
 592 300 l 1
 676 274 l 2
 711 263 773 242 806 223 c 24
 851 199 900 166 900 98 c 16
 900 49 864 -6 812 -6 c 0
 757 -6 726 48 703 82 c 24
 678 121 645 192 624 229 c 5
 508 274 l 5
 96 156 l 1
 94 164 l 1
 440 300 l 1
 94 436 l 1
 96 444 l 1
 508 326 l 1
 624 371 l 1
 649 422 673 472 703 518 c 24
778 430 m 24
 802 443 840 463 840 499 c 24
 840 510 824 546 813 546 c 27
 789 546 764 501 753 485 c 24
 736 458 718 427 704 399 c 1
 715 403 763 422 778 430 c 24
840 100 m 24
 840 127 820 143 803 154 c 24
 778 170 729 188 704 201 c 1
 718 173 736 142 753 115 c 24
 764 99 789 53 813 53 c 24
 825 53 840 86 840 100 c 24
EndSplineSet
Colour: 8080ff
EndChar
StartChar: uF2F97
Encoding: 995223 995223 321
Width: 1000
Flags: MW
LayerCount: 2
Fore
SplineSet
350 619 m 1
 496 123 l 1
 498 123 l 1
 646 619 l 1
 350 619 l 1
172 730 m 5
 274 730 l 1
 316 730 l 1
 678 730 l 1
 726 730 l 1
 828 730 l 1
 574 0 l 1
 424 0 l 1
 172 730 l 5
EndSplineSet
Colour: ff
EndChar
StartChar: uF2F9A
Encoding: 995226 995226 324
Width: 1000
Flags: MW
LayerCount: 2
Fore
SplineSet
860 284 m 0
 860 186 826 98 756 28 c 0
 686 -42 599 -77 500 -77 c 0
 401 -77 315 -41 245 29 c 0
 175 99 140 185 140 284 c 0
 140 383 175 470 245 540 c 0
 315 610 401 645 500 645 c 0
 599 645 686 610 756 540 c 0
 826 470 860 382 860 284 c 0
804 284 m 0
 804 368 775 439 715 499 c 0
 655 559 584 589 500 589 c 0
 415 589 345 560 285 500 c 0
 225 440 196 369 196 284 c 0
 196 200 226 129 286 69 c 0
 346 9 416 -21 500 -21 c 0
 584 -21 655 9 715 69 c 0
 775 129 804 200 804 284 c 0
814 284 m 0
 814 268 803 257 788 256 c 2
 214 256 l 2
 198 257 187 268 186 284 c 0
 187 300 198 311 214 312 c 2
 788 312 l 2
 803 311 814 300 814 284 c 0
EndSplineSet
Colour: ff
EndChar
StartChar: uF2F9B
Encoding: 995227 995227 294
Width: 1000
Flags: MW
LayerCount: 2
Fore
SplineSet
124 290 m 0
 124 393 160 483 234 557 c 0
 308 631 397 667 500 667 c 0
 603 667 694 631 767 557 c 0
 840 483 876 393 876 290 c 0
 876 187 840 97 767 23 c 0
 694 -51 603 -87 500 -87 c 0
 397 -87 308 -51 234 23 c 0
 160 97 124 187 124 290 c 0
176 290 m 0
 176 209 202 140 252 81 c 1
 709 537 l 1
 649 588 580 613 500 613 c 0
 410 613 334 582 271 519 c 0
 208 456 176 379 176 290 c 0
291 43 m 1
 351 -8 419 -33 500 -33 c 0
 590 -33 666 -2 729 61 c 0
 792 124 824 201 824 290 c 0
 824 371 798 440 748 499 c 1
 291 43 l 1
EndSplineSet
Colour: ff
EndChar
StartChar: uF2F9C
Encoding: 995228 995228 326
Width: 1000
Flags: MW
LayerCount: 2
Fore
SplineSet
860 284 m 0
 860 186 826 98 756 28 c 0
 686 -42 599 -77 500 -77 c 0
 401 -77 315 -41 245 29 c 0
 175 99 140 185 140 284 c 0
 140 383 175 470 245 540 c 0
 315 610 401 645 500 645 c 0
 599 645 686 610 756 540 c 0
 826 470 860 382 860 284 c 0
806 309 m 1
 799 381 770 445 715 500 c 0
 660 555 596 584 525 591 c 1
 526 310 l 1
 806 309 l 1
474 310 m 1
 475 591 l 1
 403 584 340 555 285 500 c 0
 230 445 201 381 194 309 c 1
 474 310 l 1
806 259 m 1
 526 258 l 1
 525 -22 l 1
 596 -15 660 14 715 69 c 0
 770 124 799 188 806 259 c 1
475 -22 m 1
 474 258 l 1
 194 259 l 1
 201 188 231 125 286 70 c 0
 341 15 404 -15 475 -22 c 1
EndSplineSet
Colour: ff
EndChar
StartChar: uF2F9D
Encoding: 995229 995229 296
Width: 1000
Flags: MW
LayerCount: 2
Fore
SplineSet
124 290 m 0
 124 393 160 483 234 557 c 0
 308 631 397 667 500 667 c 0
 603 667 694 631 767 557 c 0
 840 483 876 393 876 290 c 0
 876 187 840 97 767 23 c 0
 694 -51 603 -87 500 -87 c 0
 397 -87 308 -51 234 23 c 0
 160 97 124 187 124 290 c 0
176 290 m 0
 176 209 202 140 252 81 c 1
 462 290 l 1
 252 499 l 1
 201 439 176 371 176 290 c 0
291 43 m 1
 351 -8 419 -33 500 -33 c 0
 580 -33 650 -7 709 43 c 1
 500 252 l 1
 291 43 l 1
291 537 m 1
 500 328 l 1
 709 537 l 1
 649 588 580 613 500 613 c 0
 419 613 350 587 291 537 c 1
538 290 m 1
 748 81 l 1
 799 141 824 209 824 290 c 0
 824 371 798 440 748 499 c 1
 538 290 l 1
EndSplineSet
Colour: ff
EndChar
StartChar: uF2F9E
Encoding: 995230 995230 328
Width: 1000
Flags: MW
LayerCount: 2
Fore
SplineSet
846 -35 m 2
 845 -51 835 -61 819 -62 c 2
 181 -62 l 2
 165 -61 155 -51 154 -35 c 2
 154 604 l 2
 155 619 165 629 181 631 c 2
 819 631 l 2
 834 630 844 620 846 604 c 2
 846 -35 l 2
792 310 m 1
 792 577 l 1
 526 577 l 1
 526 310 l 1
 792 310 l 1
474 310 m 1
 474 577 l 1
 208 577 l 1
 208 310 l 1
 474 310 l 1
792 -8 m 1
 792 258 l 1
 526 258 l 1
 526 -8 l 1
 792 -8 l 1
474 -8 m 1
 474 258 l 1
 208 258 l 1
 208 -8 l 1
 474 -8 l 1
EndSplineSet
Colour: ff
EndChar
StartChar: uF2F9F
Encoding: 995231 995231 285
Width: 1000
VWidth: 1050
Flags: MW
LayerCount: 2
Fore
SplineSet
5 305 m 0
 5 395 27 478 71 553 c 0
 115 628 175 690 251 734 c 0
 327 778 410 800 500 800 c 0
 590 800 673 778 749 734 c 0
 825 690 885 628 929 553 c 0
 973 478 995 395 995 305 c 0
 995 215 973 132 929 57 c 0
 885 -18 825 -80 749 -124 c 0
 673 -168 590 -190 500 -190 c 0
 410 -190 327 -168 251 -124 c 0
 175 -80 115 -18 71 57 c 0
 27 132 5 215 5 305 c 0
60 278 m 1
 67 166 109 72 188 -7 c 0
 267 -86 363 -128 473 -135 c 1
 473 278 l 1
 60 278 l 1
60 332 m 1
 473 332 l 1
 473 745 l 1
 361 738 267 696 188 617 c 0
 109 538 67 442 60 332 c 1
527 -135 m 1
 639 -128 733 -86 812 -7 c 0
 891 72 933 168 940 278 c 1
 527 278 l 1
 527 -135 l 1
527 332 m 1
 940 332 l 1
 933 444 891 538 812 617 c 0
 733 696 637 738 527 745 c 1
 527 332 l 1
EndSplineSet
Colour: ff
EndChar
StartChar: uF2FA3
Encoding: 995235 995235 331
Width: 1000
Flags: MW
LayerCount: 2
Fore
SplineSet
791 284 m 1
 209 -78 l 1
 209 646 l 1
 791 284 l 1
EndSplineSet
Colour: ff
EndChar
StartChar: uF2FA4
Encoding: 995236 995236 332
Width: 1000
Flags: MW
LayerCount: 2
Fore
SplineSet
896 291 m 1
 354 291 l 1
 351 104 l 1
 90 361 l 1
 351 618 l 1
 354 431 l 1
 896 431 l 1
 896 291 l 1
842 345 m 1
 842 377 l 1
 300 377 l 1
 303 502 l 1
 166 361 l 1
 303 220 l 1
 300 345 l 1
 842 345 l 1
EndSplineSet
Colour: ff
EndChar
StartChar: uF2FA5
Encoding: 995237 995237 333
Width: 1000
Flags: MW
LayerCount: 2
Fore
SplineSet
910 361 m 1
 649 104 l 1
 646 291 l 1
 104 291 l 1
 104 431 l 1
 646 431 l 1
 649 618 l 1
 910 361 l 1
834 361 m 1
 697 502 l 1
 700 377 l 1
 158 377 l 1
 158 345 l 1
 700 345 l 1
 697 220 l 1
 834 361 l 1
EndSplineSet
Colour: ff
EndChar
StartChar: uF2FA6
Encoding: 995238 995238 334
Width: 1000
Flags: MW
LayerCount: 2
Fore
SplineSet
743 524 m 1
 570 521 l 1
 570 -34 l 1
 430 -34 l 1
 430 521 l 1
 257 524 l 1
 500 771 l 1
 743 524 l 1
640 559 m 1
 500 695 l 1
 360 559 l 1
 484 562 l 1
 484 20 l 1
 516 20 l 1
 516 562 l 1
 640 559 l 1
EndSplineSet
Colour: ff
EndChar
StartChar: uF2FA7
Encoding: 995239 995239 335
Width: 1000
Flags: MW
LayerCount: 2
Fore
SplineSet
743 199 m 1
 500 -48 l 1
 257 199 l 1
 430 202 l 1
 430 757 l 1
 570 757 l 1
 570 202 l 1
 743 199 l 1
640 164 m 1
 516 161 l 1
 516 703 l 1
 484 703 l 1
 484 161 l 1
 360 164 l 1
 500 28 l 1
 640 164 l 1
EndSplineSet
Colour: ff
EndChar
StartChar: uF2FA8
Encoding: 995240 995240 336
Width: 1000
Flags: MW
LayerCount: 2
Fore
SplineSet
951 187 m 0
 951 171 940 160 925 159 c 2
 326 164 l 1
 339 158 359 134 384 100 c 0
 412 61 428 33 428 20 c 0
 427 9 419 3 410 1 c 0
 402 1 398 1 391 1 c 0
 386 1 379 5 375 11 c 0
 351 57 326 95 297 126 c 0
 241 187 175 229 97 256 c 0
 89 258 77 261 62 266 c 0
 55 268 48 277 49 285 c 0
 49 292 54 297 61 302 c 0
 70 304 81 308 96 313 c 0
 151 331 201 357 246 395 c 0
 297 435 340 490 375 557 c 0
 379 564 393 567 411 567 c 0
 422 566 429 557 428 547 c 0
 428 535 412 507 384 469 c 0
 359 436 340 411 326 404 c 1
 925 409 l 2
 940 408 951 397 951 381 c 0
 951 365 940 354 925 353 c 2
 278 353 l 1
 241 322 197 296 155 284 c 1
 197 272 241 246 278 215 c 1
 925 215 l 2
 940 214 951 203 951 187 c 0
EndSplineSet
Colour: ff
EndChar
StartChar: uF2FA9
Encoding: 995241 995241 298
Width: 1000
VWidth: 940
Flags: MW
LayerCount: 2
Fore
SplineSet
607 518 m 2
 635 549 l 2
 639 553 645 553 649 550 c 2
 919 313 l 2
 924 309 923 301 919 297 c 2
 649 60 l 2
 645 56 638 57 635 61 c 2
 607 92 l 2
 603 96 604 104 607 107 c 2
 796 272 l 1
 204 272 l 1
 393 107 l 2
 398 103 396 95 393 92 c 2
 365 61 l 2
 361 57 355 57 351 60 c 2
 81 297 l 2
 76 301 77 309 81 313 c 2
 351 550 l 2
 355 554 362 553 365 549 c 2
 393 518 l 2
 397 514 396 506 393 503 c 2
 204 338 l 1
 796 338 l 1
 607 503 l 2
 602 507 604 515 607 518 c 2
EndSplineSet
Colour: ff
EndChar
StartChar: uF2FAA
Encoding: 995242 995242 338
Width: 1000
Flags: MW
LayerCount: 2
Fore
SplineSet
947 -144 m 0
 946 -154 938 -163 926 -163 c 1
 891 -143 l 2
 851 -118 806 -107 756 -107 c 0
 714 -107 674 -115 638 -133 c 1
 619 -134 622 -133 605 -151 c 1
 598 -151 591 -146 583 -140 c 0
 575 -133 570 -125 570 -120 c 0
 570 -113 574 -107 578 -103 c 0
 634 -69 692 -52 752 -53 c 0
 777 -53 802 -56 818 -65 c 1
 59 684 l 2
 55 688 52 696 53 703 c 0
 54 719 65 730 82 732 c 0
 89 732 96 729 100 725 c 2
 850 -34 l 1
 840 -17 837 9 836 32 c 0
 836 89 853 147 887 205 c 0
 891 210 898 215 903 215 c 0
 908 215 917 211 924 204 c 0
 931 197 935 188 935 181 c 2
 917 145 l 2
 899 109 891 71 891 27 c 0
 891 4 893 -16 898 -35 c 0
 905 -62 914 -87 927 -107 c 0
 940 -128 947 -141 947 -144 c 0
EndSplineSet
Colour: ff
EndChar
StartChar: uF2FAB
Encoding: 995243 995243 339
Width: 1000
Flags: MW
LayerCount: 2
Fore
SplineSet
947 702 m 0
 947 696 945 689 941 684 c 2
 182 -65 l 2
 198 -55 223 -52 248 -53 c 0
 308 -53 366 -70 421 -102 c 0
 427 -105 431 -114 430 -121 c 0
 430 -125 425 -133 417 -140 c 0
 409 -146 402 -151 395 -151 c 0
 381 -143 375 -139 362 -133 c 0
 326 -115 287 -107 244 -107 c 0
 194 -107 149 -119 109 -143 c 0
 87 -156 68 -163 66 -161 c 0
 61 -163 52 -153 53 -143 c 0
 53 -140 61 -128 74 -107 c 0
 87 -87 95 -63 102 -35 c 0
 107 -15 109 5 109 27 c 0
 109 71 101 109 83 145 c 2
 65 181 l 2
 65 188 70 197 77 204 c 0
 84 211 92 215 97 215 c 0
 102 215 109 210 113 205 c 0
 147 148 163 90 164 32 c 0
 164 7 161 -17 150 -34 c 2
 900 725 l 2
 904 729 911 732 918 732 c 0
 935 730 946 719 947 702 c 0
EndSplineSet
Colour: ff
EndChar
StartChar: uF2FAC
Encoding: 995244 995244 295
Width: 1000
Flags: MW
LayerCount: 2
Fore
SplineSet
757 74 m 2
 726 43 l 2
 722 39 716 39 712 43 c 2
 289 465 l 1
 295 367 l 1
 305 215 l 2
 305 209 301 204 296 204 c 2
 254 201 l 2
 248 201 243 206 243 210 c 2
 233 367 l 1
 220 569 l 2
 220 575 226 580 231 580 c 2
 433 567 l 5
 590 557 l 2
 596 557 599 550 599 546 c 2
 596 504 l 2
 596 498 590 495 585 495 c 2
 433 505 l 1
 335 511 l 1
 757 88 l 2
 761 84 761 78 757 74 c 2
EndSplineSet
Colour: ff
EndChar
StartChar: uF2FAD
Encoding: 995245 995245 341
Width: 1000
Flags: MW
LayerCount: 2
Fore
SplineSet
947 712 m 0
 947 709 940 696 927 675 c 0
 914 655 905 630 898 603 c 0
 893 583 891 563 891 541 c 0
 891 497 899 458 917 422 c 0
 923 409 927 403 935 388 c 0
 935 381 930 374 924 366 c 0
 917 358 908 353 903 353 c 0
 898 353 891 358 887 364 c 0
 854 421 837 479 836 536 c 0
 836 561 839 585 850 602 c 2
 100 -156 l 2
 96 -160 89 -163 82 -163 c 0
 65 -162 54 -151 53 -134 c 0
 53 -128 55 -121 59 -116 c 2
 818 634 l 2
 802 624 777 621 752 621 c 0
 692 621 634 638 579 671 c 0
 574 674 569 682 570 689 c 0
 570 693 575 701 583 708 c 0
 591 714 598 719 605 719 c 0
 619 711 625 707 638 701 c 0
 674 683 713 675 756 675 c 0
 806 675 851 687 891 711 c 2
 926 732 l 1
 938 730 946 722 947 712 c 0
EndSplineSet
Colour: ff
EndChar
StartChar: uF2FB0
Encoding: 995248 995248 305
Width: 1000
Flags: MW
LayerCount: 2
Fore
SplineSet
369 308 m 1
 369 155 l 1
 920 155 l 1
 920 45 l 1
 369 45 l 1
 369 -109 l 1
 62 100 l 1
 369 308 l 1
631 292 m 1
 631 445 l 1
 80 445 l 1
 80 555 l 1
 631 555 l 1
 631 709 l 1
 938 500 l 1
 631 292 l 1
EndSplineSet
Colour: 8080ff
EndChar
StartChar: uF2FB1
Encoding: 995249 995249 345
Width: 1000
Flags: MW
LayerCount: 2
Fore
SplineSet
869 539 m 1
 722 536 l 1
 722 -6 l 1
 638 -6 l 1
 638 536 l 1
 493 539 l 1
 680 731 l 1
 869 539 l 1
507 184 m 1
 320 -8 l 1
 131 184 l 1
 278 187 l 1
 278 729 l 1
 362 729 l 1
 362 187 l 1
 507 184 l 1
EndSplineSet
Colour: ff
EndChar
StartChar: uF2FB2
Encoding: 995250 995250 346
Width: 1000
Flags: MW
LayerCount: 2
Fore
SplineSet
868 319 m 1
 326 319 l 1
 323 174 l 1
 130 361 l 1
 323 549 l 1
 326 403 l 1
 868 403 l 1
 868 319 l 1
EndSplineSet
Colour: ff
EndChar
StartChar: uF2FB3
Encoding: 995251 995251 347
Width: 1000
Flags: MW
LayerCount: 2
Fore
SplineSet
870 361 m 1
 677 174 l 1
 674 319 l 1
 132 319 l 1
 132 403 l 1
 674 403 l 1
 677 549 l 1
 870 361 l 1
EndSplineSet
Colour: ff
EndChar
StartChar: uF2FB5
Encoding: 995253 995253 349
Width: 1000
Flags: MW
LayerCount: 2
Fore
SplineSet
292 169 m 1
 445 169 l 1
 445 720 l 1
 555 720 l 1
 555 169 l 1
 709 169 l 1
 500 -138 l 1
 292 169 l 1
EndSplineSet
Colour: 8080ff
EndChar
StartChar: uF2FB7
Encoding: 995255 995255 351
Width: 1000
Flags: MW
LayerCount: 2
Fore
SplineSet
741 95 m 0
 741 88 736 80 728 78 c 0
 704 71 687 66 676 61 c 0
 659 54 645 46 630 35 c 0
 600 13 576 -13 556 -45 c 0
 541 -69 531 -95 524 -122 c 0
 523 -127 522 -137 519 -148 c 0
 517 -156 509 -163 500 -163 c 0
 491 -163 483 -156 481 -147 c 0
 480 -141 478 -134 476 -122 c 0
 469 -94 459 -68 444 -45 c 0
 410 11 362 49 301 70 c 0
 294 71 285 74 272 78 c 0
 263 81 259 97 259 117 c 0
 260 127 269 134 279 133 c 2
 282 133 l 1
 316 124 344 113 362 104 c 0
 414 76 456 37 478 -9 c 1
 478 577 l 1
 465 544 436 513 400 487 c 0
 369 466 330 448 282 436 c 1
 283 437 282 436 278 435 c 0
 267 436 259 451 259 474 c 0
 259 480 265 488 273 490 c 0
 280 491 288 494 301 498 c 0
 363 518 410 556 444 613 c 0
 458 636 468 661 475 687 c 0
 476 694 478 704 481 717 c 0
 483 726 491 732 500 732 c 0
 509 732 517 725 519 716 c 0
 520 709 523 699 526 685 c 0
 537 643 558 605 589 571 c 0
 619 539 653 515 691 501 c 0
 699 499 711 495 728 490 c 0
 737 487 741 472 741 452 c 0
 740 442 732 435 721 435 c 2
 717 436 l 2
 672 449 632 466 601 487 c 0
 565 512 536 544 522 577 c 1
 522 -9 l 1
 536 24 565 56 601 81 c 0
 632 102 671 120 718 133 c 0
 720 133 720 133 722 133 c 0
 733 132 739 124 741 115 c 0
 741 107 741 102 741 95 c 0
EndSplineSet
Colour: ff
EndChar
StartChar: uF2FBD
Encoding: 995261 995261 48
Width: 1000
Flags: MW
LayerCount: 2
Fore
SplineSet
350 -154 m 1
 350 -46 l 1
 650 -46 l 1
 650 -154 l 1
 350 -154 l 1
350 46 m 1
 350 154 l 1
 650 154 l 1
 650 46 l 1
 350 46 l 1
350 246 m 1
 350 354 l 1
 650 354 l 1
 650 246 l 1
 350 246 l 1
350 446 m 1
 350 554 l 1
 650 554 l 1
 650 446 l 1
 350 446 l 1
350 646 m 1
 350 754 l 1
 650 754 l 1
 650 646 l 1
 350 646 l 1
EndSplineSet
EndChar
StartChar: uF2FBE
Encoding: 995262 995262 49
Width: 1000
Flags: MW
LayerCount: 2
Fore
SplineSet
528 257 m 17
 543 272 l 9
 610 229 658 218 715 161 c 24
 772 104 783 56 826 -11 c 17
 811 -26 l 9
 744 17 696 28 639 85 c 24
 582 142 571 190 528 257 c 17
446 50 m 24
 446 130 472 172 489 250 c 17
 511 250 l 9
 528 172 554 130 554 50 c 24
 554 -30 528 -72 511 -150 c 17
 489 -150 l 9
 472 -72 446 -30 446 50 c 24
174 -11 m 9
 217 56 228 104 285 161 c 24
 342 218 390 229 457 272 c 17
 472 257 l 9
 429 190 418 142 361 85 c 24
 304 28 256 17 189 -26 c 17
 174 -11 l 9
50 289 m 17
 50 311 l 9
 128 328 170 354 250 354 c 24
 330 354 372 328 450 311 c 17
 450 289 l 9
 372 272 330 246 250 246 c 24
 170 246 128 272 50 289 c 17
174 611 m 17
 189 626 l 9
 256 583 304 572 361 515 c 24
 418 458 429 410 472 343 c 17
 457 328 l 9
 390 371 342 382 285 439 c 24
 228 496 217 544 174 611 c 17
446 550 m 24
 446 630 472 672 489 750 c 17
 511 750 l 9
 528 672 554 630 554 550 c 24
 554 470 528 428 511 350 c 17
 489 350 l 9
 472 428 446 470 446 550 c 24
528 343 m 9
 571 410 582 458 639 515 c 24
 696 572 744 583 811 626 c 17
 826 611 l 9
 783 544 772 496 715 439 c 24
 658 382 610 371 543 328 c 17
 528 343 l 9
550 289 m 17
 550 311 l 9
 628 328 670 354 750 354 c 24
 830 354 872 328 950 311 c 17
 950 289 l 9
 872 272 830 246 750 246 c 24
 670 246 628 272 550 289 c 17
EndSplineSet
EndChar
StartChar: uF2FC2
Encoding: 995266 995266 53
Width: 1000
Flags: MW
LayerCount: 2
Fore
SplineSet
886 150 m 1
 806 450 l 1
 914 450 l 1
 994 150 l 1
 886 150 l 1
686 150 m 1
 606 450 l 1
 714 450 l 1
 794 150 l 1
 686 150 l 1
486 150 m 1
 406 450 l 1
 514 450 l 1
 594 150 l 1
 486 150 l 1
286 150 m 1
 206 450 l 1
 314 450 l 1
 394 150 l 1
 286 150 l 1
86 150 m 1
 6 450 l 1
 114 450 l 1
 194 150 l 1
 86 150 l 1
EndSplineSet
EndChar
StartChar: uF2FC3
Encoding: 995267 995267 54
Width: 1000
Flags: MW
LayerCount: 2
Fore
SplineSet
350 -86 m 1
 650 -6 l 1
 650 -114 l 1
 350 -194 l 1
 350 -86 l 1
350 114 m 1
 650 194 l 1
 650 86 l 1
 350 6 l 1
 350 114 l 1
350 314 m 1
 650 394 l 1
 650 286 l 1
 350 206 l 1
 350 314 l 1
350 514 m 1
 650 594 l 1
 650 486 l 1
 350 406 l 1
 350 514 l 1
350 714 m 1
 650 794 l 1
 650 686 l 1
 350 606 l 1
 350 714 l 1
EndSplineSet
EndChar
StartChar: uF2FC4
Encoding: 995268 995268 327
Width: 1000
VWidth: 900
Flags: MW
LayerCount: 2
Fore
SplineSet
500 309 m 1
 441 379 393 431 393 511 c 0
 393 561 413 603 444 641 c 1
 465 639 485 626 500 608 c 1
 515 626 535 639 556 641 c 1
 587 603 607 561 607 511 c 0
 607 431 559 379 500 309 c 1
500 364 m 1
 544 416 572 456 572 511 c 0
 572 542 563 570 543 600 c 1
 528 592 517 586 500 566 c 1
 484 584 474 591 457 600 c 1
 437 570 428 542 428 511 c 0
 428 456 456 416 500 364 c 1
304 240 m 0
 233 240 179 277 139 338 c 1
 147 357 166 372 188 381 c 1
 178 396 172 413 172 430 c 0
 172 435 173 440 174 445 c 1
 201 455 229 462 258 462 c 0
 366 462 414 382 472 289 c 1
 409 263 358 240 304 240 c 0
697 240 m 0
 643 240 591 263 528 289 c 1
 588 385 635 462 743 462 c 0
 771 462 799 455 826 445 c 1
 827 440 828 435 828 430 c 0
 828 413 822 396 812 381 c 1
 834 372 853 357 861 338 c 1
 821 277 768 240 697 240 c 0
304 276 m 0
 340 276 376 288 420 306 c 1
 376 377 337 427 257 427 c 0
 242 427 226 425 209 420 c 1
 212 403 214 390 228 368 c 1
 206 358 196 351 182 338 c 1
 212 298 254 276 304 276 c 0
696 276 m 0
 746 276 788 298 818 338 c 1
 806 350 797 358 772 368 c 1
 785 389 788 401 791 420 c 1
 774 425 758 427 743 427 c 0
 663 427 623 375 580 306 c 1
 624 288 660 276 696 276 c 0
333 -45 m 1
 317 -31 309 -9 307 14 c 1
 299 12 290 11 282 11 c 0
 268 11 254 14 243 20 c 1
 240 69 248 115 278 156 c 0
 325 220 394 234 483 256 c 1
 486 222 488 191 488 162 c 0
 488 51 433 -20 333 -45 c 1
667 -45 m 1
 564 -19 512 51 512 162 c 0
 512 191 514 222 517 256 c 1
 606 234 675 220 722 156 c 0
 752 115 760 69 757 20 c 1
 746 14 732 11 718 11 c 0
 710 11 701 12 693 14 c 1
 691 -9 683 -31 667 -45 c 1
347 -5 m 1
 424 24 453 79 453 163 c 0
 453 179 452 195 451 212 c 1
 385 195 338 179 306 135 c 0
 288 110 279 82 277 46 c 1
 286 45 293 44 301 44 c 0
 310 44 319 45 332 48 c 1
 334 24 338 13 347 -5 c 1
653 -5 m 1
 661 11 666 22 668 48 c 1
 682 45 691 44 701 44 c 0
 708 44 715 45 723 46 c 1
 721 82 712 110 694 135 c 0
 662 179 615 195 549 212 c 1
 548 193 547 175 547 159 c 0
 547 79 577 24 653 -5 c 1
EndSplineSet
Colour: 8000ff
EndChar
StartChar: uF2FC8
Encoding: 995272 995272 329
Width: 1000
Flags: W
LayerCount: 2
Fore
SplineSet
195 610 m 1
 195 0 l 1
 805 0 l 1
 805 610 l 1
 195 610 l 1
865 -60 m 1
 135 -60 l 1
 135 670 l 1
 865 670 l 1
 865 -60 l 1
682 122 m 1
 318 122 l 1
 318 488 l 1
 682 488 l 1
 682 122 l 1
623 182 m 1
 623 428 l 1
 377 428 l 1
 377 182 l 1
 623 182 l 1
EndSplineSet
Colour: ff
EndChar
StartChar: uF2FCA
Encoding: 995274 995274 328
Width: 1000
Flags: W
LayerCount: 2
Fore
SplineSet
440 0 m 1
 195 245 l 1
 195 0 l 1
 440 0 l 1
805 245 m 1
 560 0 l 1
 805 0 l 1
 805 245 l 1
560 610 m 1
 805 365 l 1
 805 610 l 1
 560 610 l 1
440 610 m 1
 195 610 l 1
 195 365 l 1
 440 610 l 1
865 -60 m 1
 135 -60 l 1
 135 670 l 1
 865 670 l 1
 865 -60 l 1
378 427 m 1
 378 183 l 1
 622 183 l 1
 622 427 l 1
 378 427 l 1
EndSplineSet
Colour: ff
EndChar
StartChar: uF2FCB
Encoding: 995275 995275 335
Width: 1000
Flags: W
LayerCount: 2
Fore
SplineSet
445 360 m 1
 445 250 l 1
 555 250 l 1
 555 360 l 1
 445 360 l 1
615 190 m 1
 385 190 l 1
 385 420 l 1
 615 420 l 1
 615 190 l 1
195 610 m 1
 195 0 l 1
 805 0 l 1
 805 610 l 1
 195 610 l 1
865 -60 m 1
 135 -60 l 1
 135 670 l 1
 865 670 l 1
 865 -60 l 1
325 480 m 1
 325 130 l 1
 675 130 l 1
 675 480 l 1
 325 480 l 1
735 70 m 1
 265 70 l 1
 265 540 l 1
 735 540 l 1
 735 70 l 1
EndSplineSet
Colour: ff
EndChar
StartChar: uF2FCC
Encoding: 995276 995276 375
Width: 1000
Flags: W
LayerCount: 2
Fore
SplineSet
295 510 m 1
 295 100 l 1
 705 100 l 1
 705 510 l 1
 295 510 l 1
765 40 m 1
 235 40 l 1
 235 570 l 1
 765 570 l 1
 765 40 l 1
EndSplineSet
Colour: ff
EndChar
StartChar: uF2FCE
Encoding: 995278 995278 332
Width: 1000
Flags: W
LayerCount: 2
Fore
SplineSet
765 40 m 1
 235 40 l 1
 235 570 l 1
 765 570 l 1
 765 40 l 1
EndSplineSet
Colour: ff
EndChar
StartChar: uF2FD0
Encoding: 995280 995280 348
Width: 1000
Flags: W
LayerCount: 2
Fore
SplineSet
430 375 m 1
 195 375 l 1
 195 235 l 1
 430 235 l 1
 430 -13 l 1
 570 -13 l 1
 570 235 l 1
 805 235 l 1
 805 375 l 1
 570 375 l 1
 570 610 l 1
 430 610 l 1
 430 375 l 1
370 435 m 1
 370 670 l 1
 630 670 l 1
 630 435 l 1
 865 435 l 1
 865 175 l 1
 630 175 l 1
 630 -60 l 1
 370 -60 l 1
 370 175 l 1
 135 175 l 1
 135 435 l 1
 370 435 l 1
EndSplineSet
Colour: ff
EndChar
StartChar: uF2FD4
Encoding: 995284 995284 344
Width: 1000
Flags: W
LayerCount: 2
Fore
SplineSet
500 696 m 1
 109 305 l 1
 500 -86 l 1
 891 305 l 1
 500 696 l 1
500 -165 m 1
 30 305 l 1
 500 775 l 1
 970 305 l 1
 500 -165 l 1
500 501 m 1
 304 305 l 1
 500 109 l 1
 696 305 l 1
 500 501 l 1
500 30 m 1
 225 305 l 1
 500 580 l 1
 775 305 l 1
 500 30 l 1
EndSplineSet
Colour: ff
EndChar
StartChar: uF2FD7
Encoding: 995287 995287 386
Width: 1000
Flags: W
LayerCount: 2
Fore
SplineSet
500 561 m 1
 244 305 l 1
 500 49 l 1
 756 305 l 1
 500 561 l 1
500 -30 m 1
 165 305 l 1
 500 640 l 1
 835 305 l 1
 500 -30 l 1
EndSplineSet
Colour: ff
EndChar
StartChar: uF2FD9
Encoding: 995289 995289 343
Width: 1000
Flags: W
LayerCount: 2
Fore
SplineSet
500 -30 m 1
 165 305 l 1
 500 640 l 1
 835 305 l 1
 500 -30 l 1
EndSplineSet
Colour: ff
EndChar
StartChar: uF2FDE
Encoding: 995294 995294 351
Width: 1000
Flags: W
LayerCount: 2
Fore
SplineSet
500 167 m 128
 462 167 429 181 402 208 c 128
 375 235 362 267 362 305 c 128
 362 343 375 375 402 402 c 128
 429 429 462 443 500 443 c 128
 538 443 571 429 598 402 c 128
 625 375 638 343 638 305 c 128
 638 267 625 235 598 208 c 128
 571 181 538 167 500 167 c 128
500 213 m 128
 525 213 546 222 564 240 c 128
 582 258 592 280 592 305 c 128
 592 330 582 352 564 370 c 128
 546 388 525 397 500 397 c 128
 475 397 452 388 434 370 c 128
 416 352 408 330 408 305 c 128
 408 280 416 258 434 240 c 128
 452 222 475 213 500 213 c 128
EndSplineSet
Colour: ff
EndChar
StartChar: uF2FE0
Encoding: 995296 995296 350
Width: 1000
Flags: W
LayerCount: 2
Fore
SplineSet
500 167 m 128
 462 167 429 181 402 208 c 128
 375 235 362 267 362 305 c 128
 362 343 375 375 402 402 c 128
 429 429 462 443 500 443 c 128
 538 443 571 429 598 402 c 128
 625 375 638 343 638 305 c 128
 638 267 625 235 598 208 c 128
 571 181 538 167 500 167 c 128
EndSplineSet
Colour: ff
EndChar
StartChar: uF3D70
Encoding: 998768 998768 362
Width: 1000
Flags: W
LayerCount: 2
Fore
SplineSet
125 92 m 0
 125 138 141 176 174 207 c 128
 207 238 251 253 307 253 c 2
 342 253 l 1
 342 357 l 1
 307 357 l 2
 251 357 207 372 174 403 c 128
 141 434 125 472 125 518 c 0
 125 563 140 600 172 632 c 128
 204 664 242 680 287 680 c 0
 333 680 371 664 402 631 c 128
 433 598 448 554 448 498 c 2
 448 463 l 1
 552 463 l 1
 552 498 l 2
 552 554 567 598 598 631 c 128
 629 664 667 680 713 680 c 0
 758 680 796 664 828 632 c 128
 860 600 875 563 875 518 c 0
 875 472 859 434 826 403 c 128
 793 372 749 357 693 357 c 2
 658 357 l 1
 658 253 l 1
 693 253 l 2
 749 253 793 238 826 207 c 128
 859 176 875 138 875 92 c 0
 875 47 860 10 828 -22 c 128
 796 -54 758 -70 713 -70 c 0
 667 -70 629 -54 598 -21 c 128
 567 12 552 56 552 112 c 2
 552 147 l 1
 448 147 l 1
 448 112 l 2
 448 56 433 12 402 -21 c 128
 371 -54 333 -70 287 -70 c 0
 242 -70 204 -54 172 -22 c 128
 140 10 125 47 125 92 c 0
232 92 m 0
 232 77 237 65 248 54 c 128
 259 43 272 37 287 37 c 0
 324 37 342 62 342 112 c 2
 342 147 l 1
 307 147 l 2
 257 147 232 129 232 92 c 0
232 518 m 0
 232 481 257 463 307 463 c 2
 342 463 l 1
 342 498 l 2
 342 548 324 573 287 573 c 0
 272 573 259 567 248 556 c 128
 237 545 232 533 232 518 c 0
448 253 m 1
 552 253 l 1
 552 357 l 1
 448 357 l 1
 448 253 l 1
658 112 m 2
 658 62 676 37 713 37 c 0
 728 37 741 43 752 54 c 128
 763 65 768 77 768 92 c 0
 768 129 743 147 693 147 c 2
 658 147 l 1
 658 112 l 2
658 463 m 1
 693 463 l 2
 743 463 768 481 768 518 c 0
 768 533 763 545 752 556 c 128
 741 567 728 573 713 573 c 0
 676 573 658 548 658 498 c 2
 658 463 l 1
EndSplineSet
Colour: ff
EndChar
StartChar: uF3F48
Encoding: 999240 999240 323
Width: 1000
Flags: W
LayerCount: 2
Fore
SplineSet
140 0 m 0
 140 33 153 60 179 82 c 128
 205 104 239 115 280 115 c 0
 301 115 320 112 337 105 c 1
 338 107 l 1
 338 630 l 1
 860 730 l 1
 860 160 l 2
 860 113 847 76 820 50 c 128
 793 24 757 10 710 10 c 0
 678 10 652 19 631 36 c 128
 610 53 600 74 600 100 c 0
 600 133 613 160 639 182 c 128
 665 204 699 215 740 215 c 0
 761 215 780 212 797 205 c 1
 798 207 l 1
 798 558 l 1
 400 482 l 1
 400 60 l 2
 400 13 387 -24 360 -50 c 128
 333 -76 297 -90 250 -90 c 0
 218 -90 192 -81 171 -64 c 128
 150 -47 140 -26 140 0 c 0
EndSplineSet
Colour: ff
EndChar
StartChar: uF3F4B
Encoding: 999243 999243 226
Width: 1000
Flags: MW
LayerCount: 2
Fore
SplineSet
939 284 m 256
 939 162 896 59 811 -27 c 0
 726 -113 621 -155 499 -155 c 256
 377 -155 274 -113 189 -27 c 0
 104 59 61 162 61 284 c 256
 61 406 104 509 189 595 c 0
 274 681 377 723 499 723 c 256
 621 723 724 681 810 595 c 0
 896 509 939 406 939 284 c 256
880 284 m 256
 880 390 843 479 769 553 c 0
 695 627 605 664 499 664 c 256
 393 664 304 627 230 553 c 0
 156 479 119 390 119 284 c 256
 119 178 156 89 230 15 c 0
 304 -59 393 -96 499 -96 c 256
 605 -96 695 -59 769 15 c 0
 843 89 880 178 880 284 c 256
693 284 m 256
 693 230 674 185 636 148 c 0
 598 111 553 92 499 92 c 256
 445 92 400 111 363 148 c 0
 326 185 307 230 307 284 c 256
 307 338 326 383 363 421 c 0
 400 459 445 477 499 477 c 256
 553 477 598 459 636 421 c 0
 674 383 693 338 693 284 c 256
EndSplineSet
Colour: ff
EndChar
